<?xml version="1.0" encoding="UTF-8" standalone="no"?>
<?walls updated="no" merged-content="no" adjustable="no"?>
<?compass inkscape-compatible="yes"?>
<svg xmlns:i="http://ns.adobe.com/AdobeIllustrator/10.0/" xmlns:dc="http://purl.org/dc/elements/1.1/" xmlns:cc="http://creativecommons.org/ns#" xmlns:rdf="http://www.w3.org/1999/02/22-rdf-syntax-ns#" xmlns:svg="http://www.w3.org/2000/svg" xmlns="http://www.w3.org/2000/svg" xmlns:xlink="http://www.w3.org/1999/xlink" xmlns:sodipodi="http://sodipodi.sourceforge.net/DTD/sodipodi-0.dtd" xmlns:inkscape="http://www.inkscape.org/namespaces/inkscape" 
 width="57pt" height="147pt"
  version="1.1"
  id="svg46"
  sodipodi:docname="galerie_noua_catarata_piciorul_beni-xs-w6.svg"
  inkscape:version="0.92.4 (5da689c313, 2019-01-14)">
<!-- SVG created by TopoDroid v. 6.0.92 -->
  <metadata id="metadata52">
    <rdf:RDF><cc:Work rdf:about="">
      <dc:format>image/svg+xml</dc:format>
      <dc:type rdf:resource="http://purl.org/dc/dcmitype/StillImage" />
    </cc:Work></rdf:RDF>
  </metadata>
  <sodipodi:namedview pagecolor="#ffffff" bordercolor="#666666" borderopacity="1" objecttolerance="10" gridtolerance="10" guidetolerance="10" inkscape:pageopacity="0" inkscape:pageshadow="2" inkscape:window-width="auto" inkscape:window-height="auto" id="namedview48" showgrid="false" inkscape:zoom="1" inkscape:cx="auto" inkscape:cy="auto" inkscape:window-x="0" inkscape:window-y="0" inkscape:window-maximized="1" inkscape:current-layer="w2d_Walls_shp" showborder="false"/>
  <defs id="defs">
    <marker id="Triangle" viewBox="0 0 10 10" refX="0" refY="5" 
      markerUnits="strokeWidth" markerWidth="4" markerHeight="3" orient="auto" >
      <path d="M 0 0 L 10 5 L 0 10 z" />
    </marker>
    <marker id="dir" viewBox="0 0 10 30"  orient="auto"       markerUnits="strokeWidth" markerWidth="4" refX="0" refY="30"      markerHeight="30" stroke="#cccc3a" stroke-width="12.00" fill="none" >
      <line x1="0" y1="0" x2="0" y2="30" />
    </marker>
    <marker id="rev" viewBox="0 0 10 30"  orient="auto"      markerUnits="strokeWidth" markerWidth="4" refX="0" refY="0"      markerHeight="30" stroke="#cccc3a" stroke-width="12.00" fill="none" >
      <line x1="0" y1="0" x2="0" y2="30" />
    </marker>
    <g id="icons"  inkscape:groupmode="layer" i:layer="yes" >
    <marker id="user">
      <path inkscape:connector-curvature="0" d=""/> <circle cx="0.00" cy="0.00" r="1.50" />
    </marker>
    <marker id="label">
      <path inkscape:connector-curvature="0" d="M 0.00 0.75 L 0.00 -1.50 L -0.75 -1.50 L 0.75 -1.50 "/> 
    </marker>
    <marker id="section">
      <path inkscape:connector-curvature="0" d="M -1.25 -1.25 L -1.25 1.25 L 1.25 1.25 L 1.25 -1.25 L -1.25 -1.25 "/> 
    </marker>
    <marker id="air-draught">
      <path inkscape:connector-curvature="0" d="M -1.00 1.75 L 0.00 0.75 L 0.00 -2.50 L 1.00 -1.50 M 0.00 -2.50 L -1.00 -1.50 M -1.00 1.00 L 0.00 0.00 "/> 
    </marker>
    <marker id="anchor">
      <path inkscape:connector-curvature="0" d="M 1.25 0.00 L -1.25 0.00 "/> <circle cx="0.00" cy="0.00" r="1.25" />
    </marker>
    <marker id="aragonite">
      <path inkscape:connector-curvature="0" d="M 0.00 -1.25 L 0.00 1.75 M -0.50 -1.75 L 0.00 -1.25 L 0.50 -1.75 M -0.75 -1.00 L 0.00 -0.25 L 0.75 -1.00 "/> 
    </marker>
    <marker id="archeo-material">
      <path inkscape:connector-curvature="0" d="M -0.88 0.88 L 0.00 0.00 M -0.88 -0.88 L 0.00 0.00 L 1.25 0.00 "/> <circle cx="0.00" cy="0.00" r="1.25" />
    </marker>
    <marker id="blocks">
      <path inkscape:connector-curvature="0" d="M -1.75 1.00 L 1.50 1.50 L 2.00 1.25 L 1.75 -1.25 L -1.25 -1.50 L -1.75 -1.00 L -1.75 1.00 L 0.50 -0.25 L 2.00 1.25 M -1.75 -1.00 L 0.50 -0.25 L 1.75 -1.25 "/> 
    </marker>
    <marker id="clay">
      <path inkscape:connector-curvature="0" d="M -2.00 0.75 L -0.50 -0.75 M -0.75 0.75 L 0.75 -0.75 M 0.50 0.75 L 2.00 -0.75 "/> 
    </marker>
    <marker id="continuation">
      <path inkscape:connector-curvature="0" d="M 0.00 0.75 L 0.00 0.00 C 0.00 -0.25 0.25 -0.50 0.50 -0.75 C 0.75 -1.00 0.25 -1.50 0.00 -1.50 C -0.25 -1.50 -0.75 -0.75 -0.75 -1.00 M 0.00 1.75 L 0.00 1.25 "/> 
    </marker>
    <marker id="crystal">
      <path inkscape:connector-curvature="0" d="M -1.25 0.00 L 1.25 0.00 M 0.00 -1.25 L 0.00 1.25 L 1.25 0.00 L 0.00 -1.25 L -1.25 0.00 L 0.00 1.25 "/> 
    </marker>
    <marker id="curtain">
      <path inkscape:connector-curvature="0" d="M -1.00 -1.00 L 0.00 0.00 L 1.00 -1.00 M 0.00 0.00 L 0.00 0.50 C -0.25 0.50 -0.50 0.75 -0.50 1.00 C -0.50 1.25 -0.25 1.50 0.00 1.50 L 0.00 2.00 "/> 
    </marker>
    <marker id="danger">
      <path inkscape:connector-curvature="0" d="M 0.00 0.00 L 0.50 -2.00 L -0.50 -2.00 L 0.00 0.00 "/> <circle cx="0.00" cy="1.00" r="0.50" />
    </marker>
    <marker id="debris">
      <path inkscape:connector-curvature="0" d="M 0.00 0.00 L 1.00 0.25 L 0.50 -0.75 L 0.00 0.00 L -1.00 0.00 L -0.50 -1.00 L 0.00 0.00 "/> 
    </marker>
    <marker id="dig">
      <path inkscape:connector-curvature="0" d="M -1.25 -0.50 L -0.25 -1.50 M -0.75 -1.00 L 1.00 0.75 M 1.25 -0.50 L 0.25 -1.50 M 0.75 -1.00 L -1.00 0.75 "/> 
    </marker>
    <marker id="entrance">
      <path inkscape:connector-curvature="0" d="M 0.00 -1.50 L -0.75 0.75 L 0.75 0.75 L 0.00 -1.50 "/> 
    </marker>
    <marker id="flowstone">
      <path inkscape:connector-curvature="0" d="M -1.50 -0.50 L -0.25 -0.50 M 0.50 -0.50 L 1.75 -0.50 M -0.75 0.50 L 0.75 0.50 "/> 
    </marker>
    <marker id="gradient">
      <path inkscape:connector-curvature="0" d="M 0.00 2.00 L 0.00 -1.00 L -0.50 -0.50 L 0.50 -0.50 L 0.00 -1.00 "/> 
    </marker>
    <marker id="guano">
      <path inkscape:connector-curvature="0" d="M -1.25 0.00 C -1.00 -0.50 -0.25 -0.50 0.00 0.00 L 0.00 1.50 M 1.25 0.00 C 1.00 -0.50 0.25 -0.50 0.00 0.00 "/> 
    </marker>
    <marker id="gypsum">
      <path inkscape:connector-curvature="0" d="M -1.25 0.00 L 0.00 -1.25 L 0.00 1.25 L 1.25 0.00 L -1.25 0.00 "/> 
    </marker>
    <marker id="helictite">
      <path inkscape:connector-curvature="0" d="M 0.00 -1.75 L 0.00 1.75 M -0.75 -1.25 L -0.75 0.00 L 0.75 0.00 L 0.75 1.25 "/> 
    </marker>
    <marker id="ice">
      <path inkscape:connector-curvature="0" d="M -1.25 0.00 L 1.25 0.00 M 0.00 -1.25 L 0.00 1.25 "/> 
    </marker>
    <marker id="minus">
      <path inkscape:connector-curvature="0" d="M 1.00 0.00 L -1.00 0.00 "/> <circle cx="0.00" cy="0.00" r="1.50" />
    </marker>
    <marker id="moonmilk">
      <path inkscape:connector-curvature="0" d="M -2.00 0.25 C -2.00 -0.25 -0.75 -0.25 -0.75 0.25 C -0.75 -0.25 0.50 -0.25 0.50 0.25 C 0.50 -0.25 1.75 -0.25 1.75 0.25 "/> 
    </marker>
    <marker id="mud">
      <path inkscape:connector-curvature="0" d="M -1.50 0.75 L 0.00 -0.75 M -0.75 0.75 L 0.75 -0.75 M 0.00 0.75 L 1.50 -0.75 "/> 
    </marker>
    <marker id="narrow-end">
      <path inkscape:connector-curvature="0" d="M -0.50 -1.50 L -0.50 1.50 M 0.50 -1.50 L 0.50 1.50 "/> 
    </marker>
    <marker id="paleo-material">
      <path inkscape:connector-curvature="0" d="M -1.05 0.45 L 0.88 -0.88 M 1.05 -0.45 L -0.88 0.88 "/> <circle cx="-1.25" cy="0.50" r="0.25" /><circle cx="-1.00" cy="1.00" r="0.25" /><circle cx="1.00" cy="-1.00" r="0.25" /><circle cx="1.25" cy="-0.50" r="0.25" />
    </marker>
    <marker id="pebbles">
      <path inkscape:connector-curvature="0" d=""/> <circle cx="-0.75" cy="0.25" r="0.50" /><circle cx="1.00" cy="0.75" r="0.50" /><circle cx="0.75" cy="-0.75" r="0.50" />
    </marker>
    <marker id="pillar">
      <path inkscape:connector-curvature="0" d="M -0.75 -1.75 L 0.00 -1.00 L 0.00 1.00 L -0.75 1.75 M 0.00 1.00 L 0.75 1.75 M 0.00 -1.00 L 0.75 -1.75 "/> 
    </marker>
    <marker id="plus">
      <path inkscape:connector-curvature="0" d="M 1.00 0.00 L -1.00 0.00 M 0.00 1.00 L 0.00 -1.00 "/> <circle cx="0.00" cy="0.00" r="1.50" />
    </marker>
    <marker id="plus-minus">
      <path inkscape:connector-curvature="0" d="M 1.00 1.00 L -1.00 1.00 M 0.00 -1.75 L 0.00 0.25 M 1.00 -0.75 L -1.00 -0.75 M -1.50 0.75 C -1.50 2.75 1.50 2.75 1.50 0.75 L 1.50 -0.75 C 1.50 -2.75 -1.50 -2.75 -1.50 -0.75 L -1.50 0.75 "/> 
    </marker>
    <marker id="popcorn">
      <path inkscape:connector-curvature="0" d="M -1.75 1.00 L 1.75 1.00 M -1.50 1.00 L -1.50 -0.25 M 0.00 1.00 L 0.00 -0.25 M 1.50 1.00 L 1.50 -0.25 "/> <circle cx="-1.50" cy="-0.50" r="0.25" /><circle cx="0.00" cy="-0.50" r="0.25" /><circle cx="1.50" cy="-0.50" r="0.25" />
    </marker>
    <marker id="root">
      <path inkscape:connector-curvature="0" d="M 0.00 -2.00 L 0.00 1.00 L 0.75 1.75 M 0.00 0.25 L 0.75 1.00 M 0.00 -0.50 L 0.75 0.25 "/> 
    </marker>
    <marker id="sand">
      <path inkscape:connector-curvature="0" d="M -1.75 0.75 L -1.50 0.75 L -1.63 0.50 L -1.75 0.75 M 1.75 0.75 L 1.50 0.75 L 1.63 0.50 L 1.75 0.75 M -0.13 -0.75 L 0.13 -0.75 L 0.00 -1.00 L -0.13 -0.75 "/> 
    </marker>
    <marker id="scallop">
      <path inkscape:connector-curvature="0" d="M 0.00 1.50 L -0.75 0.00 C -0.75 -0.38 -0.38 -0.75 0.00 -0.75 C 0.38 -0.75 0.75 -0.38 0.75 0.00 L 0.00 1.50 "/> 
    </marker>
    <marker id="sink">
      <path inkscape:connector-curvature="0" d=""/> <circle cx="0.00" cy="0.00" r="1.25" /><circle cx="0.00" cy="0.00" r="0.25" />
    </marker>
    <marker id="snow">
      <path inkscape:connector-curvature="0" d="M 0.00 -1.25 L 0.00 1.25 M -1.00 -0.75 L 1.00 0.75 M -1.00 0.75 L 1.00 -0.75 "/> 
    </marker>
    <marker id="soda-straw">
      <path inkscape:connector-curvature="0" d="M -1.50 -0.50 L 1.50 -0.50 M -1.00 -0.50 L -1.00 0.50 M 0.00 -0.50 L 0.00 1.50 M 1.00 -0.50 L 1.00 1.00 "/> 
    </marker>
    <marker id="spring">
      <path inkscape:connector-curvature="0" d="M 0.00 0.00 L 0.00 -2.00 L 0.75 -1.25 M 0.00 -2.00 L -0.75 -1.25 "/> <circle cx="0.00" cy="0.00" r="1.00" /><circle cx="0.00" cy="0.00" r="0.25" />
    </marker>
    <marker id="stalactite">
      <path inkscape:connector-curvature="0" d="M -1.00 -1.00 L 0.00 0.00 L 1.00 -1.00 M 0.00 0.00 L 0.00 1.50 "/> 
    </marker>
    <marker id="stalagmite">
      <path inkscape:connector-curvature="0" d="M -1.00 1.00 L 0.00 0.00 L 1.00 1.00 M 0.00 0.00 L 0.00 -1.50 "/> 
    </marker>
    <marker id="wall-calcite">
      <path inkscape:connector-curvature="0" d="M -1.50 0.50 L -0.75 -0.50 L 0.00 0.50 L 0.75 -0.50 L 1.50 0.50 "/> 
    </marker>
    <marker id="water">
      <path inkscape:connector-curvature="0" d="M -1.50 -0.75 L -0.25 -0.75 M 0.50 -0.75 L 1.50 -0.75 M -1.00 0.00 L 0.25 0.00 M 0.75 0.00 L 1.75 0.00 M -0.75 0.75 L 1.25 0.75 "/> 
    </marker>
    <marker id="water-drip">
      <path inkscape:connector-curvature="0" d="M 0.00 -2.00 L 0.00 -1.00 M 0.00 -0.50 L 0.00 0.50 M 0.00 1.00 L 0.00 2.00 L 1.00 1.00 M 0.00 2.00 L -1.00 1.00 "/> 
    </marker>
    <marker id="water-flow">
      <path inkscape:connector-curvature="0" d="M 0.00 0.75 C -0.25 0.75 -0.25 0.00 0.00 0.00 C 0.25 0.00 0.25 -0.75 0.00 -0.75 C -0.25 -0.75 -0.25 -1.50 0.00 -1.50 C 0.25 -1.50 0.38 -1.63 0.38 -1.88 C 0.38 -2.13 0.00 -2.25 0.00 -2.50 L 1.00 -1.50 M 0.00 -2.50 L -1.00 -1.50 "/> 
    </marker>
    </g>
  </defs>
  <svg width="auto" height="auto"
 overflow="hidden" version="1.1" id="svg44" style="display:inline;overflow:hidden" >
    <g id="w2d_Background"  inkscape:groupmode="layer" i:layer="yes" />
    <g id="w2d_Ref"  inkscape:groupmode="layer" i:layer="yes" />
    <g id="cmp_tracing"  inkscape:groupmode="layer" i:layer="yes" >
    <g id="cmp_Sketchmap2"  inkscape:groupmode="layer" i:layer="yes" />
    <g id="cmp_Sketchmap1"  inkscape:groupmode="layer" i:layer="yes" />
      <g id="cmp_passage"  inkscape:groupmode="layer" i:layer="yes" />
      <g id="cmp_LRUDs"  inkscape:groupmode="layer" i:layer="yes" />
    </g>
    <g id="w2d_Mask"  inkscape:groupmode="layer" i:layer="yes" />
    <g id="w2d_Detail"  inkscape:groupmode="layer" i:layer="yes" >
      <g id="w2d_Detail_shp"  inkscape:groupmode="layer" i:layer="yes" >
        <g id="scrap_0">
        </g>
      </g>
      <g id="w2d_Detail_sym"  inkscape:groupmode="layer" i:layer="yes" >
        <g id="scrap_0">
        </g>
      </g>
    </g>
    <g id="w2d_Walls"  inkscape:groupmode="layer" i:layer="yes" >
      <g id="w2d_Walls_shp"  inkscape:groupmode="layer" i:layer="yes" >
        <g id="scrap_0">
  <path stroke="#ff0000" stroke-width="2.50" fill="none" class="wall" d="M 52.33 69.70 L 50.77 69.92 L 49.34 70.34 L 47.79 70.91 L 46.23 71.58 L 44.79 72.30 L 43.09 73.19 L 41.46 73.92 L 40.14 74.43 L 38.80 74.64 L 37.48 75.03 L 36.22 75.75 L 35.39 76.77 L 34.84 78.25 L 34.87 79.69 L 35.00 81.09 L 34.67 82.73 L 34.22 84.01 L 33.89 85.29 L 33.55 86.67 L 33.23 88.10 L 32.92 89.81 L 32.02 91.20 L 31.30 92.31 L 30.67 93.60 L 30.04 94.95 L 29.51 96.18 L 28.87 97.76 L 28.26 99.39 L 27.67 100.94 L 27.32 102.40 L 26.93 104.03 L 27.09 105.38 L 27.16 106.82 L 27.22 108.12 L 27.55 109.46 L 28.03 110.79 L 28.63 112.04 L 29.38 113.32 L 29.93 114.51 L 30.67 115.99 L 31.26 117.28 L 31.86 118.52 L 32.23 119.81 L 32.60 121.13 L 32.77 121.88" />
  <path stroke="#ff0000" stroke-width="2.50" fill="none" class="wall" d="M 32.84 122.21 L 33.18 123.50 L 33.67 124.78 L 34.23 126.15 L 34.98 127.32 L 36.05 128.33 L 37.01 129.27 L 38.02 130.16 L 39.20 131.05 L 40.37 131.97 L 41.68 132.58 L 43.00 133.29 L 44.13 133.93 L 45.01 135.20 L 45.88 136.34 L 46.84 137.46 L 47.74 138.58 L 48.78 139.43 L 50.00 139.14 L 50.94 138.22 L 51.47 136.87 L 52.38 135.89 L 52.60 134.62 L 52.60 133.20 L 52.63 131.88 L 52.77 130.43 L 52.70 128.92 L 52.71 127.51 L 52.59 126.20 L 53.17 124.96 L 53.69 123.59 L 53.69 122.15 L 53.29 120.83 L 53.07 119.18 L 53.10 117.69 L 53.33 116.16 L 53.42 114.90 L 53.27 113.43 L 53.10 112.13 L 52.95 110.53 L 52.94 108.98 L 52.89 107.48 L 52.89 105.85 L 53.00 104.49 L 53.02 103.01 L 53.11 101.63 L 53.28 100.19 L 53.50 98.89 L 53.65 97.28 L 53.73 95.79 L 53.96 94.36 L 54.21 92.87 L 54.23 91.51 L 54.12 89.85 L 54.12 88.15 L 54.15 86.65 L 54.23 85.08 L 54.12 83.53 L 54.04 81.76 L 54.04 80.23 L 54.02 78.74 L 54.15 77.10 L 54.19 75.17 L 54.07 73.49 L 53.96 71.95 L 53.71 70.55 L 52.99 69.45 L 51.73 69.53" />
        </g>
      </g>
      <g id="w2d_Walls_sym"  inkscape:groupmode="layer" i:layer="yes" >
        <g id="scrap_0">
        </g>
      </g>
    </g>
    <g id="w2d_Survey"  inkscape:groupmode="layer" i:layer="yes" >
      <g id="w2d_Vectors"  inkscape:groupmode="layer" i:layer="yes" >
      </g>
      <g id="w2d_Markers"  inkscape:groupmode="layer" i:layer="yes" >
<use xlink:href="#_m" width="2" height="2" x="-1" y="-1" transform="matrix(0.80,0.00,-0.00,0.80,52.56,125.20)" style="display:inline" />
      </g>
      <g id="w2d_Flags"  style="display:none"  inkscape:groupmode="layer" i:layer="yes" />
      <g id="w2d_Labels" style="display:inline"  inkscape:groupmode="layer" i:layer="yes" >
<text font-size="32" fill="violet" stroke="none" text-anchor="middle" x="52.56" y="125.20" >w6</text>
        <g id="scrap_0">
      </g>
      </g>
    </g>
    <g id="w2d_Notes" style="display:none"  inkscape:groupmode="layer" i:layer="yes" />
<g id="w2d_Grid"  style="display:inline"  inkscape:groupmode="layer" i:layer="yes" >
<g id="grid"
  style="fill:none;stroke-opacity:0.4" >
<g id="grid1"
 style="fill:none;stroke-opacity:0.4;stroke-width=2.50;stroke:#666666" >
  <path stroke-width="2.50" stroke="#999999" d="M 24.22 0.00 L 24.22 208.88" />
  <path stroke-width="2.50" stroke="#999999" d="M 80.91 0.00 L 80.91 208.88" />
  <path stroke-width="2.50" stroke="#999999" d="M 0.00 11.81 L 81.16 11.81" />
  <path stroke-width="2.50" stroke="#999999" d="M 0.00 40.16 L 81.16 40.16" />
  <path stroke-width="2.50" stroke="#999999" d="M 0.00 68.50 L 81.16 68.50" />
  <path stroke-width="2.50" stroke="#999999" d="M 0.00 96.85 L 81.16 96.85" />
  <path stroke-width="2.50" stroke="#999999" d="M 0.00 153.54 L 81.16 153.54" />
  <path stroke-width="2.50" stroke="#999999" d="M 0.00 181.89 L 81.16 181.89" />
</g>
<g id="grid10"
 style="fill:none;stroke-opacity:0.6;stroke-width=2.50;stroke:#666666" >
</g>
<g id="grid100"
 style="fill:none;stroke-opacity:0.8;stroke-width=2.50;stroke:#666666" >
  <path stroke-width="2.50" stroke="#333333" d="M 52.56 0.00 L 52.56 208.88" />
  <path stroke-width="2.50" stroke="#333333" d="M 0.00 125.20 L 81.16 125.20" />
</g>
</g>
    </g>
    <g id="w2d_Legend" style="display:none"  inkscape:groupmode="layer" i:layer="yes" >
      <g id="Scalebar"    inkscape:groupmode="layer" i:layer="yes" />
      <g id="NorthArrow"  inkscape:groupmode="layer" i:layer="yes" />
    </g>
    <g id="w2d_Frame" style="display:none" /> inkscape:groupmode="layer" i:layer="yes" />
  </svg>
</svg>
