<svg xmlns:i="http://ns.adobe.com/AdobeIllustrator/10.0/" xmlns:dc="http://purl.org/dc/elements/1.1/" xmlns:cc="http://creativecommons.org/ns#" xmlns:rdf="http://www.w3.org/1999/02/22-rdf-syntax-ns#" xmlns:svg="http://www.w3.org/2000/svg" xmlns="http://www.w3.org/2000/svg" xmlns:xlink="http://www.w3.org/1999/xlink" xmlns:sodipodi="http://sodipodi.sourceforge.net/DTD/sodipodi-0.dtd" xmlns:inkscape="http://www.inkscape.org/namespaces/inkscape" 
 width="862pt" height="662pt"
  version="1.1"
  id="svg46"
  sodipodi:docname="galerie_noua_catarata_piciorul_beni-3s.svg"
  inkscape:version="0.92.4 (5da689c313, 2019-01-14)">
<!-- SVG created by TopoDroid v. 6.0.92 -->
  <sodipodi:namedview pagecolor="#ffffff" bordercolor="#666666" borderopacity="1" objecttolerance="10" gridtolerance="10" guidetolerance="10" inkscape:pageopacity="0" inkscape:pageshadow="2" inkscape:window-width="auto" inkscape:window-height="auto" id="namedview48" showgrid="false" inkscape:zoom="1" inkscape:cx="auto" inkscape:cy="auto" inkscape:window-x="0" inkscape:window-y="0" inkscape:window-maximized="1" inkscape:current-layer="w2d_Walls_shp" showborder="false"/>
  <defs>
    <marker id="Triangle" viewBox="0 0 10 10" refX="0" refY="5" 
      markerUnits="strokeWidth" markerWidth="4" markerHeight="3" orient="auto" >
      <path d="M 0 0 L 10 5 L 0 10 z" />
    </marker>
  </defs>
<g id="grid"
  style="fill:none;stroke-opacity:0.4" >
<g id="grid1"
 style="fill:none;stroke-opacity:0.4;stroke-width=2.50;stroke:#666666" >
  <path stroke-width="2.50" stroke="#999999" d="M 23.18 0.00 L 23.18 938.94" />
  <path stroke-width="2.50" stroke="#999999" d="M 51.53 0.00 L 51.53 938.94" />
  <path stroke-width="2.50" stroke="#999999" d="M 79.88 0.00 L 79.88 938.94" />
  <path stroke-width="2.50" stroke="#999999" d="M 108.22 0.00 L 108.22 938.94" />
  <path stroke-width="2.50" stroke="#999999" d="M 136.57 0.00 L 136.57 938.94" />
  <path stroke-width="2.50" stroke="#999999" d="M 164.92 0.00 L 164.92 938.94" />
  <path stroke-width="2.50" stroke="#999999" d="M 221.61 0.00 L 221.61 938.94" />
  <path stroke-width="2.50" stroke="#999999" d="M 249.96 0.00 L 249.96 938.94" />
  <path stroke-width="2.50" stroke="#999999" d="M 278.30 0.00 L 278.30 938.94" />
  <path stroke-width="2.50" stroke="#999999" d="M 306.65 0.00 L 306.65 938.94" />
  <path stroke-width="2.50" stroke="#999999" d="M 335.00 0.00 L 335.00 938.94" />
  <path stroke-width="2.50" stroke="#999999" d="M 363.34 0.00 L 363.34 938.94" />
  <path stroke-width="2.50" stroke="#999999" d="M 391.69 0.00 L 391.69 938.94" />
  <path stroke-width="2.50" stroke="#999999" d="M 420.03 0.00 L 420.03 938.94" />
  <path stroke-width="2.50" stroke="#999999" d="M 448.38 0.00 L 448.38 938.94" />
  <path stroke-width="2.50" stroke="#999999" d="M 505.07 0.00 L 505.07 938.94" />
  <path stroke-width="2.50" stroke="#999999" d="M 533.42 0.00 L 533.42 938.94" />
  <path stroke-width="2.50" stroke="#999999" d="M 561.77 0.00 L 561.77 938.94" />
  <path stroke-width="2.50" stroke="#999999" d="M 590.11 0.00 L 590.11 938.94" />
  <path stroke-width="2.50" stroke="#999999" d="M 618.46 0.00 L 618.46 938.94" />
  <path stroke-width="2.50" stroke="#999999" d="M 646.81 0.00 L 646.81 938.94" />
  <path stroke-width="2.50" stroke="#999999" d="M 675.15 0.00 L 675.15 938.94" />
  <path stroke-width="2.50" stroke="#999999" d="M 703.50 0.00 L 703.50 938.94" />
  <path stroke-width="2.50" stroke="#999999" d="M 731.85 0.00 L 731.85 938.94" />
  <path stroke-width="2.50" stroke="#999999" d="M 788.54 0.00 L 788.54 938.94" />
  <path stroke-width="2.50" stroke="#999999" d="M 816.89 0.00 L 816.89 938.94" />
  <path stroke-width="2.50" stroke="#999999" d="M 845.23 0.00 L 845.23 938.94" />
  <path stroke-width="2.50" stroke="#999999" d="M 873.58 0.00 L 873.58 938.94" />
  <path stroke-width="2.50" stroke="#999999" d="M 901.92 0.00 L 901.92 938.94" />
  <path stroke-width="2.50" stroke="#999999" d="M 930.27 0.00 L 930.27 938.94" />
  <path stroke-width="2.50" stroke="#999999" d="M 958.62 0.00 L 958.62 938.94" />
  <path stroke-width="2.50" stroke="#999999" d="M 986.96 0.00 L 986.96 938.94" />
  <path stroke-width="2.50" stroke="#999999" d="M 1015.31 0.00 L 1015.31 938.94" />
  <path stroke-width="2.50" stroke="#999999" d="M 1072.00 0.00 L 1072.00 938.94" />
  <path stroke-width="2.50" stroke="#999999" d="M 1100.35 0.00 L 1100.35 938.94" />
  <path stroke-width="2.50" stroke="#999999" d="M 1128.70 0.00 L 1128.70 938.94" />
  <path stroke-width="2.50" stroke="#999999" d="M 1157.04 0.00 L 1157.04 938.94" />
  <path stroke-width="2.50" stroke="#999999" d="M 1185.39 0.00 L 1185.39 938.94" />
  <path stroke-width="2.50" stroke="#999999" d="M 1213.74 0.00 L 1213.74 938.94" />
  <path stroke-width="2.50" stroke="#999999" d="M 0.00 1.69 L 1221.94 1.69" />
  <path stroke-width="2.50" stroke="#999999" d="M 0.00 30.04 L 1221.94 30.04" />
  <path stroke-width="2.50" stroke="#999999" d="M 0.00 58.38 L 1221.94 58.38" />
  <path stroke-width="2.50" stroke="#999999" d="M 0.00 115.07 L 1221.94 115.07" />
  <path stroke-width="2.50" stroke="#999999" d="M 0.00 143.42 L 1221.94 143.42" />
  <path stroke-width="2.50" stroke="#999999" d="M 0.00 171.77 L 1221.94 171.77" />
  <path stroke-width="2.50" stroke="#999999" d="M 0.00 200.11 L 1221.94 200.11" />
  <path stroke-width="2.50" stroke="#999999" d="M 0.00 228.46 L 1221.94 228.46" />
  <path stroke-width="2.50" stroke="#999999" d="M 0.00 256.81 L 1221.94 256.81" />
  <path stroke-width="2.50" stroke="#999999" d="M 0.00 285.15 L 1221.94 285.15" />
  <path stroke-width="2.50" stroke="#999999" d="M 0.00 313.50 L 1221.94 313.50" />
  <path stroke-width="2.50" stroke="#999999" d="M 0.00 341.85 L 1221.94 341.85" />
  <path stroke-width="2.50" stroke="#999999" d="M 0.00 398.54 L 1221.94 398.54" />
  <path stroke-width="2.50" stroke="#999999" d="M 0.00 426.89 L 1221.94 426.89" />
  <path stroke-width="2.50" stroke="#999999" d="M 0.00 455.23 L 1221.94 455.23" />
  <path stroke-width="2.50" stroke="#999999" d="M 0.00 483.58 L 1221.94 483.58" />
  <path stroke-width="2.50" stroke="#999999" d="M 0.00 511.93 L 1221.94 511.93" />
  <path stroke-width="2.50" stroke="#999999" d="M 0.00 540.27 L 1221.94 540.27" />
  <path stroke-width="2.50" stroke="#999999" d="M 0.00 568.62 L 1221.94 568.62" />
  <path stroke-width="2.50" stroke="#999999" d="M 0.00 596.96 L 1221.94 596.96" />
  <path stroke-width="2.50" stroke="#999999" d="M 0.00 625.31 L 1221.94 625.31" />
  <path stroke-width="2.50" stroke="#999999" d="M 0.00 682.00 L 1221.94 682.00" />
  <path stroke-width="2.50" stroke="#999999" d="M 0.00 710.35 L 1221.94 710.35" />
  <path stroke-width="2.50" stroke="#999999" d="M 0.00 738.70 L 1221.94 738.70" />
  <path stroke-width="2.50" stroke="#999999" d="M 0.00 767.04 L 1221.94 767.04" />
  <path stroke-width="2.50" stroke="#999999" d="M 0.00 795.39 L 1221.94 795.39" />
  <path stroke-width="2.50" stroke="#999999" d="M 0.00 823.74 L 1221.94 823.74" />
  <path stroke-width="2.50" stroke="#999999" d="M 0.00 852.08 L 1221.94 852.08" />
  <path stroke-width="2.50" stroke="#999999" d="M 0.00 880.43 L 1221.94 880.43" />
  <path stroke-width="2.50" stroke="#999999" d="M 0.00 908.78 L 1221.94 908.78" />
</g>
<g id="grid10"
 style="fill:none;stroke-opacity:0.6;stroke-width=2.50;stroke:#666666" >
  <path stroke-width="2.50" stroke="#666666" d="M 193.26 0.00 L 193.26 938.94" />
  <path stroke-width="2.50" stroke="#666666" d="M 476.73 0.00 L 476.73 938.94" />
  <path stroke-width="2.50" stroke="#666666" d="M 1043.66 0.00 L 1043.66 938.94" />
  <path stroke-width="2.50" stroke="#666666" d="M 0.00 86.73 L 1221.94 86.73" />
  <path stroke-width="2.50" stroke="#666666" d="M 0.00 653.66 L 1221.94 653.66" />
  <path stroke-width="2.50" stroke="#666666" d="M 0.00 937.12 L 1221.94 937.12" />
</g>
<g id="grid100"
 style="fill:none;stroke-opacity:0.8;stroke-width=2.50;stroke:#666666" >
  <path stroke-width="2.50" stroke="#333333" d="M 760.19 0.00 L 760.19 938.94" />
  <path stroke-width="2.50" stroke="#333333" d="M 0.00 370.19 L 1221.94 370.19" />
</g>
</g>
<g id="legs" style="fill:none;stroke-opacity:0.6;stroke:red" >
  <path stroke-width="2.50" stroke="black" d="M 867.06 319.03 L 760.19 370.19" />
  <path stroke-width="2.50" stroke="black" d="M 760.19 370.19 L 662.54 465.99" />
  <path stroke-width="2.50" stroke="black" d="M 662.54 465.99 L 580.04 500.83" />
  <path stroke-width="2.50" stroke="black" d="M 580.04 500.83 L 483.61 524.40" />
  <path stroke-width="2.50" stroke="black" d="M 483.61 524.40 L 371.74 580.20" />
  <path stroke-width="2.50" stroke="black" d="M 371.74 580.20 L 288.17 640.52" />
</g>
<g id="splays"
  style="fill:none;stroke-opacity:0.4;stroke:grey" >
  <path stroke-width="2.50" stroke="grey" d="M 867.06 319.03 L 866.87 317.81" />
  <path stroke-width="2.50" stroke="grey" d="M 867.06 319.03 L 894.40 319.07" />
  <path stroke-width="2.50" stroke="grey" d="M 867.06 319.03 L 904.69 318.08" />
  <path stroke-width="2.50" stroke="grey" d="M 867.06 319.03 L 918.03 318.56" />
  <path stroke-width="2.50" stroke="grey" d="M 867.06 319.03 L 923.31 319.78" />
  <path stroke-width="2.50" stroke="grey" d="M 867.06 319.03 L 912.19 320.29" />
  <path stroke-width="2.50" stroke="grey" d="M 867.06 319.03 L 898.52 319.06" />
  <path stroke-width="2.50" stroke="grey" d="M 867.06 319.03 L 888.45 318.17" />
  <path stroke-width="2.50" stroke="grey" d="M 867.06 319.03 L 867.72 291.44" />
  <path stroke-width="2.50" stroke="grey" d="M 867.06 319.03 L 881.93 299.92" />
  <path stroke-width="2.50" stroke="grey" d="M 867.06 319.03 L 909.92 316.20" />
  <path stroke-width="2.50" stroke="grey" d="M 867.06 319.03 L 935.46 329.31" />
  <path stroke-width="2.50" stroke="grey" d="M 867.06 319.03 L 868.00 331.16" />
  <path stroke-width="2.50" stroke="grey" d="M 867.06 319.03 L 842.51 282.50" />
  <path stroke-width="2.50" stroke="grey" d="M 867.06 319.03 L 808.29 318.20" />
  <path stroke-width="2.50" stroke="grey" d="M 867.06 319.03 L 782.57 344.38" />
  <path stroke-width="2.50" stroke="grey" d="M 867.06 319.03 L 769.46 362.20" />
  <path stroke-width="2.50" stroke="grey" d="M 867.06 319.03 L 837.16 326.76" />
  <path stroke-width="2.50" stroke="grey" d="M 867.06 319.03 L 820.42 333.61" />
  <path stroke-width="2.50" stroke="grey" d="M 867.06 319.03 L 795.39 349.91" />
  <path stroke-width="2.50" stroke="grey" d="M 867.06 319.03 L 779.52 357.14" />
  <path stroke-width="2.50" stroke="grey" d="M 867.06 319.03 L 791.95 351.16" />
  <path stroke-width="2.50" stroke="grey" d="M 867.06 319.03 L 839.15 328.99" />
  <path stroke-width="2.50" stroke="grey" d="M 760.19 370.19 L 763.62 371.13" />
  <path stroke-width="2.50" stroke="grey" d="M 760.19 370.19 L 766.50 369.67" />
  <path stroke-width="2.50" stroke="grey" d="M 760.19 370.19 L 782.50 368.12" />
  <path stroke-width="2.50" stroke="grey" d="M 760.19 370.19 L 767.22 370.05" />
  <path stroke-width="2.50" stroke="grey" d="M 760.19 370.19 L 749.19 408.91" />
  <path stroke-width="2.50" stroke="grey" d="M 760.19 370.19 L 783.40 386.27" />
  <path stroke-width="2.50" stroke="grey" d="M 760.19 370.19 L 799.25 367.00" />
  <path stroke-width="2.50" stroke="grey" d="M 760.19 370.19 L 760.19 358.20" />
  <path stroke-width="2.50" stroke="grey" d="M 760.19 370.19 L 721.49 437.01" />
  <path stroke-width="2.50" stroke="grey" d="M 760.19 370.19 L 695.24 456.89" />
  <path stroke-width="2.50" stroke="grey" d="M 760.19 370.19 L 711.86 419.99" />
  <path stroke-width="2.50" stroke="grey" d="M 760.19 370.19 L 729.28 407.60" />
  <path stroke-width="2.50" stroke="grey" d="M 760.19 370.19 L 702.68 435.58" />
  <path stroke-width="2.50" stroke="grey" d="M 760.19 370.19 L 703.23 426.54" />
  <path stroke-width="2.50" stroke="grey" d="M 760.19 370.19 L 738.12 391.16" />
  <path stroke-width="2.50" stroke="grey" d="M 662.54 465.99 L 639.22 462.68" />
  <path stroke-width="2.50" stroke="grey" d="M 662.54 465.99 L 681.67 456.00" />
  <path stroke-width="2.50" stroke="grey" d="M 662.54 465.99 L 661.24 455.96" />
  <path stroke-width="2.50" stroke="grey" d="M 662.54 465.99 L 663.62 477.07" />
  <path stroke-width="2.50" stroke="grey" d="M 662.54 465.99 L 696.47 456.77" />
  <path stroke-width="2.50" stroke="grey" d="M 662.54 465.99 L 692.98 434.95" />
  <path stroke-width="2.50" stroke="grey" d="M 662.54 465.99 L 620.00 470.77" />
  <path stroke-width="2.50" stroke="grey" d="M 580.04 500.83 L 555.17 502.05" />
  <path stroke-width="2.50" stroke="grey" d="M 580.04 500.83 L 569.68 499.96" />
  <path stroke-width="2.50" stroke="grey" d="M 580.04 500.83 L 600.93 499.01" />
  <path stroke-width="2.50" stroke="grey" d="M 580.04 500.83 L 582.18 472.45" />
  <path stroke-width="2.50" stroke="grey" d="M 580.04 500.83 L 581.07 506.40" />
  <path stroke-width="2.50" stroke="grey" d="M 580.04 500.83 L 595.28 501.47" />
  <path stroke-width="2.50" stroke="grey" d="M 580.04 500.83 L 635.99 488.17" />
  <path stroke-width="2.50" stroke="grey" d="M 580.04 500.83 L 628.27 461.66" />
  <path stroke-width="2.50" stroke="grey" d="M 580.04 500.83 L 607.56 466.10" />
  <path stroke-width="2.50" stroke="grey" d="M 580.04 500.83 L 589.16 471.52" />
  <path stroke-width="2.50" stroke="grey" d="M 483.61 524.40 L 483.61 526.76" />
  <path stroke-width="2.50" stroke="grey" d="M 483.61 524.40 L 483.61 523.90" />
  <path stroke-width="2.50" stroke="grey" d="M 483.61 524.40 L 492.18 524.88" />
  <path stroke-width="2.50" stroke="grey" d="M 483.61 524.40 L 501.79 522.63" />
  <path stroke-width="2.50" stroke="grey" d="M 483.61 524.40 L 501.17 508.17" />
  <path stroke-width="2.50" stroke="grey" d="M 483.61 524.40 L 527.88 489.16" />
  <path stroke-width="2.50" stroke="grey" d="M 483.61 524.40 L 543.69 512.00" />
  <path stroke-width="2.50" stroke="grey" d="M 483.61 524.40 L 536.33 523.33" />
  <path stroke-width="2.50" stroke="grey" d="M 483.61 524.40 L 508.25 533.00" />
  <path stroke-width="2.50" stroke="grey" d="M 483.61 524.40 L 483.61 548.41" />
  <path stroke-width="2.50" stroke="grey" d="M 483.61 524.40 L 398.98 588.03" />
  <path stroke-width="2.50" stroke="grey" d="M 483.61 524.40 L 483.61 520.50" />
  <path stroke-width="2.50" stroke="grey" d="M 483.61 524.40 L 483.61 536.30" />
  <path stroke-width="2.50" stroke="grey" d="M 483.61 524.40 L 483.61 540.50" />
  <path stroke-width="2.50" stroke="grey" d="M 371.74 580.20 L 361.79 577.38" />
  <path stroke-width="2.50" stroke="grey" d="M 371.74 580.20 L 371.68 580.03" />
  <path stroke-width="2.50" stroke="grey" d="M 371.74 580.20 L 394.10 579.42" />
  <path stroke-width="2.50" stroke="grey" d="M 371.74 580.20 L 409.09 579.54" />
  <path stroke-width="2.50" stroke="grey" d="M 371.74 580.20 L 371.74 580.19" />
  <path stroke-width="2.50" stroke="grey" d="M 371.74 580.20 L 378.79 588.51" />
  <path stroke-width="2.50" stroke="grey" d="M 371.74 580.20 L 371.74 545.61" />
  <path stroke-width="2.50" stroke="grey" d="M 371.74 580.20 L 384.52 551.81" />
  <path stroke-width="2.50" stroke="grey" d="M 371.74 580.20 L 393.42 558.60" />
  <path stroke-width="2.50" stroke="grey" d="M 371.74 580.20 L 461.49 516.29" />
  <path stroke-width="2.50" stroke="grey" d="M 371.74 580.20 L 424.12 525.45" />
  <path stroke-width="2.50" stroke="grey" d="M 371.74 580.20 L 377.95 635.07" />
  <path stroke-width="2.50" stroke="grey" d="M 371.74 580.20 L 371.74 565.64" />
  <path stroke-width="2.50" stroke="grey" d="M 371.74 580.20 L 371.74 578.64" />
  <path stroke-width="2.50" stroke="grey" d="M 371.74 580.20 L 371.74 593.83" />
  <path stroke-width="2.50" stroke="grey" d="M 288.17 640.52 L 289.27 638.32" />
  <path stroke-width="2.50" stroke="grey" d="M 288.17 640.52 L 351.06 624.18" />
  <path stroke-width="2.50" stroke="grey" d="M 288.17 640.52 L 311.49 631.84" />
  <path stroke-width="2.50" stroke="grey" d="M 288.17 640.52 L 390.00 585.03" />
  <path stroke-width="2.50" stroke="grey" d="M 288.17 640.52 L 300.47 603.27" />
  <path stroke-width="2.50" stroke="grey" d="M 288.17 640.52 L 295.00 654.81" />
  <path stroke-width="2.50" stroke="grey" d="M 288.17 640.52 L 325.88 591.43" />
  <path stroke-width="2.50" stroke="grey" d="M 288.17 640.52 L 288.15 649.47" />
  <path stroke-width="2.50" stroke="grey" d="M 288.17 640.52 L 288.45 645.16" />
  <path stroke-width="2.50" stroke="grey" d="M 288.17 640.52 L 286.75 634.75" />
  <path stroke-width="2.50" stroke="grey" d="M 288.17 640.52 L 286.48 622.11" />
  <path stroke-width="2.50" stroke="grey" d="M 288.17 640.52 L 289.14 610.44" />
  <path stroke-width="2.50" stroke="grey" d="M 288.17 640.52 L 289.34 620.89" />
  <path stroke-width="2.50" stroke="grey" d="M 288.17 640.52 L 289.26 629.25" />
</g>
<g id="scrap_0">
<g id="points">
</g>
<g id="lines">
  <path stroke="#ff0000" stroke-width="2.50" fill="none" class="wall" d="M 868.22 331.35 L 871.57 330.85 L 875.34 330.73 L 879.28 331.06 L 884.02 331.28 L 888.00 331.23 L 891.66 331.32 L 895.41 331.37 L 900.06 331.37 L 903.55 331.56 L 908.24 331.30 L 911.87 331.20 L 915.69 331.20 L 919.89 331.25 L 923.90 331.09 L 927.79 331.09 L 931.35 331.09 L 934.18 330.76" />
  <path stroke="#ff0000" stroke-width="2.50" fill="none" class="wall" d="M 845.88 283.75 L 849.89 284.32 L 853.24 285.07 L 856.85 285.64 L 860.32 287.22 L 863.62 288.82 L 866.28 291.49 L 869.56 293.61 L 872.82 295.45 L 875.74 297.36 L 879.18 299.29 L 882.27 300.76 L 885.98 302.22 L 889.23 303.59 L 892.89 304.93 L 896.16 306.37 L 899.40 308.73 L 902.56 310.36 L 905.60 311.86 L 908.83 313.04 L 912.15 314.81 L 915.62 316.11 L 919.44 316.96 L 922.67 317.95 L 926.00 319.22 L 929.70 320.69 L 932.93 321.63 L 935.86 323.35 L 938.47 325.64 L 938.21 328.85 L 935.10 330.73 L 931.56 331.35" />
  <path stroke="#ff0000" stroke-width="2.50" fill="none" class="wall" d="M 869.13 331.47 L 865.00 331.70 L 861.07 332.44 L 857.06 333.81 L 852.65 335.29 L 848.49 336.71 L 844.14 338.59 L 839.87 340.50 L 835.40 342.43 L 831.50 344.20 L 827.86 346.33 L 823.76 348.52 L 820.20 350.86 L 817.10 353.53 L 813.91 356.04 L 810.47 358.89 L 806.97 361.45 L 803.21 364.01 L 799.57 367.00 L 795.98 369.99 L 792.59 373.09 L 789.43 376.13 L 786.22 379.27 L 783.06 382.40 L 779.64 385.87" />
  <path stroke="#ff0000" stroke-width="2.50" fill="none" class="wall" d="M 784.39 380.86 L 781.24 383.92 L 777.47 387.47 L 773.23 389.67 L 768.60 392.26 L 764.40 394.64 L 761.18 397.76 L 757.91 400.92 L 754.29 403.48 L 750.49 406.51 L 747.00 409.47 L 743.82 412.97 L 741.01 416.09" />
  <path stroke="#ff0000" stroke-width="2.50" fill="none" class="wall" d="M 742.06 414.42 L 739.15 418.10 L 735.26 421.12 L 731.68 424.40 L 728.43 427.86 L 725.25 431.47 L 721.85 434.66 L 718.27 437.68 L 714.37 440.43 L 711.16 443.56 L 707.55 446.92 L 704.02 449.74 L 699.85 453.41 L 696.55 456.56 L 692.65 459.38 L 688.45 462.34 L 684.19 464.66 L 679.99 466.64 L 676.56 469.73 L 673.41 472.97 L 670.19 475.72 L 665.71 477.58 L 662.59 477.95" />
  <path stroke="#ff0000" stroke-width="2.50" fill="none" class="wall" d="M 845.20 283.46 L 838.74 284.81 L 832.61 287.62 L 827.83 291.65 L 822.96 296.14 L 818.68 300.96 L 815.24 305.87 L 812.09 311.12 L 808.48 316.70 L 804.71 321.86 L 799.88 326.68 L 796.27 331.34 L 791.83 336.34 L 787.25 340.87 L 782.30 344.85 L 777.14 347.83 L 770.97 350.98 L 766.06 354.04 L 760.65 356.81 L 757.63 358.83" />
  <path stroke="#ff0000" stroke-width="2.50" fill="none" class="wall" d="M 759.10 357.11 L 754.99 361.09 L 750.25 365.67 L 746.05 370.37 L 742.02 374.90 L 738.37 380.10 L 734.26 384.55 L 730.57 389.12 L 726.83 394.20 L 723.43 399.49 L 719.11 404.35 L 715.50 409.26 L 711.73 414.09 L 706.40 418.79 L 700.78 423.15 L 695.87 427.06 L 690.54 431.71 L 685.97 435.74 L 681.10 440.11 L 676.02 444.97 L 671.53 449.46 L 666.62 453.28 L 662.26 455.80" />
  <path stroke="#ff0000" stroke-width="2.50" fill="none" class="wall" d="M 664.59 477.85 L 657.82 480.30 L 651.04 483.25 L 644.12 485.51 L 637.54 488.16 L 630.42 491.30 L 623.40 494.40 L 615.25 497.34 L 608.08 500.39 L 600.42 502.70 L 592.91 504.76 L 585.83 506.13 L 579.06 508.00" />
  <path stroke="#ff0000" stroke-width="2.50" fill="none" class="wall" d="M 661.64 453.99 L 654.77 457.32 L 647.65 459.19 L 640.58 460.47 L 633.81 461.65 L 626.98 463.12 L 619.66 464.30 L 612.59 464.84 L 604.98 465.82 L 597.52 466.51 L 589.66 468.81 L 582.79 471.17 L 575.92 473.23" />
  <path stroke="#ff0000" stroke-width="2.50" fill="none" class="wall" d="M 581.96 506.23 L 575.52 509.18 L 568.75 510.85 L 560.94 514.09 L 553.43 517.43 L 546.46 521.11 L 538.60 523.96 L 531.43 527.10 L 524.46 530.44 L 516.90 534.12 L 508.70 537.17 L 501.68 539.62 L 494.12 542.47 L 487.68 544.53 L 481.06 547.28 L 475.41 549.64" />
  <path stroke="#ff0000" stroke-width="2.50" fill="none" class="wall" d="M 478.57 546.97 L 474.11 549.48 L 469.35 551.70 L 464.40 553.99 L 459.35 556.64 L 454.40 559.34 L 449.16 561.85 L 444.33 563.77 L 439.01 566.13 L 433.81 568.49 L 429.05 570.78 L 423.96 573.43 L 418.94 576.17 L 413.96 579.41 L 408.79 582.07 L 403.62 584.06 L 400.93 585.10" />
  <path stroke="#ff0000" stroke-width="2.50" fill="none" class="wall" d="M 406.88 583.38 L 400.12 584.91 L 393.91 586.17 L 387.74 587.25 L 381.48 587.97 L 376.40 590.86 L 375.59 596.98 L 375.09 603.46 L 374.78 609.86 L 374.60 616.57 L 375.63 623.73 L 377.25 630.80 L 375.59 636.79" />
  <path stroke="#ff0000" stroke-width="2.50" fill="none" class="wall" d="M 286.98 655.47 L 293.78 654.08 L 300.75 653.76 L 307.37 653.27 L 314.26 652.18 L 320.79 650.79 L 327.86 649.30 L 334.39 648.00 L 341.32 647.37 L 348.57 646.74 L 355.55 646.11 L 362.03 644.44 L 368.43 641.65 L 374.33 638.72 L 375.77 636.06" />
  <path stroke="#ff0000" stroke-width="2.50" fill="none" class="wall" d="M 576.67 474.14 L 570.09 476.21 L 563.66 478.11 L 556.41 480.09 L 549.34 481.53 L 542.45 483.33 L 535.92 485.31 L 528.63 486.75 L 521.38 488.82 L 514.31 491.61 L 507.73 493.51 L 500.62 495.94 L 492.70 499.31 L 485.31 502.47 L 479.50 505.57 L 473.16 509.67 L 466.85 514.04 L 460.23 517.01 L 453.61 518.81 L 446.01 521.20 L 439.84 522.73 L 433.13 524.35 L 425.52 526.33 L 418.49 528.04 L 411.56 530.56 L 405.21 532.72 L 399.18 535.25" />
  <path stroke="#ff0000" stroke-width="2.50" fill="none" class="wall" d="M 400.94 534.62 L 395.35 537.50 L 390.40 542.09 L 385.94 546.68 L 380.04 548.21 L 373.92 546.19 L 367.48 547.22 L 361.81 549.84 L 356.86 553.93 L 352.49 558.66" />
  <path stroke="#ff0000" stroke-width="2.50" fill="none" class="wall" d="M 354.60 555.10 L 349.79 559.34 L 345.51 564.42 L 341.10 570.10 L 337.45 575.64 L 333.08 581.00 L 327.59 585.36 L 322.23 589.24 L 315.88 592.84 L 311.02 596.80 L 306.56 601.39 L 301.43 605.99 L 295.58 610.67 L 289.81 612.51 L 283.46 613.33" />
</g>
<g id="areas">
</g>
</g>
<g id="xsections">
</g>
<g id="stations">
<text font-size="32" fill="violet" stroke="none" text-anchor="middle" x="760.19" y="370.19" >w1</text>
<text font-size="32" fill="violet" stroke="none" text-anchor="middle" x="867.06" y="319.03" >w0</text>
<text font-size="32" fill="violet" stroke="none" text-anchor="middle" x="662.54" y="465.99" >w2</text>
<text font-size="32" fill="violet" stroke="none" text-anchor="middle" x="580.04" y="500.83" >w3</text>
<text font-size="32" fill="violet" stroke="none" text-anchor="middle" x="483.61" y="524.40" >w4</text>
<text font-size="32" fill="violet" stroke="none" text-anchor="middle" x="371.74" y="580.20" >w5</text>
<text font-size="32" fill="violet" stroke="none" text-anchor="middle" x="288.17" y="640.52" >w6</text>
</g>
</svg>
