<svg xmlns:i="http://ns.adobe.com/AdobeIllustrator/10.0/" xmlns:dc="http://purl.org/dc/elements/1.1/" xmlns:cc="http://creativecommons.org/ns#" xmlns:rdf="http://www.w3.org/1999/02/22-rdf-syntax-ns#" xmlns:svg="http://www.w3.org/2000/svg" xmlns="http://www.w3.org/2000/svg" xmlns:xlink="http://www.w3.org/1999/xlink" xmlns:sodipodi="http://sodipodi.sourceforge.net/DTD/sodipodi-0.dtd" xmlns:inkscape="http://www.inkscape.org/namespaces/inkscape" 
 width="471pt" height="757pt"
  version="1.1"
  id="svg46"
  sodipodi:docname="galerie_noua_catarata_piciorul_beni-3p.svg"
  inkscape:version="0.92.4 (5da689c313, 2019-01-14)">
<!-- SVG created by TopoDroid v. 6.0.92 -->
  <sodipodi:namedview pagecolor="#ffffff" bordercolor="#666666" borderopacity="1" objecttolerance="10" gridtolerance="10" guidetolerance="10" inkscape:pageopacity="0" inkscape:pageshadow="2" inkscape:window-width="auto" inkscape:window-height="auto" id="namedview48" showgrid="false" inkscape:zoom="1" inkscape:cx="auto" inkscape:cy="auto" inkscape:window-x="0" inkscape:window-y="0" inkscape:window-maximized="1" inkscape:current-layer="w2d_Walls_shp" showborder="false"/>
  <defs>
    <marker id="Triangle" viewBox="0 0 10 10" refX="0" refY="5" 
      markerUnits="strokeWidth" markerWidth="4" markerHeight="3" orient="auto" >
      <path d="M 0 0 L 10 5 L 0 10 z" />
    </marker>
  </defs>
<g id="grid"
  style="fill:none;stroke-opacity:0.4" >
<g id="grid1"
 style="fill:none;stroke-opacity:0.4;stroke-width=2.50;stroke:#666666" >
  <path stroke-width="2.50" stroke="#999999" d="M 21.76 0.00 L 21.76 1073.76" />
  <path stroke-width="2.50" stroke="#999999" d="M 50.10 0.00 L 50.10 1073.76" />
  <path stroke-width="2.50" stroke="#999999" d="M 78.45 0.00 L 78.45 1073.76" />
  <path stroke-width="2.50" stroke="#999999" d="M 106.80 0.00 L 106.80 1073.76" />
  <path stroke-width="2.50" stroke="#999999" d="M 163.49 0.00 L 163.49 1073.76" />
  <path stroke-width="2.50" stroke="#999999" d="M 191.84 0.00 L 191.84 1073.76" />
  <path stroke-width="2.50" stroke="#999999" d="M 220.18 0.00 L 220.18 1073.76" />
  <path stroke-width="2.50" stroke="#999999" d="M 248.53 0.00 L 248.53 1073.76" />
  <path stroke-width="2.50" stroke="#999999" d="M 276.88 0.00 L 276.88 1073.76" />
  <path stroke-width="2.50" stroke="#999999" d="M 305.22 0.00 L 305.22 1073.76" />
  <path stroke-width="2.50" stroke="#999999" d="M 333.57 0.00 L 333.57 1073.76" />
  <path stroke-width="2.50" stroke="#999999" d="M 361.92 0.00 L 361.92 1073.76" />
  <path stroke-width="2.50" stroke="#999999" d="M 390.26 0.00 L 390.26 1073.76" />
  <path stroke-width="2.50" stroke="#999999" d="M 446.96 0.00 L 446.96 1073.76" />
  <path stroke-width="2.50" stroke="#999999" d="M 475.30 0.00 L 475.30 1073.76" />
  <path stroke-width="2.50" stroke="#999999" d="M 503.65 0.00 L 503.65 1073.76" />
  <path stroke-width="2.50" stroke="#999999" d="M 531.99 0.00 L 531.99 1073.76" />
  <path stroke-width="2.50" stroke="#999999" d="M 560.34 0.00 L 560.34 1073.76" />
  <path stroke-width="2.50" stroke="#999999" d="M 588.69 0.00 L 588.69 1073.76" />
  <path stroke-width="2.50" stroke="#999999" d="M 617.03 0.00 L 617.03 1073.76" />
  <path stroke-width="2.50" stroke="#999999" d="M 645.38 0.00 L 645.38 1073.76" />
  <path stroke-width="2.50" stroke="#999999" d="M 0.00 19.53 L 668.82 19.53" />
  <path stroke-width="2.50" stroke="#999999" d="M 0.00 47.87 L 668.82 47.87" />
  <path stroke-width="2.50" stroke="#999999" d="M 0.00 76.22 L 668.82 76.22" />
  <path stroke-width="2.50" stroke="#999999" d="M 0.00 132.91 L 668.82 132.91" />
  <path stroke-width="2.50" stroke="#999999" d="M 0.00 161.26 L 668.82 161.26" />
  <path stroke-width="2.50" stroke="#999999" d="M 0.00 189.61 L 668.82 189.61" />
  <path stroke-width="2.50" stroke="#999999" d="M 0.00 217.95 L 668.82 217.95" />
  <path stroke-width="2.50" stroke="#999999" d="M 0.00 246.30 L 668.82 246.30" />
  <path stroke-width="2.50" stroke="#999999" d="M 0.00 274.64 L 668.82 274.64" />
  <path stroke-width="2.50" stroke="#999999" d="M 0.00 302.99 L 668.82 302.99" />
  <path stroke-width="2.50" stroke="#999999" d="M 0.00 331.34 L 668.82 331.34" />
  <path stroke-width="2.50" stroke="#999999" d="M 0.00 359.68 L 668.82 359.68" />
  <path stroke-width="2.50" stroke="#999999" d="M 0.00 416.38 L 668.82 416.38" />
  <path stroke-width="2.50" stroke="#999999" d="M 0.00 444.72 L 668.82 444.72" />
  <path stroke-width="2.50" stroke="#999999" d="M 0.00 473.07 L 668.82 473.07" />
  <path stroke-width="2.50" stroke="#999999" d="M 0.00 501.42 L 668.82 501.42" />
  <path stroke-width="2.50" stroke="#999999" d="M 0.00 529.76 L 668.82 529.76" />
  <path stroke-width="2.50" stroke="#999999" d="M 0.00 558.11 L 668.82 558.11" />
  <path stroke-width="2.50" stroke="#999999" d="M 0.00 586.46 L 668.82 586.46" />
  <path stroke-width="2.50" stroke="#999999" d="M 0.00 614.80 L 668.82 614.80" />
  <path stroke-width="2.50" stroke="#999999" d="M 0.00 643.15 L 668.82 643.15" />
  <path stroke-width="2.50" stroke="#999999" d="M 0.00 699.84 L 668.82 699.84" />
  <path stroke-width="2.50" stroke="#999999" d="M 0.00 728.19 L 668.82 728.19" />
  <path stroke-width="2.50" stroke="#999999" d="M 0.00 756.53 L 668.82 756.53" />
  <path stroke-width="2.50" stroke="#999999" d="M 0.00 784.88 L 668.82 784.88" />
  <path stroke-width="2.50" stroke="#999999" d="M 0.00 813.23 L 668.82 813.23" />
  <path stroke-width="2.50" stroke="#999999" d="M 0.00 841.57 L 668.82 841.57" />
  <path stroke-width="2.50" stroke="#999999" d="M 0.00 869.92 L 668.82 869.92" />
  <path stroke-width="2.50" stroke="#999999" d="M 0.00 898.27 L 668.82 898.27" />
  <path stroke-width="2.50" stroke="#999999" d="M 0.00 926.61 L 668.82 926.61" />
  <path stroke-width="2.50" stroke="#999999" d="M 0.00 983.31 L 668.82 983.31" />
  <path stroke-width="2.50" stroke="#999999" d="M 0.00 1011.65 L 668.82 1011.65" />
  <path stroke-width="2.50" stroke="#999999" d="M 0.00 1040.00 L 668.82 1040.00" />
  <path stroke-width="2.50" stroke="#999999" d="M 0.00 1068.35 L 668.82 1068.35" />
</g>
<g id="grid10"
 style="fill:none;stroke-opacity:0.6;stroke-width=2.50;stroke:#666666" >
  <path stroke-width="2.50" stroke="#666666" d="M 135.14 0.00 L 135.14 1073.76" />
  <path stroke-width="2.50" stroke="#666666" d="M 0.00 104.57 L 668.82 104.57" />
  <path stroke-width="2.50" stroke="#666666" d="M 0.00 671.50 L 668.82 671.50" />
  <path stroke-width="2.50" stroke="#666666" d="M 0.00 954.96 L 668.82 954.96" />
</g>
<g id="grid100"
 style="fill:none;stroke-opacity:0.8;stroke-width=2.50;stroke:#666666" >
  <path stroke-width="2.50" stroke="#333333" d="M 418.61 0.00 L 418.61 1073.76" />
  <path stroke-width="2.50" stroke="#333333" d="M 0.00 388.03 L 668.82 388.03" />
</g>
</g>
<g id="legs" style="fill:none;stroke-opacity:0.6;stroke:red" >
  <path stroke-width="2.50" stroke="black" d="M 343.68 311.82 L 418.61 388.03" />
  <path stroke-width="2.50" stroke="black" d="M 418.61 388.03 L 432.35 484.71" />
  <path stroke-width="2.50" stroke="black" d="M 432.35 484.71 L 374.39 543.42" />
  <path stroke-width="2.50" stroke="black" d="M 374.39 543.42 L 357.62 638.37" />
  <path stroke-width="2.50" stroke="black" d="M 357.62 638.37 L 271.82 710.17" />
  <path stroke-width="2.50" stroke="black" d="M 271.82 710.17 L 239.59 787.28" />
</g>
<g id="splays"
  style="fill:none;stroke-opacity:0.4;stroke:grey" >
  <path stroke-width="2.50" stroke="grey" d="M 343.68 311.82 L 355.90 300.09" />
  <path stroke-width="2.50" stroke="grey" d="M 343.68 311.82 L 327.82 289.09" />
  <path stroke-width="2.50" stroke="grey" d="M 343.68 311.82 L 315.47 286.79" />
  <path stroke-width="2.50" stroke="grey" d="M 343.68 311.82 L 299.68 283.62" />
  <path stroke-width="2.50" stroke="grey" d="M 343.68 311.82 L 291.59 284.15" />
  <path stroke-width="2.50" stroke="grey" d="M 343.68 311.82 L 297.78 293.67" />
  <path stroke-width="2.50" stroke="grey" d="M 343.68 311.82 L 309.36 301.45" />
  <path stroke-width="2.50" stroke="grey" d="M 343.68 311.82 L 316.90 308.15" />
  <path stroke-width="2.50" stroke="grey" d="M 343.68 311.82 L 348.66 306.00" />
  <path stroke-width="2.50" stroke="grey" d="M 343.68 311.82 L 334.70 299.81" />
  <path stroke-width="2.50" stroke="grey" d="M 343.68 311.82 L 303.57 291.15" />
  <path stroke-width="2.50" stroke="grey" d="M 343.68 311.82 L 277.29 281.17" />
  <path stroke-width="2.50" stroke="grey" d="M 343.68 311.82 L 362.92 327.34" />
  <path stroke-width="2.50" stroke="grey" d="M 343.68 311.82 L 384.14 354.47" />
  <path stroke-width="2.50" stroke="grey" d="M 343.68 311.82 L 403.21 371.78" />
  <path stroke-width="2.50" stroke="grey" d="M 343.68 311.82 L 411.82 381.71" />
  <path stroke-width="2.50" stroke="grey" d="M 343.68 311.82 L 372.57 325.36" />
  <path stroke-width="2.50" stroke="grey" d="M 343.68 311.82 L 385.50 336.12" />
  <path stroke-width="2.50" stroke="grey" d="M 343.68 311.82 L 402.94 354.07" />
  <path stroke-width="2.50" stroke="grey" d="M 343.68 311.82 L 399.88 379.34" />
  <path stroke-width="2.50" stroke="grey" d="M 343.68 311.82 L 388.99 372.61" />
  <path stroke-width="2.50" stroke="grey" d="M 343.68 311.82 L 358.86 336.04" />
  <path stroke-width="2.50" stroke="grey" d="M 418.61 388.03 L 429.58 383.01" />
  <path stroke-width="2.50" stroke="grey" d="M 418.61 388.03 L 407.87 389.75" />
  <path stroke-width="2.50" stroke="grey" d="M 418.61 388.03 L 392.65 382.27" />
  <path stroke-width="2.50" stroke="grey" d="M 418.61 388.03 L 421.11 375.72" />
  <path stroke-width="2.50" stroke="grey" d="M 418.61 388.03 L 411.77 400.12" />
  <path stroke-width="2.50" stroke="grey" d="M 418.61 388.03 L 396.50 377.23" />
  <path stroke-width="2.50" stroke="grey" d="M 418.61 388.03 L 390.52 360.87" />
  <path stroke-width="2.50" stroke="grey" d="M 418.61 388.03 L 384.70 353.53" />
  <path stroke-width="2.50" stroke="grey" d="M 418.61 388.03 L 415.75 427.52" />
  <path stroke-width="2.50" stroke="grey" d="M 418.61 388.03 L 424.00 452.87" />
  <path stroke-width="2.50" stroke="grey" d="M 418.61 388.03 L 423.58 436.14" />
  <path stroke-width="2.50" stroke="grey" d="M 418.61 388.03 L 397.83 422.20" />
  <path stroke-width="2.50" stroke="grey" d="M 418.61 388.03 L 401.07 448.62" />
  <path stroke-width="2.50" stroke="grey" d="M 418.61 388.03 L 446.27 441.63" />
  <path stroke-width="2.50" stroke="grey" d="M 418.61 388.03 L 438.88 407.45" />
  <path stroke-width="2.50" stroke="grey" d="M 432.35 484.71 L 395.51 481.11" />
  <path stroke-width="2.50" stroke="grey" d="M 432.35 484.71 L 398.75 470.16" />
  <path stroke-width="2.50" stroke="grey" d="M 432.35 484.71 L 430.36 483.90" />
  <path stroke-width="2.50" stroke="grey" d="M 432.35 484.71 L 412.35 453.28" />
  <path stroke-width="2.50" stroke="grey" d="M 432.35 484.71 L 413.97 456.57" />
  <path stroke-width="2.50" stroke="grey" d="M 432.35 484.71 L 389.00 501.70" />
  <path stroke-width="2.50" stroke="grey" d="M 374.39 543.42 L 385.30 570.60" />
  <path stroke-width="2.50" stroke="grey" d="M 374.39 543.42 L 391.14 556.90" />
  <path stroke-width="2.50" stroke="grey" d="M 374.39 543.42 L 402.03 541.35" />
  <path stroke-width="2.50" stroke="grey" d="M 374.39 543.42 L 375.33 542.90" />
  <path stroke-width="2.50" stroke="grey" d="M 374.39 543.42 L 380.84 528.38" />
  <path stroke-width="2.50" stroke="grey" d="M 374.39 543.42 L 401.46 491.52" />
  <path stroke-width="2.50" stroke="grey" d="M 374.39 543.42 L 394.03 495.04" />
  <path stroke-width="2.50" stroke="grey" d="M 374.39 543.42 L 386.85 517.05" />
  <path stroke-width="2.50" stroke="grey" d="M 374.39 543.42 L 382.39 538.49" />
  <path stroke-width="2.50" stroke="grey" d="M 357.62 638.37 L 316.19 650.62" />
  <path stroke-width="2.50" stroke="grey" d="M 357.62 638.37 L 329.50 634.60" />
  <path stroke-width="2.50" stroke="grey" d="M 357.62 638.37 L 338.58 626.31" />
  <path stroke-width="2.50" stroke="grey" d="M 357.62 638.37 L 343.71 617.47" />
  <path stroke-width="2.50" stroke="grey" d="M 357.62 638.37 L 358.54 620.71" />
  <path stroke-width="2.50" stroke="grey" d="M 357.62 638.37 L 365.30 594.78" />
  <path stroke-width="2.50" stroke="grey" d="M 357.62 638.37 L 375.45 580.52" />
  <path stroke-width="2.50" stroke="grey" d="M 357.62 638.37 L 368.56 586.78" />
  <path stroke-width="2.50" stroke="grey" d="M 357.62 638.37 L 362.59 614.23" />
  <path stroke-width="2.50" stroke="grey" d="M 357.62 638.37 L 331.14 653.12" />
  <path stroke-width="2.50" stroke="grey" d="M 357.62 638.37 L 300.17 701.62" />
  <path stroke-width="2.50" stroke="grey" d="M 357.62 638.37 L 310.28 663.34" />
  <path stroke-width="2.50" stroke="grey" d="M 357.62 638.37 L 291.92 685.94" />
  <path stroke-width="2.50" stroke="grey" d="M 271.82 710.17 L 286.93 727.27" />
  <path stroke-width="2.50" stroke="grey" d="M 271.82 710.17 L 263.64 700.50" />
  <path stroke-width="2.50" stroke="grey" d="M 271.82 710.17 L 302.83 712.38" />
  <path stroke-width="2.50" stroke="grey" d="M 271.82 710.17 L 312.15 700.16" />
  <path stroke-width="2.50" stroke="grey" d="M 271.82 710.17 L 256.13 715.09" />
  <path stroke-width="2.50" stroke="grey" d="M 271.82 710.17 L 278.78 707.50" />
  <path stroke-width="2.50" stroke="grey" d="M 271.82 710.17 L 279.43 699.35" />
  <path stroke-width="2.50" stroke="grey" d="M 271.82 710.17 L 284.42 691.45" />
  <path stroke-width="2.50" stroke="grey" d="M 271.82 710.17 L 326.49 635.65" />
  <path stroke-width="2.50" stroke="grey" d="M 271.82 710.17 L 300.62 662.97" />
  <path stroke-width="2.50" stroke="grey" d="M 271.82 710.17 L 256.28 732.80" />
  <path stroke-width="2.50" stroke="grey" d="M 271.82 710.17 L 250.16 744.53" />
  <path stroke-width="2.50" stroke="grey" d="M 271.82 710.17 L 243.41 753.18" />
  <path stroke-width="2.50" stroke="grey" d="M 239.59 787.28 L 222.14 778.79" />
  <path stroke-width="2.50" stroke="grey" d="M 239.59 787.28 L 244.81 721.30" />
  <path stroke-width="2.50" stroke="grey" d="M 239.59 787.28 L 254.12 768.08" />
  <path stroke-width="2.50" stroke="grey" d="M 239.59 787.28 L 278.70 693.26" />
  <path stroke-width="2.50" stroke="grey" d="M 239.59 787.28 L 226.48 768.47" />
  <path stroke-width="2.50" stroke="grey" d="M 239.59 787.28 L 238.70 779.50" />
  <path stroke-width="2.50" stroke="grey" d="M 239.59 787.28 L 238.91 746.12" />
  <path stroke-width="2.50" stroke="grey" d="M 239.59 787.28 L 232.34 784.27" />
  <path stroke-width="2.50" stroke="grey" d="M 239.59 787.28 L 225.72 781.18" />
  <path stroke-width="2.50" stroke="grey" d="M 239.59 787.28 L 220.40 780.80" />
  <path stroke-width="2.50" stroke="grey" d="M 239.59 787.28 L 215.48 779.03" />
  <path stroke-width="2.50" stroke="grey" d="M 239.59 787.28 L 219.06 777.64" />
  <path stroke-width="2.50" stroke="grey" d="M 239.59 787.28 L 231.92 782.80" />
</g>
<g id="scrap_0">
<g id="points">
</g>
<g id="lines">
  <path stroke="#ff0000" stroke-width="2.50" fill="none" class="wall" d="M 291.66 284.54 L 292.98 288.47 L 295.35 291.51 L 297.93 294.85 L 300.49 297.94 L 303.50 300.74 L 306.65 303.83 L 310.25 306.04 L 313.75 308.09 L 317.76 309.48 L 320.69 311.13" />
  <path stroke="#ff0000" stroke-width="2.50" fill="none" class="wall" d="M 290.99 285.81 L 294.06 283.46 L 297.77 283.52 L 301.62 283.95 L 305.30 284.92 L 309.26 285.97 L 313.29 286.61 L 317.20 286.48 L 321.10 287.50 L 325.13 288.42 L 329.33 289.71 L 333.90 290.95 L 337.67 291.86 L 341.87 293.15 L 345.61 294.50 L 348.89 296.62 L 352.09 299.02 L 355.62 301.39 L 358.85 303.65" />
  <path stroke="#ff0000" stroke-width="2.50" fill="none" class="wall" d="M 316.73 309.40 L 321.43 312.10 L 325.94 314.96 L 330.56 317.74 L 335.59 320.78 L 340.78 324.20 L 345.37 327.55 L 350.63 330.74 L 354.99 334.01 L 358.97 338.07 L 362.20 342.36 L 365.24 346.98 L 369.34 352.47 L 372.91 356.52 L 377.12 361.33 L 380.80 365.69 L 384.82 370.05 L 387.87 374.60 L 391.06 379.49 L 393.24 384.86 L 395.42 390.95 L 396.89 396.89 L 397.49 402.75 L 398.16 408.50 L 398.76 414.74 L 399.29 420.56 L 400.04 426.35 L 400.34 432.78 L 399.59 438.26 L 399.97 444.09 L 400.49 449.43 L 400.64 454.76 L 400.61 460.85 L 398.65 466.11 L 397.30 472.05 L 395.12 477.24 L 393.24 482.57 L 391.70 487.53 L 389.56 492.49 L 387.08 497.91 L 385.69 502.72" />
  <path stroke="#ff0000" stroke-width="2.50" fill="none" class="wall" d="M 356.45 303.80 L 361.11 306.35 L 365.21 310.07 L 368.03 315.03 L 371.56 319.51 L 374.98 324.66 L 378.43 329.05 L 382.57 332.96 L 386.44 336.61 L 390.08 340.85 L 393.62 345.44 L 397.15 349.76 L 401.28 353.89 L 405.19 357.80 L 409.47 362.35 L 413.46 367.16 L 417.63 371.93 L 421.69 375.95 L 425.78 380.16 L 429.02 384.90 L 431.65 389.45 L 433.64 394.89 L 435.14 400.23 L 436.94 405.49 L 438.82 410.79 L 439.58 416.69 L 440.93 422.07 L 442.36 427.55 L 443.71 432.63 L 445.36 438.79" />
  <path stroke="#ff0000" stroke-width="2.50" fill="none" class="wall" d="M 446.30 446.50 L 446.01 453.26 L 444.68 460.56 L 442.97 467.32 L 440.67 474.18 L 436.60 481.23 L 433.86 487.35 L 430.82 493.77 L 427.20 500.38 L 423.82 506.51 L 420.09 512.83 L 416.37 519.98 L 412.60 526.89 L 409.76 533.26 L 405.84 538.79 L 401.97 545.85 L 398.24 552.27 L 393.15 558.34 L 388.89 564.37 L 385.56 571.22 L 383.45 578.18" />
  <path stroke="#ff0000" stroke-width="2.50" fill="none" class="wall" d="M 383.74 575.19 L 380.61 582.20 L 378.01 589.69 L 375.47 597.34 L 372.67 604.93 L 369.34 612.57 L 366.60 619.63 L 363.81 627.22 L 360.72 634.62 L 359.01 639.27" />
  <path stroke="#ff0000" stroke-width="2.50" fill="none" class="wall" d="M 387.60 496.24 L 385.27 501.02 L 383.52 505.96 L 381.48 511.75 L 379.81 517.57 L 378.33 524.06 L 377.25 529.33 L 375.84 535.34 L 373.91 540.43 L 371.47 545.36 L 369.42 550.37 L 367.31 555.12 L 364.94 560.87 L 362.78 566.03 L 360.85 571.26 L 359.07 577.16 L 357.40 582.46 L 356.33 588.14 L 354.47 593.96 L 352.17 599.12 L 349.35 604.28 L 346.83 609.44 L 344.38 614.56 L 341.04 619.60 L 337.48 623.65 L 333.55 629.06 L 329.73 633.70 L 326.32 637.78 L 322.57 641.75 L 319.34 646.02 L 315.56 650.06" />
  <path stroke="#ff0000" stroke-width="2.50" fill="none" class="wall" d="M 318.84 644.84 L 314.84 648.88 L 310.33 653.07 L 305.70 657.35 L 301.54 661.51 L 296.83 666.18 L 292.75 670.69 L 288.79 675.24 L 284.28 679.20 L 279.57 683.56 L 275.41 687.60 L 271.65 692.39 L 268.36 697.53 L 265.32 702.60 L 262.07 707.75 L 258.11 711.71 L 253.32 715.59 L 247.62 718.72 L 243.90 723.11 L 240.33 728.26 L 237.05 733.01 L 233.92 737.88 L 230.52 742.95 L 228.14 748.41 L 225.92 754.19 L 224.58 759.85 L 223.83 765.71 L 223.11 771.49 L 222.52 777.31" />
  <path stroke="#ff0000" stroke-width="2.50" fill="none" class="wall" d="M 358.83 637.63 L 356.05 642.98 L 352.61 647.73 L 348.73 652.40 L 345.13 656.87 L 341.53 661.39 L 337.72 666.18 L 334.00 671.28 L 330.08 676.15 L 326.01 681.22 L 323.24 686.09 L 320.23 690.76 L 316.98 695.95 L 313.14 701.57 L 309.18 706.40 L 304.39 710.92 L 299.76 715.83 L 295.09 719.51 L 290.46 723.55 L 286.54 727.86 L 282.18 732.57 L 277.98 737.80 L 274.14 742.87 L 270.58 747.66 L 267.22 752.13 L 263.77 756.45 L 260.37 761.40 L 257.60 766.15 L 254.63 770.82 L 251.50 775.25 L 248.81 780.56 L 246.35 785.90 L 245.24 790.30" />
</g>
<g id="areas">
</g>
</g>
<g id="xsections">
</g>
<g id="stations">
<text font-size="32" fill="violet" stroke="none" text-anchor="middle" x="418.61" y="388.03" >w1</text>
<text font-size="32" fill="violet" stroke="none" text-anchor="middle" x="343.68" y="311.82" >w0</text>
<text font-size="32" fill="violet" stroke="none" text-anchor="middle" x="432.35" y="484.71" >w2</text>
<text font-size="32" fill="violet" stroke="none" text-anchor="middle" x="374.39" y="543.42" >w3</text>
<text font-size="32" fill="violet" stroke="none" text-anchor="middle" x="357.62" y="638.37" >w4</text>
<text font-size="32" fill="violet" stroke="none" text-anchor="middle" x="271.82" y="710.17" >w5</text>
<text font-size="32" fill="violet" stroke="none" text-anchor="middle" x="239.59" y="787.28" >w6</text>
</g>
</svg>
