<svg xmlns:i="http://ns.adobe.com/AdobeIllustrator/10.0/" xmlns:dc="http://purl.org/dc/elements/1.1/" xmlns:cc="http://creativecommons.org/ns#" xmlns:rdf="http://www.w3.org/1999/02/22-rdf-syntax-ns#" xmlns:svg="http://www.w3.org/2000/svg" xmlns="http://www.w3.org/2000/svg" xmlns:xlink="http://www.w3.org/1999/xlink" xmlns:sodipodi="http://sodipodi.sourceforge.net/DTD/sodipodi-0.dtd" xmlns:inkscape="http://www.inkscape.org/namespaces/inkscape" 
 width="735pt" height="423pt"
  version="1.1"
  id="svg46"
  sodipodi:docname="Piciorul_Beni_Întrare_veche-1s.svg"
  inkscape:version="0.92.4 (5da689c313, 2019-01-14)">
<!-- SVG created by TopoDroid v. 6.0.92 -->
  <sodipodi:namedview pagecolor="#ffffff" bordercolor="#666666" borderopacity="1" objecttolerance="10" gridtolerance="10" guidetolerance="10" inkscape:pageopacity="0" inkscape:pageshadow="2" inkscape:window-width="auto" inkscape:window-height="auto" id="namedview48" showgrid="false" inkscape:zoom="1" inkscape:cx="auto" inkscape:cy="auto" inkscape:window-x="0" inkscape:window-y="0" inkscape:window-maximized="1" inkscape:current-layer="w2d_Walls_shp" showborder="false"/>
  <defs>
    <marker id="Triangle" viewBox="0 0 10 10" refX="0" refY="5" 
      markerUnits="strokeWidth" markerWidth="4" markerHeight="3" orient="auto" >
      <path d="M 0 0 L 10 5 L 0 10 z" />
    </marker>
  </defs>
<g id="legs" style="fill:none;stroke-opacity:0.6;stroke:red" >
  <path stroke-width="2.50" stroke="black" d="M 743.95 377.75 L 663.55 361.35" />
  <path stroke-width="2.50" stroke="black" d="M 663.55 361.35 L 464.22 356.58" />
  <path stroke-width="2.50" stroke="black" d="M 663.55 361.35 L 569.09 312.58" />
  <path stroke-width="2.50" stroke="black" d="M 569.09 312.58 L 500.99 299.53" />
  <path stroke-width="2.50" stroke="black" d="M 500.99 299.53 L 408.09 237.00" />
  <path stroke-width="2.50" stroke="black" d="M 408.09 237.00 L 366.31 219.86" />
  <path stroke-width="2.50" stroke="black" d="M 366.31 219.86 L 287.91 216.57" />
  <path stroke-width="2.50" stroke="black" d="M 287.91 216.57 L 251.54 230.55" />
  <path stroke-width="2.50" stroke="black" d="M 251.54 230.55 L 174.86 205.33" />
</g>
<g id="splays"
  style="fill:none;stroke-opacity:0.4;stroke:grey" >
  <path stroke-width="2.50" stroke="grey" d="M 743.95 377.75 L 717.59 370.58" />
  <path stroke-width="2.50" stroke="grey" d="M 743.95 377.75 L 702.43 370.90" />
  <path stroke-width="2.50" stroke="grey" d="M 743.95 377.75 L 691.16 369.75" />
  <path stroke-width="2.50" stroke="grey" d="M 663.55 361.35 L 670.69 401.31" />
  <path stroke-width="2.50" stroke="grey" d="M 663.55 361.35 L 655.84 328.74" />
  <path stroke-width="2.50" stroke="grey" d="M 663.55 361.35 L 647.47 352.32" />
  <path stroke-width="2.50" stroke="grey" d="M 663.55 361.35 L 628.76 346.37" />
  <path stroke-width="2.50" stroke="grey" d="M 663.55 361.35 L 602.66 340.65" />
  <path stroke-width="2.50" stroke="grey" d="M 663.55 361.35 L 602.44 348.26" />
  <path stroke-width="2.50" stroke="grey" d="M 663.55 361.35 L 679.63 359.61" />
  <path stroke-width="2.50" stroke="grey" d="M 663.55 361.35 L 627.44 358.21" />
  <path stroke-width="2.50" stroke="grey" d="M 663.55 361.35 L 611.41 344.34" />
  <path stroke-width="2.50" stroke="grey" d="M 569.09 312.58 L 567.80 291.23" />
  <path stroke-width="2.50" stroke="grey" d="M 569.09 312.58 L 714.03 396.40" />
  <path stroke-width="2.50" stroke="grey" d="M 569.09 312.58 L 624.06 350.48" />
  <path stroke-width="2.50" stroke="grey" d="M 569.09 312.58 L 595.56 339.89" />
  <path stroke-width="2.50" stroke="grey" d="M 569.09 312.58 L 579.22 336.17" />
  <path stroke-width="2.50" stroke="grey" d="M 569.09 312.58 L 563.52 333.80" />
  <path stroke-width="2.50" stroke="grey" d="M 569.09 312.58 L 551.98 331.10" />
  <path stroke-width="2.50" stroke="grey" d="M 569.09 312.58 L 541.21 324.39" />
  <path stroke-width="2.50" stroke="grey" d="M 569.09 312.58 L 569.09 318.37" />
  <path stroke-width="2.50" stroke="grey" d="M 569.09 312.58 L 569.09 301.87" />
  <path stroke-width="2.50" stroke="grey" d="M 569.09 312.58 L 569.09 301.11" />
  <path stroke-width="2.50" stroke="grey" d="M 569.09 312.58 L 597.17 306.05" />
  <path stroke-width="2.50" stroke="grey" d="M 569.09 312.58 L 604.01 313.48" />
  <path stroke-width="2.50" stroke="grey" d="M 569.09 312.58 L 619.72 333.33" />
  <path stroke-width="2.50" stroke="grey" d="M 569.09 312.58 L 561.48 319.65" />
  <path stroke-width="2.50" stroke="grey" d="M 569.09 312.58 L 586.74 322.60" />
  <path stroke-width="2.50" stroke="grey" d="M 569.09 312.58 L 601.08 329.61" />
  <path stroke-width="2.50" stroke="grey" d="M 569.09 312.58 L 613.41 334.72" />
  <path stroke-width="2.50" stroke="grey" d="M 569.09 312.58 L 608.87 332.88" />
  <path stroke-width="2.50" stroke="grey" d="M 569.09 312.58 L 569.09 309.96" />
  <path stroke-width="2.50" stroke="grey" d="M 569.09 312.58 L 569.09 309.40" />
  <path stroke-width="2.50" stroke="grey" d="M 569.09 312.58 L 569.09 300.50" />
  <path stroke-width="2.50" stroke="grey" d="M 569.09 312.58 L 569.09 294.73" />
  <path stroke-width="2.50" stroke="grey" d="M 569.09 312.58 L 497.42 295.12" />
  <path stroke-width="2.50" stroke="grey" d="M 569.09 312.58 L 520.01 304.20" />
  <path stroke-width="2.50" stroke="grey" d="M 500.99 299.53 L 534.26 284.99" />
  <path stroke-width="2.50" stroke="grey" d="M 500.99 299.53 L 536.18 280.41" />
  <path stroke-width="2.50" stroke="grey" d="M 500.99 299.53 L 470.18 275.61" />
  <path stroke-width="2.50" stroke="grey" d="M 500.99 299.53 L 442.60 257.40" />
  <path stroke-width="2.50" stroke="grey" d="M 500.99 299.53 L 410.95 245.15" />
  <path stroke-width="2.50" stroke="grey" d="M 500.99 299.53 L 435.96 259.95" />
  <path stroke-width="2.50" stroke="grey" d="M 500.99 299.53 L 514.73 269.23" />
  <path stroke-width="2.50" stroke="grey" d="M 500.99 299.53 L 504.57 249.48" />
  <path stroke-width="2.50" stroke="grey" d="M 500.99 299.53 L 494.20 230.05" />
  <path stroke-width="2.50" stroke="grey" d="M 500.99 299.53 L 513.30 252.51" />
  <path stroke-width="2.50" stroke="grey" d="M 500.99 299.53 L 500.99 309.01" />
  <path stroke-width="2.50" stroke="grey" d="M 408.09 237.00 L 405.59 230.74" />
  <path stroke-width="2.50" stroke="grey" d="M 408.09 237.00 L 408.09 219.92" />
  <path stroke-width="2.50" stroke="grey" d="M 408.09 237.00 L 368.12 230.24" />
  <path stroke-width="2.50" stroke="grey" d="M 408.09 237.00 L 386.92 240.30" />
  <path stroke-width="2.50" stroke="grey" d="M 408.09 237.00 L 408.09 252.06" />
  <path stroke-width="2.50" stroke="grey" d="M 408.09 237.00 L 409.93 237.11" />
  <path stroke-width="2.50" stroke="grey" d="M 408.09 237.00 L 383.23 229.98" />
  <path stroke-width="2.50" stroke="grey" d="M 408.09 237.00 L 368.39 223.56" />
  <path stroke-width="2.50" stroke="grey" d="M 408.09 237.00 L 408.09 216.47" />
  <path stroke-width="2.50" stroke="grey" d="M 408.09 237.00 L 408.09 221.22" />
  <path stroke-width="2.50" stroke="grey" d="M 408.09 237.00 L 367.51 220.15" />
  <path stroke-width="2.50" stroke="grey" d="M 366.31 219.86 L 366.31 218.70" />
  <path stroke-width="2.50" stroke="grey" d="M 366.31 219.86 L 366.31 201.43" />
  <path stroke-width="2.50" stroke="grey" d="M 366.31 219.86 L 347.07 203.15" />
  <path stroke-width="2.50" stroke="grey" d="M 366.31 219.86 L 342.27 213.58" />
  <path stroke-width="2.50" stroke="grey" d="M 366.31 219.86 L 305.84 206.94" />
  <path stroke-width="2.50" stroke="grey" d="M 366.31 219.86 L 312.57 227.03" />
  <path stroke-width="2.50" stroke="grey" d="M 366.31 219.86 L 357.24 224.86" />
  <path stroke-width="2.50" stroke="grey" d="M 366.31 219.86 L 315.07 218.31" />
  <path stroke-width="2.50" stroke="grey" d="M 366.31 219.86 L 366.31 218.42" />
  <path stroke-width="2.50" stroke="grey" d="M 366.31 219.86 L 366.31 216.78" />
  <path stroke-width="2.50" stroke="grey" d="M 366.31 219.86 L 348.91 213.53" />
  <path stroke-width="2.50" stroke="grey" d="M 287.91 216.57 L 288.21 217.68" />
  <path stroke-width="2.50" stroke="grey" d="M 287.91 216.57 L 286.99 229.38" />
  <path stroke-width="2.50" stroke="grey" d="M 287.91 216.57 L 288.34 212.37" />
  <path stroke-width="2.50" stroke="grey" d="M 287.91 216.57 L 288.24 215.21" />
  <path stroke-width="2.50" stroke="grey" d="M 287.91 216.57 L 287.03 218.62" />
  <path stroke-width="2.50" stroke="grey" d="M 287.91 216.57 L 287.91 223.66" />
  <path stroke-width="2.50" stroke="grey" d="M 287.91 216.57 L 289.04 228.19" />
  <path stroke-width="2.50" stroke="grey" d="M 287.91 216.57 L 287.83 228.66" />
  <path stroke-width="2.50" stroke="grey" d="M 287.91 216.57 L 287.91 229.97" />
  <path stroke-width="2.50" stroke="grey" d="M 287.91 216.57 L 289.05 222.69" />
  <path stroke-width="2.50" stroke="grey" d="M 287.91 216.57 L 287.91 225.42" />
  <path stroke-width="2.50" stroke="grey" d="M 251.54 230.55 L 251.54 210.38" />
  <path stroke-width="2.50" stroke="grey" d="M 251.54 230.55 L 116.73 207.36" />
  <path stroke-width="2.50" stroke="grey" d="M 251.54 230.55 L 0.35 196.16" />
  <path stroke-width="2.50" stroke="grey" d="M 251.54 230.55 L 172.63 213.37" />
  <path stroke-width="2.50" stroke="grey" d="M 174.86 205.33 L 174.86 200.99" />
  <path stroke-width="2.50" stroke="grey" d="M 174.86 205.33 L 174.86 204.72" />
  <path stroke-width="2.50" stroke="grey" d="M 174.86 205.33 L 179.95 240.38" />
  <path stroke-width="2.50" stroke="grey" d="M 174.86 205.33 L 174.86 178.98" />
  <path stroke-width="2.50" stroke="grey" d="M 174.86 205.33 L 174.86 198.92" />
  <path stroke-width="2.50" stroke="grey" d="M 174.86 205.33 L 174.86 198.88" />
  <path stroke-width="2.50" stroke="grey" d="M 174.86 205.33 L 174.86 203.04" />
  <path stroke-width="2.50" stroke="grey" d="M 174.86 205.33 L 174.86 202.71" />
</g>
<g id="scrap_0">
<g id="points">
</g>
<g id="lines">
  <path stroke="#ff0000" stroke-width="2.50" fill="none" class="wall" d="M 653.63 325.41 L 657.11 325.47 L 660.21 326.29 L 663.71 327.14 L 667.45 328.24 L 671.85 329.21 L 674.97 330.07 L 679.08 331.50 L 682.15 332.15 L 685.47 332.43 L 689.44 332.67 L 694.61 332.75 L 700.08 332.91 L 705.25 333.47 L 711.22 334.68 L 716.92 336.05 L 720.76 336.83 L 725.04 337.48 L 728.83 338.12 L 732.37 338.66 L 735.73 339.13 L 741.04 339.69 L 746.25 340.01 L 749.57 339.99 L 752.81 340.11 L 757.01 340.80 L 758.54 341.00" />
  <path stroke="#ff0000" stroke-width="2.50" fill="none" class="wall" d="M 667.85 401.09 L 673.77 400.27 L 679.11 399.76 L 684.90 399.69 L 690.89 399.59 L 695.95 399.49 L 701.09 398.97 L 706.77 398.49 L 712.59 397.94 L 718.85 397.53 L 722.96 397.09" />
  <path stroke="#ff0000" stroke-width="2.50" fill="none" class="wall" d="M 571.05 289.07 L 575.67 291.90 L 580.12 294.62 L 584.54 296.85 L 588.90 298.98 L 593.02 301.24 L 596.54 304.53 L 599.57 308.29 L 603.26 311.81 L 606.45 315.40 L 610.01 318.46 L 613.13 321.89 L 616.65 325.61 L 618.22 327.77" />
  <path stroke="#ff0000" stroke-width="2.50" fill="none" class="wall" d="M 658.51 324.58 L 654.28 324.52 L 652.31 324.87" />
  <path stroke="#ff0000" stroke-width="2.50" fill="none" class="wall" d="M 617.30 326.95 L 619.80 330.65 L 622.62 333.59 L 625.61 336.58 L 629.19 334.76 L 631.33 331.18 L 634.21 327.95 L 637.64 325.66 L 641.78 325.05 L 646.33 325.75 L 650.79 326.34 L 655.04 326.43" />
  <path stroke="#ff0000" stroke-width="2.50" fill="none" class="wall" d="M 625.08 351.55 L 628.60 353.95 L 632.06 356.95 L 635.09 360.38 L 637.41 364.52 L 639.23 368.92 L 641.04 373.35 L 642.69 378.05 L 644.27 382.95 L 645.68 387.03 L 647.94 390.43 L 651.32 393.28 L 654.90 396.07 L 658.53 398.59 L 662.61 399.82 L 666.93 399.91 L 669.48 400.09" />
  <path stroke="#ff0000" stroke-width="2.50" fill="none" class="wall" d="M 538.79 324.29 L 542.03 326.92 L 545.78 329.11 L 549.74 330.58 L 553.72 332.00 L 558.09 332.71 L 562.10 333.47 L 566.41 334.71 L 570.78 335.72 L 575.18 336.07 L 578.81 337.90 L 583.03 338.17 L 587.34 337.64 L 591.53 338.14 L 595.52 339.44 L 598.97 341.80 L 602.98 343.98 L 606.88 345.75 L 611.13 347.23 L 615.53 347.64 L 619.87 348.47 L 623.64 350.95 L 625.41 352.63" />
  <path stroke="#ff0000" stroke-width="2.50" fill="none" class="wall" d="M 513.86 252.75 L 516.53 253.63 L 519.11 254.75 L 521.99 255.53 L 524.97 256.11 L 527.90 256.77 L 530.50 258.34 L 532.64 260.69 L 534.64 263.21 L 536.75 265.50 L 538.61 268.04 L 540.42 270.84 L 542.03 273.38 L 544.55 275.73 L 547.60 277.86 L 550.92 280.05 L 554.19 281.90 L 556.97 283.06 L 560.15 284.21 L 563.31 285.56 L 566.28 286.73 L 569.23 288.18 L 572.08 289.25" />
  <path stroke="#ff0000" stroke-width="2.50" fill="none" class="wall" d="M 501.59 308.38 L 505.01 309.28 L 508.42 310.01 L 511.88 311.06 L 514.46 312.23 L 516.96 313.91 L 520.20 316.01 L 523.15 317.62 L 526.10 318.96 L 528.76 319.89 L 531.78 320.94 L 534.38 321.72 L 537.33 322.30 L 540.03 323.11" />
  <path stroke="#ff0000" stroke-width="2.50" fill="none" class="wall" d="M 407.33 251.29 L 412.36 253.65 L 415.32 258.10 L 414.53 263.69 L 414.41 269.04 L 418.23 272.90 L 423.59 275.11 L 429.14 276.76 L 434.89 278.65 L 440.24 280.86 L 447.29 284.79 L 453.86 289.28 L 459.81 292.71 L 466.54 295.74 L 473.08 298.30 L 478.31 299.95 L 484.69 301.76 L 491.39 304.25 L 496.94 306.37" />
  <path stroke="#ff0000" stroke-width="2.50" fill="none" class="wall" d="M 514.22 252.86 L 508.35 252.31 L 502.80 251.21 L 497.37 249.51 L 491.78 248.37 L 485.60 247.78 L 479.65 247.43 L 473.47 245.81 L 467.49 244.36 L 460.99 242.78 L 454.34 241.48 L 448.15 240.42 L 441.62 239.47 L 435.59 238.61 L 428.74 237.27 L 423.31 235.50 L 418.00 233.61 L 412.44 231.79 L 406.42 231.01" />
  <path stroke="#ff0000" stroke-width="2.50" fill="none" class="wall" d="M 385.23 219.67 L 386.87 220.52 L 388.62 221.45 L 390.50 222.48 L 392.56 223.71 L 394.73 224.89 L 396.90 226.17 L 398.83 227.19 L 400.94 228.30 L 402.88 229.10 L 404.64 229.79 L 406.42 230.69 L 407.49 231.22" />
  <path stroke="#ff0000" stroke-width="2.50" fill="none" class="wall" d="M 374.47 229.98 L 376.29 231.68 L 377.72 232.90 L 379.47 234.11 L 381.48 235.24 L 383.22 236.17 L 384.85 237.27 L 386.87 238.36 L 388.66 239.40 L 390.49 240.37 L 392.32 241.51 L 393.91 242.58 L 395.66 244.01 L 397.27 245.37 L 398.78 246.66 L 400.51 248.08 L 402.28 249.32 L 404.16 250.48 L 406.18 251.63 L 408.12 252.25" />
  <path stroke="#ff0000" stroke-width="2.50" fill="none" class="wall" d="M 314.63 226.30 L 317.79 226.38 L 320.62 226.55 L 323.68 226.83 L 327.52 227.49 L 330.64 227.94 L 334.14 228.43 L 337.59 228.84 L 340.88 228.86 L 345.06 228.17 L 348.70 227.30 L 351.90 226.38 L 355.41 225.56 L 358.79 224.99 L 362.28 225.95 L 365.59 227.12 L 368.34 228.02 L 371.56 229.42 L 374.82 231.10 L 377.72 232.70 L 379.71 233.73" />
  <path stroke="#ff0000" stroke-width="2.50" fill="none" class="wall" d="M 387.30 220.29 L 384.39 219.42 L 381.29 218.68 L 378.45 217.51 L 375.68 216.36 L 372.97 215.42 L 370.04 215.22 L 367.27 214.81 L 365.36 212.81 L 364.72 209.84 L 364.17 206.92 L 362.98 204.30 L 361.19 201.71 L 358.69 200.31 L 355.80 199.84 L 352.72 200.17 L 349.93 200.99 L 347.38 202.35 L 344.78 203.50" />
  <path stroke="#ff0000" stroke-width="2.50" fill="none" class="wall" d="M 308.02 206.31 L 310.99 206.64 L 314.24 206.64 L 317.05 206.55 L 320.44 206.84 L 323.88 207.58 L 327.02 207.95 L 330.72 208.20 L 333.86 207.97 L 336.81 207.56 L 340.10 206.62 L 343.24 205.65 L 345.68 204.09 L 346.54 201.73" />
  <path stroke="#ff0000" stroke-width="2.50" fill="none" class="wall" d="M 316.29 226.01 L 313.48 226.50 L 310.83 226.81 L 307.82 227.15 L 304.96 227.83 L 302.28 228.44 L 299.54 228.70 L 296.86 228.93 L 294.13 229.23 L 291.29 229.35 L 288.34 229.58 L 285.40 229.56" />
  <path stroke="#ff0000" stroke-width="2.50" fill="none" class="wall" d="M 309.85 205.71 L 307.10 206.43 L 304.46 206.89 L 301.83 207.46 L 299.18 208.10 L 296.47 208.75 L 293.85 209.28 L 291.25 210.19 L 288.68 211.29 L 286.16 212.04 L 283.46 211.76" />
</g>
<g id="areas">
</g>
</g>
<g id="xsections">
</g>
<g id="stations">
<text font-size="32" fill="violet" stroke="none" text-anchor="middle" x="663.55" y="361.35" >42</text>
<text font-size="32" fill="violet" stroke="none" text-anchor="middle" x="743.95" y="377.75" >41</text>
<text font-size="32" fill="violet" stroke="none" text-anchor="middle" x="464.22" y="356.58" >43</text>
<text font-size="32" fill="violet" stroke="none" text-anchor="middle" x="569.09" y="312.58" >420</text>
<text font-size="32" fill="violet" stroke="none" text-anchor="middle" x="500.99" y="299.53" >421</text>
<text font-size="32" fill="violet" stroke="none" text-anchor="middle" x="408.09" y="237.00" >422</text>
<text font-size="32" fill="violet" stroke="none" text-anchor="middle" x="366.31" y="219.86" >423</text>
<text font-size="32" fill="violet" stroke="none" text-anchor="middle" x="287.91" y="216.57" >424</text>
<text font-size="32" fill="violet" stroke="none" text-anchor="middle" x="251.54" y="230.55" >425</text>
<text font-size="32" fill="violet" stroke="none" text-anchor="middle" x="174.86" y="205.33" >426</text>
</g>
</svg>
