<svg xmlns:i="http://ns.adobe.com/AdobeIllustrator/10.0/" xmlns:dc="http://purl.org/dc/elements/1.1/" xmlns:cc="http://creativecommons.org/ns#" xmlns:rdf="http://www.w3.org/1999/02/22-rdf-syntax-ns#" xmlns:svg="http://www.w3.org/2000/svg" xmlns="http://www.w3.org/2000/svg" xmlns:xlink="http://www.w3.org/1999/xlink" xmlns:sodipodi="http://sodipodi.sourceforge.net/DTD/sodipodi-0.dtd" xmlns:inkscape="http://www.inkscape.org/namespaces/inkscape" 
 width="2042pt" height="1134pt"
  version="1.1"
  id="svg46"
  sodipodi:docname="Pestera_Piciorul_Beni_din_mina-1s.svg"
  inkscape:version="0.92.4 (5da689c313, 2019-01-14)">
<!-- SVG created by TopoDroid v. 6.0.92 -->
  <sodipodi:namedview pagecolor="#ffffff" bordercolor="#666666" borderopacity="1" objecttolerance="10" gridtolerance="10" guidetolerance="10" inkscape:pageopacity="0" inkscape:pageshadow="2" inkscape:window-width="auto" inkscape:window-height="auto" id="namedview48" showgrid="false" inkscape:zoom="1" inkscape:cx="auto" inkscape:cy="auto" inkscape:window-x="0" inkscape:window-y="0" inkscape:window-maximized="1" inkscape:current-layer="w2d_Walls_shp" showborder="false"/>
  <defs>
    <marker id="Triangle" viewBox="0 0 10 10" refX="0" refY="5" 
      markerUnits="strokeWidth" markerWidth="4" markerHeight="3" orient="auto" >
      <path d="M 0 0 L 10 5 L 0 10 z" />
    </marker>
  </defs>
<g id="grid"
  style="fill:none;stroke-opacity:0.4" >
<g id="grid1"
 style="fill:none;stroke-opacity:0.4;stroke-width=2.50;stroke:#666666" >
  <path stroke-width="2.50" stroke="#999999" d="M 36.73 0.00 L 36.73 1607.56" />
  <path stroke-width="2.50" stroke="#999999" d="M 65.08 0.00 L 65.08 1607.56" />
  <path stroke-width="2.50" stroke="#999999" d="M 93.43 0.00 L 93.43 1607.56" />
  <path stroke-width="2.50" stroke="#999999" d="M 121.77 0.00 L 121.77 1607.56" />
  <path stroke-width="2.50" stroke="#999999" d="M 150.12 0.00 L 150.12 1607.56" />
  <path stroke-width="2.50" stroke="#999999" d="M 178.47 0.00 L 178.47 1607.56" />
  <path stroke-width="2.50" stroke="#999999" d="M 206.81 0.00 L 206.81 1607.56" />
  <path stroke-width="2.50" stroke="#999999" d="M 235.16 0.00 L 235.16 1607.56" />
  <path stroke-width="2.50" stroke="#999999" d="M 263.50 0.00 L 263.50 1607.56" />
  <path stroke-width="2.50" stroke="#999999" d="M 320.20 0.00 L 320.20 1607.56" />
  <path stroke-width="2.50" stroke="#999999" d="M 348.54 0.00 L 348.54 1607.56" />
  <path stroke-width="2.50" stroke="#999999" d="M 376.89 0.00 L 376.89 1607.56" />
  <path stroke-width="2.50" stroke="#999999" d="M 405.24 0.00 L 405.24 1607.56" />
  <path stroke-width="2.50" stroke="#999999" d="M 433.58 0.00 L 433.58 1607.56" />
  <path stroke-width="2.50" stroke="#999999" d="M 461.93 0.00 L 461.93 1607.56" />
  <path stroke-width="2.50" stroke="#999999" d="M 490.28 0.00 L 490.28 1607.56" />
  <path stroke-width="2.50" stroke="#999999" d="M 518.62 0.00 L 518.62 1607.56" />
  <path stroke-width="2.50" stroke="#999999" d="M 546.97 0.00 L 546.97 1607.56" />
  <path stroke-width="2.50" stroke="#999999" d="M 603.66 0.00 L 603.66 1607.56" />
  <path stroke-width="2.50" stroke="#999999" d="M 632.01 0.00 L 632.01 1607.56" />
  <path stroke-width="2.50" stroke="#999999" d="M 660.35 0.00 L 660.35 1607.56" />
  <path stroke-width="2.50" stroke="#999999" d="M 688.70 0.00 L 688.70 1607.56" />
  <path stroke-width="2.50" stroke="#999999" d="M 717.05 0.00 L 717.05 1607.56" />
  <path stroke-width="2.50" stroke="#999999" d="M 745.39 0.00 L 745.39 1607.56" />
  <path stroke-width="2.50" stroke="#999999" d="M 773.74 0.00 L 773.74 1607.56" />
  <path stroke-width="2.50" stroke="#999999" d="M 802.09 0.00 L 802.09 1607.56" />
  <path stroke-width="2.50" stroke="#999999" d="M 830.43 0.00 L 830.43 1607.56" />
  <path stroke-width="2.50" stroke="#999999" d="M 887.13 0.00 L 887.13 1607.56" />
  <path stroke-width="2.50" stroke="#999999" d="M 915.47 0.00 L 915.47 1607.56" />
  <path stroke-width="2.50" stroke="#999999" d="M 943.82 0.00 L 943.82 1607.56" />
  <path stroke-width="2.50" stroke="#999999" d="M 972.17 0.00 L 972.17 1607.56" />
  <path stroke-width="2.50" stroke="#999999" d="M 1000.51 0.00 L 1000.51 1607.56" />
  <path stroke-width="2.50" stroke="#999999" d="M 1028.86 0.00 L 1028.86 1607.56" />
  <path stroke-width="2.50" stroke="#999999" d="M 1057.21 0.00 L 1057.21 1607.56" />
  <path stroke-width="2.50" stroke="#999999" d="M 1085.55 0.00 L 1085.55 1607.56" />
  <path stroke-width="2.50" stroke="#999999" d="M 1113.90 0.00 L 1113.90 1607.56" />
  <path stroke-width="2.50" stroke="#999999" d="M 1170.59 0.00 L 1170.59 1607.56" />
  <path stroke-width="2.50" stroke="#999999" d="M 1198.94 0.00 L 1198.94 1607.56" />
  <path stroke-width="2.50" stroke="#999999" d="M 1227.28 0.00 L 1227.28 1607.56" />
  <path stroke-width="2.50" stroke="#999999" d="M 1255.63 0.00 L 1255.63 1607.56" />
  <path stroke-width="2.50" stroke="#999999" d="M 1283.98 0.00 L 1283.98 1607.56" />
  <path stroke-width="2.50" stroke="#999999" d="M 1312.32 0.00 L 1312.32 1607.56" />
  <path stroke-width="2.50" stroke="#999999" d="M 1340.67 0.00 L 1340.67 1607.56" />
  <path stroke-width="2.50" stroke="#999999" d="M 1369.02 0.00 L 1369.02 1607.56" />
  <path stroke-width="2.50" stroke="#999999" d="M 1397.36 0.00 L 1397.36 1607.56" />
  <path stroke-width="2.50" stroke="#999999" d="M 1454.06 0.00 L 1454.06 1607.56" />
  <path stroke-width="2.50" stroke="#999999" d="M 1482.40 0.00 L 1482.40 1607.56" />
  <path stroke-width="2.50" stroke="#999999" d="M 1510.75 0.00 L 1510.75 1607.56" />
  <path stroke-width="2.50" stroke="#999999" d="M 1539.10 0.00 L 1539.10 1607.56" />
  <path stroke-width="2.50" stroke="#999999" d="M 1567.44 0.00 L 1567.44 1607.56" />
  <path stroke-width="2.50" stroke="#999999" d="M 1595.79 0.00 L 1595.79 1607.56" />
  <path stroke-width="2.50" stroke="#999999" d="M 1624.13 0.00 L 1624.13 1607.56" />
  <path stroke-width="2.50" stroke="#999999" d="M 1652.48 0.00 L 1652.48 1607.56" />
  <path stroke-width="2.50" stroke="#999999" d="M 1680.83 0.00 L 1680.83 1607.56" />
  <path stroke-width="2.50" stroke="#999999" d="M 1737.52 0.00 L 1737.52 1607.56" />
  <path stroke-width="2.50" stroke="#999999" d="M 1765.87 0.00 L 1765.87 1607.56" />
  <path stroke-width="2.50" stroke="#999999" d="M 1794.21 0.00 L 1794.21 1607.56" />
  <path stroke-width="2.50" stroke="#999999" d="M 1822.56 0.00 L 1822.56 1607.56" />
  <path stroke-width="2.50" stroke="#999999" d="M 1850.91 0.00 L 1850.91 1607.56" />
  <path stroke-width="2.50" stroke="#999999" d="M 1879.25 0.00 L 1879.25 1607.56" />
  <path stroke-width="2.50" stroke="#999999" d="M 1907.60 0.00 L 1907.60 1607.56" />
  <path stroke-width="2.50" stroke="#999999" d="M 1935.95 0.00 L 1935.95 1607.56" />
  <path stroke-width="2.50" stroke="#999999" d="M 1964.29 0.00 L 1964.29 1607.56" />
  <path stroke-width="2.50" stroke="#999999" d="M 2020.98 0.00 L 2020.98 1607.56" />
  <path stroke-width="2.50" stroke="#999999" d="M 2049.33 0.00 L 2049.33 1607.56" />
  <path stroke-width="2.50" stroke="#999999" d="M 2077.68 0.00 L 2077.68 1607.56" />
  <path stroke-width="2.50" stroke="#999999" d="M 2106.02 0.00 L 2106.02 1607.56" />
  <path stroke-width="2.50" stroke="#999999" d="M 2134.37 0.00 L 2134.37 1607.56" />
  <path stroke-width="2.50" stroke="#999999" d="M 2162.72 0.00 L 2162.72 1607.56" />
  <path stroke-width="2.50" stroke="#999999" d="M 2191.06 0.00 L 2191.06 1607.56" />
  <path stroke-width="2.50" stroke="#999999" d="M 2219.41 0.00 L 2219.41 1607.56" />
  <path stroke-width="2.50" stroke="#999999" d="M 2247.76 0.00 L 2247.76 1607.56" />
  <path stroke-width="2.50" stroke="#999999" d="M 2304.45 0.00 L 2304.45 1607.56" />
  <path stroke-width="2.50" stroke="#999999" d="M 2332.80 0.00 L 2332.80 1607.56" />
  <path stroke-width="2.50" stroke="#999999" d="M 2361.14 0.00 L 2361.14 1607.56" />
  <path stroke-width="2.50" stroke="#999999" d="M 2389.49 0.00 L 2389.49 1607.56" />
  <path stroke-width="2.50" stroke="#999999" d="M 2417.84 0.00 L 2417.84 1607.56" />
  <path stroke-width="2.50" stroke="#999999" d="M 2446.18 0.00 L 2446.18 1607.56" />
  <path stroke-width="2.50" stroke="#999999" d="M 2474.53 0.00 L 2474.53 1607.56" />
  <path stroke-width="2.50" stroke="#999999" d="M 2502.87 0.00 L 2502.87 1607.56" />
  <path stroke-width="2.50" stroke="#999999" d="M 2531.22 0.00 L 2531.22 1607.56" />
  <path stroke-width="2.50" stroke="#999999" d="M 2587.91 0.00 L 2587.91 1607.56" />
  <path stroke-width="2.50" stroke="#999999" d="M 2616.26 0.00 L 2616.26 1607.56" />
  <path stroke-width="2.50" stroke="#999999" d="M 2644.61 0.00 L 2644.61 1607.56" />
  <path stroke-width="2.50" stroke="#999999" d="M 2672.95 0.00 L 2672.95 1607.56" />
  <path stroke-width="2.50" stroke="#999999" d="M 2701.30 0.00 L 2701.30 1607.56" />
  <path stroke-width="2.50" stroke="#999999" d="M 2729.65 0.00 L 2729.65 1607.56" />
  <path stroke-width="2.50" stroke="#999999" d="M 2757.99 0.00 L 2757.99 1607.56" />
  <path stroke-width="2.50" stroke="#999999" d="M 2786.34 0.00 L 2786.34 1607.56" />
  <path stroke-width="2.50" stroke="#999999" d="M 2814.69 0.00 L 2814.69 1607.56" />
  <path stroke-width="2.50" stroke="#999999" d="M 2871.38 0.00 L 2871.38 1607.56" />
  <path stroke-width="2.50" stroke="#999999" d="M 0.00 9.17 L 2894.70 9.17" />
  <path stroke-width="2.50" stroke="#999999" d="M 0.00 37.52 L 2894.70 37.52" />
  <path stroke-width="2.50" stroke="#999999" d="M 0.00 65.87 L 2894.70 65.87" />
  <path stroke-width="2.50" stroke="#999999" d="M 0.00 94.21 L 2894.70 94.21" />
  <path stroke-width="2.50" stroke="#999999" d="M 0.00 122.56 L 2894.70 122.56" />
  <path stroke-width="2.50" stroke="#999999" d="M 0.00 150.91 L 2894.70 150.91" />
  <path stroke-width="2.50" stroke="#999999" d="M 0.00 179.25 L 2894.70 179.25" />
  <path stroke-width="2.50" stroke="#999999" d="M 0.00 207.60 L 2894.70 207.60" />
  <path stroke-width="2.50" stroke="#999999" d="M 0.00 264.29 L 2894.70 264.29" />
  <path stroke-width="2.50" stroke="#999999" d="M 0.00 292.64 L 2894.70 292.64" />
  <path stroke-width="2.50" stroke="#999999" d="M 0.00 320.99 L 2894.70 320.99" />
  <path stroke-width="2.50" stroke="#999999" d="M 0.00 349.33 L 2894.70 349.33" />
  <path stroke-width="2.50" stroke="#999999" d="M 0.00 377.68 L 2894.70 377.68" />
  <path stroke-width="2.50" stroke="#999999" d="M 0.00 406.02 L 2894.70 406.02" />
  <path stroke-width="2.50" stroke="#999999" d="M 0.00 434.37 L 2894.70 434.37" />
  <path stroke-width="2.50" stroke="#999999" d="M 0.00 462.72 L 2894.70 462.72" />
  <path stroke-width="2.50" stroke="#999999" d="M 0.00 491.06 L 2894.70 491.06" />
  <path stroke-width="2.50" stroke="#999999" d="M 0.00 547.76 L 2894.70 547.76" />
  <path stroke-width="2.50" stroke="#999999" d="M 0.00 576.10 L 2894.70 576.10" />
  <path stroke-width="2.50" stroke="#999999" d="M 0.00 604.45 L 2894.70 604.45" />
  <path stroke-width="2.50" stroke="#999999" d="M 0.00 632.80 L 2894.70 632.80" />
  <path stroke-width="2.50" stroke="#999999" d="M 0.00 661.14 L 2894.70 661.14" />
  <path stroke-width="2.50" stroke="#999999" d="M 0.00 689.49 L 2894.70 689.49" />
  <path stroke-width="2.50" stroke="#999999" d="M 0.00 717.84 L 2894.70 717.84" />
  <path stroke-width="2.50" stroke="#999999" d="M 0.00 746.18 L 2894.70 746.18" />
  <path stroke-width="2.50" stroke="#999999" d="M 0.00 774.53 L 2894.70 774.53" />
  <path stroke-width="2.50" stroke="#999999" d="M 0.00 831.22 L 2894.70 831.22" />
  <path stroke-width="2.50" stroke="#999999" d="M 0.00 859.57 L 2894.70 859.57" />
  <path stroke-width="2.50" stroke="#999999" d="M 0.00 887.91 L 2894.70 887.91" />
  <path stroke-width="2.50" stroke="#999999" d="M 0.00 916.26 L 2894.70 916.26" />
  <path stroke-width="2.50" stroke="#999999" d="M 0.00 944.61 L 2894.70 944.61" />
  <path stroke-width="2.50" stroke="#999999" d="M 0.00 972.95 L 2894.70 972.95" />
  <path stroke-width="2.50" stroke="#999999" d="M 0.00 1001.30 L 2894.70 1001.30" />
  <path stroke-width="2.50" stroke="#999999" d="M 0.00 1029.65 L 2894.70 1029.65" />
  <path stroke-width="2.50" stroke="#999999" d="M 0.00 1057.99 L 2894.70 1057.99" />
  <path stroke-width="2.50" stroke="#999999" d="M 0.00 1114.69 L 2894.70 1114.69" />
  <path stroke-width="2.50" stroke="#999999" d="M 0.00 1143.03 L 2894.70 1143.03" />
  <path stroke-width="2.50" stroke="#999999" d="M 0.00 1171.38 L 2894.70 1171.38" />
  <path stroke-width="2.50" stroke="#999999" d="M 0.00 1199.73 L 2894.70 1199.73" />
  <path stroke-width="2.50" stroke="#999999" d="M 0.00 1228.07 L 2894.70 1228.07" />
  <path stroke-width="2.50" stroke="#999999" d="M 0.00 1256.42 L 2894.70 1256.42" />
  <path stroke-width="2.50" stroke="#999999" d="M 0.00 1284.76 L 2894.70 1284.76" />
  <path stroke-width="2.50" stroke="#999999" d="M 0.00 1313.11 L 2894.70 1313.11" />
  <path stroke-width="2.50" stroke="#999999" d="M 0.00 1341.46 L 2894.70 1341.46" />
  <path stroke-width="2.50" stroke="#999999" d="M 0.00 1398.15 L 2894.70 1398.15" />
  <path stroke-width="2.50" stroke="#999999" d="M 0.00 1426.50 L 2894.70 1426.50" />
  <path stroke-width="2.50" stroke="#999999" d="M 0.00 1454.84 L 2894.70 1454.84" />
  <path stroke-width="2.50" stroke="#999999" d="M 0.00 1483.19 L 2894.70 1483.19" />
  <path stroke-width="2.50" stroke="#999999" d="M 0.00 1511.54 L 2894.70 1511.54" />
  <path stroke-width="2.50" stroke="#999999" d="M 0.00 1539.88 L 2894.70 1539.88" />
  <path stroke-width="2.50" stroke="#999999" d="M 0.00 1568.23 L 2894.70 1568.23" />
  <path stroke-width="2.50" stroke="#999999" d="M 0.00 1596.58 L 2894.70 1596.58" />
</g>
<g id="grid10"
 style="fill:none;stroke-opacity:0.6;stroke-width=2.50;stroke:#666666" >
  <path stroke-width="2.50" stroke="#666666" d="M 8.39 0.00 L 8.39 1607.56" />
  <path stroke-width="2.50" stroke="#666666" d="M 575.32 0.00 L 575.32 1607.56" />
  <path stroke-width="2.50" stroke="#666666" d="M 858.78 0.00 L 858.78 1607.56" />
  <path stroke-width="2.50" stroke="#666666" d="M 1142.24 0.00 L 1142.24 1607.56" />
  <path stroke-width="2.50" stroke="#666666" d="M 1425.71 0.00 L 1425.71 1607.56" />
  <path stroke-width="2.50" stroke="#666666" d="M 1709.17 0.00 L 1709.17 1607.56" />
  <path stroke-width="2.50" stroke="#666666" d="M 1992.64 0.00 L 1992.64 1607.56" />
  <path stroke-width="2.50" stroke="#666666" d="M 2276.10 0.00 L 2276.10 1607.56" />
  <path stroke-width="2.50" stroke="#666666" d="M 2559.57 0.00 L 2559.57 1607.56" />
  <path stroke-width="2.50" stroke="#666666" d="M 2843.03 0.00 L 2843.03 1607.56" />
  <path stroke-width="2.50" stroke="#666666" d="M 0.00 235.95 L 2894.70 235.95" />
  <path stroke-width="2.50" stroke="#666666" d="M 0.00 519.41 L 2894.70 519.41" />
  <path stroke-width="2.50" stroke="#666666" d="M 0.00 1086.34 L 2894.70 1086.34" />
  <path stroke-width="2.50" stroke="#666666" d="M 0.00 1369.80 L 2894.70 1369.80" />
</g>
<g id="grid100"
 style="fill:none;stroke-opacity:0.8;stroke-width=2.50;stroke:#666666" >
  <path stroke-width="2.50" stroke="#333333" d="M 291.85 0.00 L 291.85 1607.56" />
  <path stroke-width="2.50" stroke="#333333" d="M 0.00 802.88 L 2894.70 802.88" />
</g>
</g>
<g id="legs" style="fill:none;stroke-opacity:0.6;stroke:red" >
  <path stroke-width="2.50" stroke="black" d="M 291.85 802.88 L 439.96 807.25" />
  <path stroke-width="2.50" stroke="black" d="M 439.96 807.25 L 471.87 846.53" />
  <path stroke-width="2.50" stroke="black" d="M 471.87 846.53 L 553.95 867.06" />
  <path stroke-width="2.50" stroke="black" d="M 553.95 867.06 L 695.87 976.08" />
  <path stroke-width="2.50" stroke="black" d="M 695.87 976.08 L 757.65 985.74" />
  <path stroke-width="2.50" stroke="black" d="M 757.65 985.74 L 845.42 1002.55" />
  <path stroke-width="2.50" stroke="black" d="M 845.42 1002.55 L 1004.20 1043.92" />
  <path stroke-width="2.50" stroke="black" d="M 1004.20 1043.92 L 1070.76 1102.40" />
  <path stroke-width="2.50" stroke="black" d="M 1070.76 1102.40 L 1116.05 1103.89" />
  <path stroke-width="2.50" stroke="black" d="M 1116.05 1103.89 L 1246.83 1109.16" />
  <path stroke-width="2.50" stroke="black" d="M 1246.83 1109.16 L 1304.48 1110.80" />
  <path stroke-width="2.50" stroke="black" d="M 1304.48 1110.80 L 1396.40 1118.95" />
  <path stroke-width="2.50" stroke="black" d="M 1396.40 1118.95 L 1461.15 1123.55" />
  <path stroke-width="2.50" stroke="black" d="M 1461.15 1123.55 L 1537.40 1123.15" />
  <path stroke-width="2.50" stroke="black" d="M 1537.40 1123.15 L 1662.25 1122.82" />
  <path stroke-width="2.50" stroke="black" d="M 1662.25 1122.82 L 1662.25 1127.08" />
  <path stroke-width="2.50" stroke="black" d="M 1662.25 1127.08 L 1599.29 1139.50" />
  <path stroke-width="2.50" stroke="black" d="M 1599.29 1139.50 L 1793.01 1137.99" />
  <path stroke-width="2.50" stroke="black" d="M 1793.01 1137.99 L 1899.94 1149.71" />
  <path stroke-width="2.50" stroke="black" d="M 1899.94 1149.71 L 2013.53 1180.12" />
  <path stroke-width="2.50" stroke="black" d="M 2013.53 1180.12 L 2069.26 1193.36" />
  <path stroke-width="2.50" stroke="black" d="M 2069.26 1193.36 L 2150.62 1200.79" />
  <path stroke-width="2.50" stroke="black" d="M 2150.62 1200.79 L 2329.57 1227.74" />
  <path stroke-width="2.50" stroke="black" d="M 2329.57 1227.74 L 2437.44 1251.13" />
  <path stroke-width="2.50" stroke="black" d="M 2437.44 1251.13 L 2478.02 1260.75" />
  <path stroke-width="2.50" stroke="black" d="M 2478.02 1260.75 L 2530.11 1260.49" />
  <path stroke-width="2.50" stroke="black" d="M 2530.11 1260.49 L 2615.84 1321.56" />
</g>
<g id="splays"
  style="fill:none;stroke-opacity:0.4;stroke:grey" >
  <path stroke-width="2.50" stroke="grey" d="M 291.85 802.88 L 298.11 803.66" />
  <path stroke-width="2.50" stroke="grey" d="M 291.85 802.88 L 317.72 781.02" />
  <path stroke-width="2.50" stroke="grey" d="M 291.85 802.88 L 333.60 796.68" />
  <path stroke-width="2.50" stroke="grey" d="M 291.85 802.88 L 393.43 789.73" />
  <path stroke-width="2.50" stroke="grey" d="M 291.85 802.88 L 408.10 798.46" />
  <path stroke-width="2.50" stroke="grey" d="M 291.85 802.88 L 418.55 800.91" />
  <path stroke-width="2.50" stroke="grey" d="M 291.85 802.88 L 459.93 799.36" />
  <path stroke-width="2.50" stroke="grey" d="M 291.85 802.88 L 494.11 785.13" />
  <path stroke-width="2.50" stroke="grey" d="M 291.85 802.88 L 430.90 803.60" />
  <path stroke-width="2.50" stroke="grey" d="M 291.85 802.88 L 368.24 811.80" />
  <path stroke-width="2.50" stroke="grey" d="M 291.85 802.88 L 337.67 817.69" />
  <path stroke-width="2.50" stroke="grey" d="M 291.85 802.88 L 292.92 813.55" />
  <path stroke-width="2.50" stroke="grey" d="M 291.85 802.88 L 278.32 809.33" />
  <path stroke-width="2.50" stroke="grey" d="M 291.85 802.88 L 373.50 822.87" />
  <path stroke-width="2.50" stroke="grey" d="M 291.85 802.88 L 401.26 835.68" />
  <path stroke-width="2.50" stroke="grey" d="M 291.85 802.88 L 424.65 828.31" />
  <path stroke-width="2.50" stroke="grey" d="M 291.85 802.88 L 461.71 820.68" />
  <path stroke-width="2.50" stroke="grey" d="M 291.85 802.88 L 377.33 823.07" />
  <path stroke-width="2.50" stroke="grey" d="M 291.85 802.88 L 405.93 722.61" />
  <path stroke-width="2.50" stroke="grey" d="M 291.85 802.88 L 429.80 539.78" />
  <path stroke-width="2.50" stroke="grey" d="M 291.85 802.88 L 432.13 421.98" />
  <path stroke-width="2.50" stroke="grey" d="M 291.85 802.88 L 469.64 281.14" />
  <path stroke-width="2.50" stroke="grey" d="M 291.85 802.88 L 427.72 304.80" />
  <path stroke-width="2.50" stroke="grey" d="M 291.85 802.88 L 378.56 426.01" />
  <path stroke-width="2.50" stroke="grey" d="M 291.85 802.88 L 338.86 333.96" />
  <path stroke-width="2.50" stroke="grey" d="M 291.85 802.88 L 300.87 322.29" />
  <path stroke-width="2.50" stroke="grey" d="M 291.85 802.88 L 293.80 617.28" />
  <path stroke-width="2.50" stroke="grey" d="M 291.85 802.88 L 297.28 774.07" />
  <path stroke-width="2.50" stroke="grey" d="M 291.85 802.88 L 293.52 821.56" />
  <path stroke-width="2.50" stroke="grey" d="M 291.85 802.88 L 332.02 821.31" />
  <path stroke-width="2.50" stroke="grey" d="M 291.85 802.88 L 521.22 746.09" />
  <path stroke-width="2.50" stroke="grey" d="M 439.96 807.25 L 474.30 758.94" />
  <path stroke-width="2.50" stroke="grey" d="M 439.96 807.25 L 478.11 787.08" />
  <path stroke-width="2.50" stroke="grey" d="M 439.96 807.25 L 509.93 730.38" />
  <path stroke-width="2.50" stroke="grey" d="M 439.96 807.25 L 483.97 811.37" />
  <path stroke-width="2.50" stroke="grey" d="M 439.96 807.25 L 514.93 820.34" />
  <path stroke-width="2.50" stroke="grey" d="M 439.96 807.25 L 509.51 820.13" />
  <path stroke-width="2.50" stroke="grey" d="M 439.96 807.25 L 389.85 815.02" />
  <path stroke-width="2.50" stroke="grey" d="M 439.96 807.25 L 382.34 823.78" />
  <path stroke-width="2.50" stroke="grey" d="M 439.96 807.25 L 346.64 815.96" />
  <path stroke-width="2.50" stroke="grey" d="M 439.96 807.25 L 625.62 888.01" />
  <path stroke-width="2.50" stroke="grey" d="M 439.96 807.25 L 466.06 892.85" />
  <path stroke-width="2.50" stroke="grey" d="M 439.96 807.25 L 439.96 713.42" />
  <path stroke-width="2.50" stroke="grey" d="M 471.87 846.53 L 471.87 845.55" />
  <path stroke-width="2.50" stroke="grey" d="M 471.87 846.53 L 447.73 845.39" />
  <path stroke-width="2.50" stroke="grey" d="M 471.87 846.53 L 480.44 844.27" />
  <path stroke-width="2.50" stroke="grey" d="M 471.87 846.53 L 504.99 841.20" />
  <path stroke-width="2.50" stroke="grey" d="M 471.87 846.53 L 532.98 848.73" />
  <path stroke-width="2.50" stroke="grey" d="M 471.87 846.53 L 501.04 842.66" />
  <path stroke-width="2.50" stroke="grey" d="M 471.87 846.53 L 508.05 847.14" />
  <path stroke-width="2.50" stroke="grey" d="M 471.87 846.53 L 435.64 846.85" />
  <path stroke-width="2.50" stroke="grey" d="M 471.87 846.53 L 468.91 893.63" />
  <path stroke-width="2.50" stroke="grey" d="M 553.95 867.06 L 553.99 866.28" />
  <path stroke-width="2.50" stroke="grey" d="M 553.95 867.06 L 553.95 840.69" />
  <path stroke-width="2.50" stroke="grey" d="M 553.95 867.06 L 541.23 785.41" />
  <path stroke-width="2.50" stroke="grey" d="M 553.95 867.06 L 553.95 900.89" />
  <path stroke-width="2.50" stroke="grey" d="M 553.95 867.06 L 625.31 871.93" />
  <path stroke-width="2.50" stroke="grey" d="M 553.95 867.06 L 688.80 872.98" />
  <path stroke-width="2.50" stroke="grey" d="M 553.95 867.06 L 646.51 875.23" />
  <path stroke-width="2.50" stroke="grey" d="M 553.95 867.06 L 600.98 909.03" />
  <path stroke-width="2.50" stroke="grey" d="M 553.95 867.06 L 553.95 909.12" />
  <path stroke-width="2.50" stroke="grey" d="M 553.95 867.06 L 553.95 913.50" />
  <path stroke-width="2.50" stroke="grey" d="M 553.95 867.06 L 553.95 806.36" />
  <path stroke-width="2.50" stroke="grey" d="M 553.95 867.06 L 649.89 833.40" />
  <path stroke-width="2.50" stroke="grey" d="M 553.95 867.06 L 708.11 834.81" />
  <path stroke-width="2.50" stroke="grey" d="M 553.95 867.06 L 562.32 901.40" />
  <path stroke-width="2.50" stroke="grey" d="M 553.95 867.06 L 553.95 904.02" />
  <path stroke-width="2.50" stroke="grey" d="M 553.95 867.06 L 553.95 916.01" />
  <path stroke-width="2.50" stroke="grey" d="M 553.95 867.06 L 697.60 995.84" />
  <path stroke-width="2.50" stroke="grey" d="M 695.87 976.08 L 662.33 978.26" />
  <path stroke-width="2.50" stroke="grey" d="M 695.87 976.08 L 613.66 969.88" />
  <path stroke-width="2.50" stroke="grey" d="M 695.87 976.08 L 643.32 974.05" />
  <path stroke-width="2.50" stroke="grey" d="M 695.87 976.08 L 647.25 972.47" />
  <path stroke-width="2.50" stroke="grey" d="M 695.87 976.08 L 683.56 976.73" />
  <path stroke-width="2.50" stroke="grey" d="M 695.87 976.08 L 691.19 839.91" />
  <path stroke-width="2.50" stroke="grey" d="M 695.87 976.08 L 741.03 856.54" />
  <path stroke-width="2.50" stroke="grey" d="M 695.87 976.08 L 621.94 865.16" />
  <path stroke-width="2.50" stroke="grey" d="M 695.87 976.08 L 640.73 840.73" />
  <path stroke-width="2.50" stroke="grey" d="M 695.87 976.08 L 696.55 1012.49" />
  <path stroke-width="2.50" stroke="grey" d="M 695.87 976.08 L 663.72 976.30" />
  <path stroke-width="2.50" stroke="grey" d="M 695.87 976.08 L 751.92 974.98" />
  <path stroke-width="2.50" stroke="grey" d="M 695.87 976.08 L 805.42 980.69" />
  <path stroke-width="2.50" stroke="grey" d="M 695.87 976.08 L 820.40 980.59" />
  <path stroke-width="2.50" stroke="grey" d="M 695.87 976.08 L 743.10 975.26" />
  <path stroke-width="2.50" stroke="grey" d="M 757.65 985.74 L 755.31 984.58" />
  <path stroke-width="2.50" stroke="grey" d="M 757.65 985.74 L 759.19 980.47" />
  <path stroke-width="2.50" stroke="grey" d="M 757.65 985.74 L 747.59 863.95" />
  <path stroke-width="2.50" stroke="grey" d="M 757.65 985.74 L 768.11 1024.21" />
  <path stroke-width="2.50" stroke="grey" d="M 757.65 985.74 L 808.65 889.75" />
  <path stroke-width="2.50" stroke="grey" d="M 845.42 1002.55 L 819.26 878.72" />
  <path stroke-width="2.50" stroke="grey" d="M 845.42 1002.55 L 840.67 815.37" />
  <path stroke-width="2.50" stroke="grey" d="M 845.42 1002.55 L 860.54 743.27" />
  <path stroke-width="2.50" stroke="grey" d="M 845.42 1002.55 L 894.65 705.83" />
  <path stroke-width="2.50" stroke="grey" d="M 845.42 1002.55 L 891.30 825.36" />
  <path stroke-width="2.50" stroke="grey" d="M 845.42 1002.55 L 911.46 908.48" />
  <path stroke-width="2.50" stroke="grey" d="M 845.42 1002.55 L 943.00 979.35" />
  <path stroke-width="2.50" stroke="grey" d="M 845.42 1002.55 L 939.67 1053.69" />
  <path stroke-width="2.50" stroke="grey" d="M 845.42 1002.55 L 884.12 1040.54" />
  <path stroke-width="2.50" stroke="grey" d="M 845.42 1002.55 L 847.73 1037.22" />
  <path stroke-width="2.50" stroke="grey" d="M 845.42 1002.55 L 820.07 1033.70" />
  <path stroke-width="2.50" stroke="grey" d="M 845.42 1002.55 L 824.78 995.74" />
  <path stroke-width="2.50" stroke="grey" d="M 845.42 1002.55 L 850.74 991.75" />
  <path stroke-width="2.50" stroke="grey" d="M 845.42 1002.55 L 876.94 989.91" />
  <path stroke-width="2.50" stroke="grey" d="M 845.42 1002.55 L 934.16 990.05" />
  <path stroke-width="2.50" stroke="grey" d="M 845.42 1002.55 L 948.46 999.75" />
  <path stroke-width="2.50" stroke="grey" d="M 845.42 1002.55 L 917.41 1003.25" />
  <path stroke-width="2.50" stroke="grey" d="M 845.42 1002.55 L 888.49 1003.85" />
  <path stroke-width="2.50" stroke="grey" d="M 845.42 1002.55 L 880.99 996.23" />
  <path stroke-width="2.50" stroke="grey" d="M 845.42 1002.55 L 828.35 999.32" />
  <path stroke-width="2.50" stroke="grey" d="M 845.42 1002.55 L 815.70 1002.45" />
  <path stroke-width="2.50" stroke="grey" d="M 845.42 1002.55 L 858.02 1026.55" />
  <path stroke-width="2.50" stroke="grey" d="M 845.42 1002.55 L 841.31 996.18" />
  <path stroke-width="2.50" stroke="grey" d="M 845.42 1002.55 L 844.11 973.80" />
  <path stroke-width="2.50" stroke="grey" d="M 845.42 1002.55 L 853.32 946.82" />
  <path stroke-width="2.50" stroke="grey" d="M 845.42 1002.55 L 854.77 843.80" />
  <path stroke-width="2.50" stroke="grey" d="M 845.42 1002.55 L 886.96 734.78" />
  <path stroke-width="2.50" stroke="grey" d="M 845.42 1002.55 L 868.52 820.78" />
  <path stroke-width="2.50" stroke="grey" d="M 845.42 1002.55 L 865.27 900.96" />
  <path stroke-width="2.50" stroke="grey" d="M 845.42 1002.55 L 881.49 945.37" />
  <path stroke-width="2.50" stroke="grey" d="M 845.42 1002.55 L 867.73 1013.78" />
  <path stroke-width="2.50" stroke="grey" d="M 845.42 1002.55 L 872.04 1036.82" />
  <path stroke-width="2.50" stroke="grey" d="M 1004.20 1043.92 L 986.60 1039.43" />
  <path stroke-width="2.50" stroke="grey" d="M 1004.20 1043.92 L 996.86 1039.43" />
  <path stroke-width="2.50" stroke="grey" d="M 1004.20 1043.92 L 989.22 1060.51" />
  <path stroke-width="2.50" stroke="grey" d="M 1004.20 1043.92 L 996.66 1055.60" />
  <path stroke-width="2.50" stroke="grey" d="M 1004.20 1043.92 L 978.61 1043.94" />
  <path stroke-width="2.50" stroke="grey" d="M 1004.20 1043.92 L 1060.15 1041.88" />
  <path stroke-width="2.50" stroke="grey" d="M 1004.20 1043.92 L 1004.20 1052.29" />
  <path stroke-width="2.50" stroke="grey" d="M 1004.20 1043.92 L 1004.20 1045.87" />
  <path stroke-width="2.50" stroke="grey" d="M 1004.20 1043.92 L 1004.20 1037.07" />
  <path stroke-width="2.50" stroke="grey" d="M 1004.20 1043.92 L 1002.39 988.61" />
  <path stroke-width="2.50" stroke="grey" d="M 1004.20 1043.92 L 998.19 1064.07" />
  <path stroke-width="2.50" stroke="grey" d="M 1004.20 1043.92 L 1022.38 1135.90" />
  <path stroke-width="2.50" stroke="grey" d="M 1070.76 1102.40 L 1070.76 1067.26" />
  <path stroke-width="2.50" stroke="grey" d="M 1070.76 1102.40 L 1070.76 1063.74" />
  <path stroke-width="2.50" stroke="grey" d="M 1070.76 1102.40 L 1070.76 1101.85" />
  <path stroke-width="2.50" stroke="grey" d="M 1070.76 1102.40 L 1070.76 1093.85" />
  <path stroke-width="2.50" stroke="grey" d="M 1070.76 1102.40 L 1070.76 1093.27" />
  <path stroke-width="2.50" stroke="grey" d="M 1070.76 1102.40 L 1070.76 1084.83" />
  <path stroke-width="2.50" stroke="grey" d="M 1070.76 1102.40 L 1070.76 1091.96" />
  <path stroke-width="2.50" stroke="grey" d="M 1070.76 1102.40 L 1048.82 1102.01" />
  <path stroke-width="2.50" stroke="grey" d="M 1070.76 1102.40 L 1061.84 1068.15" />
  <path stroke-width="2.50" stroke="grey" d="M 1070.76 1102.40 L 1070.76 988.05" />
  <path stroke-width="2.50" stroke="grey" d="M 1070.76 1102.40 L 1070.76 994.64" />
  <path stroke-width="2.50" stroke="grey" d="M 1070.76 1102.40 L 1070.76 1001.78" />
  <path stroke-width="2.50" stroke="grey" d="M 1070.76 1102.40 L 1070.76 1050.05" />
  <path stroke-width="2.50" stroke="grey" d="M 1070.76 1102.40 L 1070.76 1086.67" />
  <path stroke-width="2.50" stroke="grey" d="M 1070.76 1102.40 L 1070.76 1139.75" />
  <path stroke-width="2.50" stroke="grey" d="M 1070.76 1102.40 L 1058.25 1134.76" />
  <path stroke-width="2.50" stroke="grey" d="M 1070.76 1102.40 L 1051.63 1106.32" />
  <path stroke-width="2.50" stroke="grey" d="M 1070.76 1102.40 L 1039.73 1103.99" />
  <path stroke-width="2.50" stroke="grey" d="M 1070.76 1102.40 L 1113.52 1105.18" />
  <path stroke-width="2.50" stroke="grey" d="M 1070.76 1102.40 L 1141.36 1104.66" />
  <path stroke-width="2.50" stroke="grey" d="M 1070.76 1102.40 L 1139.57 1110.68" />
  <path stroke-width="2.50" stroke="grey" d="M 1070.76 1102.40 L 1144.34 1115.77" />
  <path stroke-width="2.50" stroke="grey" d="M 1070.76 1102.40 L 1080.70 1104.12" />
  <path stroke-width="2.50" stroke="grey" d="M 1116.05 1103.89 L 1099.90 1138.55" />
  <path stroke-width="2.50" stroke="grey" d="M 1116.05 1103.89 L 1110.69 1189.01" />
  <path stroke-width="2.50" stroke="grey" d="M 1116.05 1103.89 L 1115.48 1040.46" />
  <path stroke-width="2.50" stroke="grey" d="M 1116.05 1103.89 L 1128.41 1111.90" />
  <path stroke-width="2.50" stroke="grey" d="M 1116.05 1103.89 L 1116.05 1108.21" />
  <path stroke-width="2.50" stroke="grey" d="M 1116.05 1103.89 L 1117.61 1078.84" />
  <path stroke-width="2.50" stroke="grey" d="M 1116.05 1103.89 L 1102.65 1025.02" />
  <path stroke-width="2.50" stroke="grey" d="M 1116.05 1103.89 L 1108.94 1077.60" />
  <path stroke-width="2.50" stroke="grey" d="M 1116.05 1103.89 L 1129.35 1124.66" />
  <path stroke-width="2.50" stroke="grey" d="M 1116.05 1103.89 L 1121.87 1144.57" />
  <path stroke-width="2.50" stroke="grey" d="M 1116.05 1103.89 L 1115.26 1189.62" />
  <path stroke-width="2.50" stroke="grey" d="M 1116.05 1103.89 L 1123.39 1142.26" />
  <path stroke-width="2.50" stroke="grey" d="M 1116.05 1103.89 L 1131.97 1131.96" />
  <path stroke-width="2.50" stroke="grey" d="M 1116.05 1103.89 L 1156.87 1105.43" />
  <path stroke-width="2.50" stroke="grey" d="M 1116.05 1103.89 L 1167.22 1107.20" />
  <path stroke-width="2.50" stroke="grey" d="M 1116.05 1103.89 L 1222.79 1108.59" />
  <path stroke-width="2.50" stroke="grey" d="M 1116.05 1103.89 L 1201.09 1112.47" />
  <path stroke-width="2.50" stroke="grey" d="M 1116.05 1103.89 L 1158.49 1098.02" />
  <path stroke-width="2.50" stroke="grey" d="M 1116.05 1103.89 L 1206.07 1093.87" />
  <path stroke-width="2.50" stroke="grey" d="M 1116.05 1103.89 L 1193.21 1140.36" />
  <path stroke-width="2.50" stroke="grey" d="M 1246.83 1109.16 L 1246.83 1077.94" />
  <path stroke-width="2.50" stroke="grey" d="M 1246.83 1109.16 L 1241.73 1109.66" />
  <path stroke-width="2.50" stroke="grey" d="M 1246.83 1109.16 L 1241.87 1137.76" />
  <path stroke-width="2.50" stroke="grey" d="M 1246.83 1109.16 L 1246.83 1106.24" />
  <path stroke-width="2.50" stroke="grey" d="M 1246.83 1109.16 L 1246.83 1108.57" />
  <path stroke-width="2.50" stroke="grey" d="M 1246.83 1109.16 L 1246.83 1115.81" />
  <path stroke-width="2.50" stroke="grey" d="M 1246.83 1109.16 L 1276.59 1114.17" />
  <path stroke-width="2.50" stroke="grey" d="M 1246.83 1109.16 L 1293.73 1115.75" />
  <path stroke-width="2.50" stroke="grey" d="M 1246.83 1109.16 L 1280.05 1083.80" />
  <path stroke-width="2.50" stroke="grey" d="M 1304.48 1110.80 L 1304.48 1109.81" />
  <path stroke-width="2.50" stroke="grey" d="M 1304.48 1110.80 L 1314.80 1110.66" />
  <path stroke-width="2.50" stroke="grey" d="M 1304.48 1110.80 L 1308.07 1082.24" />
  <path stroke-width="2.50" stroke="grey" d="M 1304.48 1110.80 L 1300.47 1138.55" />
  <path stroke-width="2.50" stroke="grey" d="M 1304.48 1110.80 L 1321.16 1112.08" />
  <path stroke-width="2.50" stroke="grey" d="M 1304.48 1110.80 L 1351.98 1115.71" />
  <path stroke-width="2.50" stroke="grey" d="M 1304.48 1110.80 L 1338.65 1111.99" />
  <path stroke-width="2.50" stroke="grey" d="M 1396.40 1118.95 L 1399.22 1117.24" />
  <path stroke-width="2.50" stroke="grey" d="M 1396.40 1118.95 L 1398.25 1144.31" />
  <path stroke-width="2.50" stroke="grey" d="M 1396.40 1118.95 L 1401.91 1059.95" />
  <path stroke-width="2.50" stroke="grey" d="M 1461.15 1123.55 L 1453.58 1148.34" />
  <path stroke-width="2.50" stroke="grey" d="M 1461.15 1123.55 L 1461.15 1070.02" />
  <path stroke-width="2.50" stroke="grey" d="M 1461.15 1123.55 L 1461.15 1123.81" />
  <path stroke-width="2.50" stroke="grey" d="M 1461.15 1123.55 L 1438.16 1123.25" />
  <path stroke-width="2.50" stroke="grey" d="M 1461.15 1123.55 L 1474.99 1124.14" />
  <path stroke-width="2.50" stroke="grey" d="M 1461.15 1123.55 L 1494.36 1121.18" />
  <path stroke-width="2.50" stroke="grey" d="M 1461.15 1123.55 L 1524.51 1118.14" />
  <path stroke-width="2.50" stroke="grey" d="M 1461.15 1123.55 L 1537.37 1123.23" />
  <path stroke-width="2.50" stroke="grey" d="M 1461.15 1123.55 L 1509.41 1071.35" />
  <path stroke-width="2.50" stroke="grey" d="M 1461.15 1123.55 L 1435.52 1124.58" />
  <path stroke-width="2.50" stroke="grey" d="M 1537.40 1123.15 L 1537.40 1121.83" />
  <path stroke-width="2.50" stroke="grey" d="M 1537.40 1123.15 L 1537.40 1143.49" />
  <path stroke-width="2.50" stroke="grey" d="M 1537.40 1123.15 L 1537.40 1068.44" />
  <path stroke-width="2.50" stroke="grey" d="M 1537.40 1123.15 L 1565.43 1122.34" />
  <path stroke-width="2.50" stroke="grey" d="M 1537.40 1123.15 L 1605.66 1121.43" />
  <path stroke-width="2.50" stroke="grey" d="M 1537.40 1123.15 L 1583.25 1124.06" />
  <path stroke-width="2.50" stroke="grey" d="M 1537.40 1123.15 L 1651.86 1125.94" />
  <path stroke-width="2.50" stroke="grey" d="M 1537.40 1123.15 L 1588.11 1076.70" />
  <path stroke-width="2.50" stroke="grey" d="M 1537.40 1123.15 L 1621.69 1146.67" />
  <path stroke-width="2.50" stroke="grey" d="M 1662.25 1122.82 L 1590.94 1119.99" />
  <path stroke-width="2.50" stroke="grey" d="M 1662.25 1122.82 L 1612.88 1129.52" />
  <path stroke-width="2.50" stroke="grey" d="M 1662.25 1122.82 L 1658.06 1125.05" />
  <path stroke-width="2.50" stroke="grey" d="M 1662.25 1122.82 L 1662.25 1113.84" />
  <path stroke-width="2.50" stroke="grey" d="M 1662.25 1122.82 L 1662.25 1115.42" />
  <path stroke-width="2.50" stroke="grey" d="M 1662.25 1122.82 L 1662.25 1123.50" />
  <path stroke-width="2.50" stroke="grey" d="M 1662.25 1122.82 L 1662.25 1123.78" />
  <path stroke-width="2.50" stroke="grey" d="M 1662.25 1122.82 L 1662.25 1097.59" />
  <path stroke-width="2.50" stroke="grey" d="M 1662.25 1122.82 L 1662.25 1148.57" />
  <path stroke-width="2.50" stroke="grey" d="M 1662.25 1122.82 L 1662.25 1106.39" />
  <path stroke-width="2.50" stroke="grey" d="M 1662.25 1122.82 L 1662.25 1107.51" />
  <path stroke-width="2.50" stroke="grey" d="M 1662.25 1122.82 L 1662.25 1082.16" />
  <path stroke-width="2.50" stroke="grey" d="M 1662.25 1122.82 L 1662.25 1087.99" />
  <path stroke-width="2.50" stroke="grey" d="M 1662.25 1122.82 L 1662.25 1110.98" />
  <path stroke-width="2.50" stroke="grey" d="M 1662.25 1127.08 L 1662.25 1122.83" />
  <path stroke-width="2.50" stroke="grey" d="M 1662.25 1127.08 L 1653.21 1126.79" />
  <path stroke-width="2.50" stroke="grey" d="M 1662.25 1127.08 L 1611.36 1131.50" />
  <path stroke-width="2.50" stroke="grey" d="M 1662.25 1127.08 L 1596.37 1130.80" />
  <path stroke-width="2.50" stroke="grey" d="M 1662.25 1127.08 L 1637.40 1128.78" />
  <path stroke-width="2.50" stroke="grey" d="M 1662.25 1127.08 L 1636.38 1097.51" />
  <path stroke-width="2.50" stroke="grey" d="M 1662.25 1127.08 L 1653.54 1150.78" />
  <path stroke-width="2.50" stroke="grey" d="M 1662.25 1127.08 L 1620.86 1159.94" />
  <path stroke-width="2.50" stroke="grey" d="M 1662.25 1127.08 L 1592.79 1100.93" />
  <path stroke-width="2.50" stroke="grey" d="M 1662.25 1127.08 L 1636.90 1128.76" />
  <path stroke-width="2.50" stroke="grey" d="M 1599.29 1139.50 L 1617.60 1099.39" />
  <path stroke-width="2.50" stroke="grey" d="M 1599.29 1139.50 L 1616.02 1160.77" />
  <path stroke-width="2.50" stroke="grey" d="M 1599.29 1139.50 L 1650.44 1160.46" />
  <path stroke-width="2.50" stroke="grey" d="M 1599.29 1139.50 L 1690.27 1093.89" />
  <path stroke-width="2.50" stroke="grey" d="M 1599.29 1139.50 L 1599.29 1137.54" />
  <path stroke-width="2.50" stroke="grey" d="M 1599.29 1139.50 L 1615.69 1140.40" />
  <path stroke-width="2.50" stroke="grey" d="M 1599.29 1139.50 L 1665.38 1134.03" />
  <path stroke-width="2.50" stroke="grey" d="M 1599.29 1139.50 L 1757.97 1138.99" />
  <path stroke-width="2.50" stroke="grey" d="M 1599.29 1139.50 L 1637.83 1137.12" />
  <path stroke-width="2.50" stroke="grey" d="M 1599.29 1139.50 L 1701.38 1135.66" />
  <path stroke-width="2.50" stroke="grey" d="M 1793.01 1137.99 L 1796.28 1122.53" />
  <path stroke-width="2.50" stroke="grey" d="M 1793.01 1137.99 L 1793.72 1101.01" />
  <path stroke-width="2.50" stroke="grey" d="M 1793.01 1137.99 L 1793.38 1134.54" />
  <path stroke-width="2.50" stroke="grey" d="M 1793.01 1137.99 L 1793.01 1145.33" />
  <path stroke-width="2.50" stroke="grey" d="M 1793.01 1137.99 L 1793.01 1159.48" />
  <path stroke-width="2.50" stroke="grey" d="M 1793.01 1137.99 L 1793.01 1178.03" />
  <path stroke-width="2.50" stroke="grey" d="M 1793.01 1137.99 L 1789.50 1177.75" />
  <path stroke-width="2.50" stroke="grey" d="M 1793.01 1137.99 L 1786.72 1177.64" />
  <path stroke-width="2.50" stroke="grey" d="M 1793.01 1137.99 L 1792.09 1149.56" />
  <path stroke-width="2.50" stroke="grey" d="M 1793.01 1137.99 L 1793.30 1137.89" />
  <path stroke-width="2.50" stroke="grey" d="M 1793.01 1137.99 L 1807.75 1138.39" />
  <path stroke-width="2.50" stroke="grey" d="M 1793.01 1137.99 L 1857.74 1140.10" />
  <path stroke-width="2.50" stroke="grey" d="M 1793.01 1137.99 L 1795.08 1100.65" />
  <path stroke-width="2.50" stroke="grey" d="M 1793.01 1137.99 L 1793.01 1181.56" />
  <path stroke-width="2.50" stroke="grey" d="M 1793.01 1137.99 L 1823.96 1139.47" />
  <path stroke-width="2.50" stroke="grey" d="M 1793.01 1137.99 L 1883.61 1144.41" />
  <path stroke-width="2.50" stroke="grey" d="M 1899.94 1149.71 L 1864.35 1189.26" />
  <path stroke-width="2.50" stroke="grey" d="M 1899.94 1149.71 L 1807.21 1183.95" />
  <path stroke-width="2.50" stroke="grey" d="M 1899.94 1149.71 L 1831.80 1195.29" />
  <path stroke-width="2.50" stroke="grey" d="M 1899.94 1149.71 L 1857.88 1102.74" />
  <path stroke-width="2.50" stroke="grey" d="M 1899.94 1149.71 L 1828.65 1102.79" />
  <path stroke-width="2.50" stroke="grey" d="M 1899.94 1149.71 L 1905.87 1103.06" />
  <path stroke-width="2.50" stroke="grey" d="M 1899.94 1149.71 L 1948.94 1101.06" />
  <path stroke-width="2.50" stroke="grey" d="M 1899.94 1149.71 L 1913.56 1152.99" />
  <path stroke-width="2.50" stroke="grey" d="M 1899.94 1149.71 L 1947.56 1156.18" />
  <path stroke-width="2.50" stroke="grey" d="M 1899.94 1149.71 L 2008.17 1159.81" />
  <path stroke-width="2.50" stroke="grey" d="M 1899.94 1149.71 L 1899.94 1145.38" />
  <path stroke-width="2.50" stroke="grey" d="M 1899.94 1149.71 L 1960.81 1169.71" />
  <path stroke-width="2.50" stroke="grey" d="M 1899.94 1149.71 L 1944.64 1165.70" />
  <path stroke-width="2.50" stroke="grey" d="M 1899.94 1149.71 L 1879.39 1144.89" />
  <path stroke-width="2.50" stroke="grey" d="M 1899.94 1149.71 L 1900.96 1198.18" />
  <path stroke-width="2.50" stroke="grey" d="M 1899.94 1149.71 L 1962.61 1205.36" />
  <path stroke-width="2.50" stroke="grey" d="M 1899.94 1149.71 L 1997.42 1206.82" />
  <path stroke-width="2.50" stroke="grey" d="M 1899.94 1149.71 L 1899.94 1091.15" />
  <path stroke-width="2.50" stroke="grey" d="M 1899.94 1149.71 L 1899.94 1126.91" />
  <path stroke-width="2.50" stroke="grey" d="M 1899.94 1149.71 L 1899.94 1099.35" />
  <path stroke-width="2.50" stroke="grey" d="M 1899.94 1149.71 L 1899.94 1111.45" />
  <path stroke-width="2.50" stroke="grey" d="M 1899.94 1149.71 L 1899.94 1109.89" />
  <path stroke-width="2.50" stroke="grey" d="M 1899.94 1149.71 L 1934.78 1102.47" />
  <path stroke-width="2.50" stroke="grey" d="M 2013.53 1180.12 L 2013.53 1100.95" />
  <path stroke-width="2.50" stroke="grey" d="M 2013.53 1180.12 L 2018.09 1208.39" />
  <path stroke-width="2.50" stroke="grey" d="M 2013.53 1180.12 L 2059.19 1244.01" />
  <path stroke-width="2.50" stroke="grey" d="M 2013.53 1180.12 L 2068.39 1227.94" />
  <path stroke-width="2.50" stroke="grey" d="M 2013.53 1180.12 L 2013.53 1097.41" />
  <path stroke-width="2.50" stroke="grey" d="M 2013.53 1180.12 L 2021.80 1178.98" />
  <path stroke-width="2.50" stroke="grey" d="M 2013.53 1180.12 L 2045.93 1180.58" />
  <path stroke-width="2.50" stroke="grey" d="M 2013.53 1180.12 L 2077.74 1187.61" />
  <path stroke-width="2.50" stroke="grey" d="M 2013.53 1180.12 L 2013.53 1180.36" />
  <path stroke-width="2.50" stroke="grey" d="M 2069.26 1193.36 L 2058.16 1243.17" />
  <path stroke-width="2.50" stroke="grey" d="M 2069.26 1193.36 L 2067.06 1227.92" />
  <path stroke-width="2.50" stroke="grey" d="M 2069.26 1193.36 L 2069.26 1112.59" />
  <path stroke-width="2.50" stroke="grey" d="M 2069.26 1193.36 L 2069.26 1195.44" />
  <path stroke-width="2.50" stroke="grey" d="M 2069.26 1193.36 L 2089.83 1196.02" />
  <path stroke-width="2.50" stroke="grey" d="M 2069.26 1193.36 L 2077.91 1191.94" />
  <path stroke-width="2.50" stroke="grey" d="M 2069.26 1193.36 L 2118.04 1201.13" />
  <path stroke-width="2.50" stroke="grey" d="M 2069.26 1193.36 L 2139.36 1207.99" />
  <path stroke-width="2.50" stroke="grey" d="M 2150.62 1200.79 L 2150.94 1128.45" />
  <path stroke-width="2.50" stroke="grey" d="M 2150.62 1200.79 L 2144.53 1250.57" />
  <path stroke-width="2.50" stroke="grey" d="M 2150.62 1200.79 L 2131.93 1234.56" />
  <path stroke-width="2.50" stroke="grey" d="M 2150.62 1200.79 L 2202.48 1256.43" />
  <path stroke-width="2.50" stroke="grey" d="M 2150.62 1200.79 L 2116.63 1196.72" />
  <path stroke-width="2.50" stroke="grey" d="M 2150.62 1200.79 L 2144.70 1203.61" />
  <path stroke-width="2.50" stroke="grey" d="M 2150.62 1200.79 L 2169.65 1202.95" />
  <path stroke-width="2.50" stroke="grey" d="M 2150.62 1200.79 L 2206.79 1203.28" />
  <path stroke-width="2.50" stroke="grey" d="M 2150.62 1200.79 L 2165.95 1198.78" />
  <path stroke-width="2.50" stroke="grey" d="M 2329.57 1227.74 L 2329.57 1228.42" />
  <path stroke-width="2.50" stroke="grey" d="M 2329.57 1227.74 L 2329.57 1207.81" />
  <path stroke-width="2.50" stroke="grey" d="M 2329.57 1227.74 L 2329.57 1231.05" />
  <path stroke-width="2.50" stroke="grey" d="M 2329.57 1227.74 L 2255.81 1217.69" />
  <path stroke-width="2.50" stroke="grey" d="M 2329.57 1227.74 L 2284.03 1223.79" />
  <path stroke-width="2.50" stroke="grey" d="M 2329.57 1227.74 L 2351.43 1227.40" />
  <path stroke-width="2.50" stroke="grey" d="M 2329.57 1227.74 L 2329.57 1168.05" />
  <path stroke-width="2.50" stroke="grey" d="M 2329.57 1227.74 L 2329.57 1160.85" />
  <path stroke-width="2.50" stroke="grey" d="M 2329.57 1227.74 L 2329.57 1177.88" />
  <path stroke-width="2.50" stroke="grey" d="M 2329.57 1227.74 L 2280.53 1265.98" />
  <path stroke-width="2.50" stroke="grey" d="M 2329.57 1227.74 L 2308.67 1262.84" />
  <path stroke-width="2.50" stroke="grey" d="M 2329.57 1227.74 L 2401.93 1266.94" />
  <path stroke-width="2.50" stroke="grey" d="M 2329.57 1227.74 L 2368.16 1197.59" />
  <path stroke-width="2.50" stroke="grey" d="M 2329.57 1227.74 L 2354.09 1231.65" />
  <path stroke-width="2.50" stroke="grey" d="M 2329.57 1227.74 L 2369.57 1233.22" />
  <path stroke-width="2.50" stroke="grey" d="M 2329.57 1227.74 L 2395.32 1235.80" />
  <path stroke-width="2.50" stroke="grey" d="M 2329.57 1227.74 L 2426.15 1248.68" />
  <path stroke-width="2.50" stroke="grey" d="M 2437.44 1251.13 L 2437.44 1253.77" />
  <path stroke-width="2.50" stroke="grey" d="M 2437.44 1251.13 L 2437.44 1267.51" />
  <path stroke-width="2.50" stroke="grey" d="M 2437.44 1251.13 L 2448.75 1224.47" />
  <path stroke-width="2.50" stroke="grey" d="M 2437.44 1251.13 L 2454.71 1304.32" />
  <path stroke-width="2.50" stroke="grey" d="M 2437.44 1251.13 L 2460.82 1250.97" />
  <path stroke-width="2.50" stroke="grey" d="M 2437.44 1251.13 L 2465.58 1253.95" />
  <path stroke-width="2.50" stroke="grey" d="M 2437.44 1251.13 L 2479.06 1263.97" />
  <path stroke-width="2.50" stroke="grey" d="M 2478.02 1260.75 L 2456.55 1254.49" />
  <path stroke-width="2.50" stroke="grey" d="M 2478.02 1260.75 L 2498.25 1257.89" />
  <path stroke-width="2.50" stroke="grey" d="M 2478.02 1260.75 L 2478.02 1261.24" />
  <path stroke-width="2.50" stroke="grey" d="M 2478.02 1260.75 L 2511.27 1190.17" />
  <path stroke-width="2.50" stroke="grey" d="M 2478.02 1260.75 L 2471.69 1298.21" />
  <path stroke-width="2.50" stroke="grey" d="M 2530.11 1260.49 L 2530.11 1264.22" />
  <path stroke-width="2.50" stroke="grey" d="M 2530.11 1260.49 L 2483.44 1266.77" />
  <path stroke-width="2.50" stroke="grey" d="M 2530.11 1260.49 L 2568.65 1272.96" />
  <path stroke-width="2.50" stroke="grey" d="M 2530.11 1260.49 L 2529.91 1180.54" />
  <path stroke-width="2.50" stroke="grey" d="M 2530.11 1260.49 L 2530.17 1182.22" />
  <path stroke-width="2.50" stroke="grey" d="M 2530.11 1260.49 L 2530.11 1204.09" />
  <path stroke-width="2.50" stroke="grey" d="M 2530.11 1260.49 L 2492.86 1301.02" />
  <path stroke-width="2.50" stroke="grey" d="M 2530.11 1260.49 L 2569.31 1305.22" />
  <path stroke-width="2.50" stroke="grey" d="M 2530.11 1260.49 L 2596.41 1319.38" />
  <path stroke-width="2.50" stroke="grey" d="M 2530.11 1260.49 L 2564.93 1276.71" />
  <path stroke-width="2.50" stroke="grey" d="M 2530.11 1260.49 L 2562.43 1272.35" />
  <path stroke-width="2.50" stroke="grey" d="M 2530.11 1260.49 L 2579.69 1288.86" />
  <path stroke-width="2.50" stroke="grey" d="M 2530.11 1260.49 L 2589.83 1249.31" />
  <path stroke-width="2.50" stroke="grey" d="M 2530.11 1260.49 L 2603.91 1279.26" />
  <path stroke-width="2.50" stroke="grey" d="M 2530.11 1260.49 L 2616.61 1319.64" />
  <path stroke-width="2.50" stroke="grey" d="M 2530.11 1260.49 L 2616.52 1322.42" />
  <path stroke-width="2.50" stroke="grey" d="M 2530.11 1260.49 L 2581.29 1289.19" />
  <path stroke-width="2.50" stroke="grey" d="M 2530.11 1260.49 L 2601.15 1310.38" />
  <path stroke-width="2.50" stroke="grey" d="M 2615.84 1321.56 L 2591.98 1313.66" />
  <path stroke-width="2.50" stroke="grey" d="M 2615.84 1321.56 L 2603.64 1318.85" />
  <path stroke-width="2.50" stroke="grey" d="M 2615.84 1321.56 L 2605.14 1353.04" />
  <path stroke-width="2.50" stroke="grey" d="M 2615.84 1321.56 L 2597.34 1320.30" />
  <path stroke-width="2.50" stroke="grey" d="M 2615.84 1321.56 L 2571.35 1304.83" />
  <path stroke-width="2.50" stroke="grey" d="M 2615.84 1321.56 L 2580.65 1223.61" />
  <path stroke-width="2.50" stroke="grey" d="M 2615.84 1321.56 L 2575.78 1241.15" />
  <path stroke-width="2.50" stroke="grey" d="M 2615.84 1321.56 L 2612.95 1283.17" />
  <path stroke-width="2.50" stroke="grey" d="M 2615.84 1321.56 L 2601.89 1257.83" />
  <path stroke-width="2.50" stroke="grey" d="M 2615.84 1321.56 L 2586.88 1224.82" />
  <path stroke-width="2.50" stroke="grey" d="M 2615.84 1321.56 L 2581.08 1249.03" />
  <path stroke-width="2.50" stroke="grey" d="M 2615.84 1321.56 L 2546.22 1235.45" />
  <path stroke-width="2.50" stroke="grey" d="M 2615.84 1321.56 L 2526.94 1250.58" />
  <path stroke-width="2.50" stroke="grey" d="M 2615.84 1321.56 L 2572.11 1305.31" />
  <path stroke-width="2.50" stroke="grey" d="M 2615.84 1321.56 L 2601.81 1322.55" />
  <path stroke-width="2.50" stroke="grey" d="M 2615.84 1321.56 L 2604.83 1350.79" />
  <path stroke-width="2.50" stroke="grey" d="M 2615.84 1321.56 L 2608.42 1354.45" />
  <path stroke-width="2.50" stroke="grey" d="M 2615.84 1321.56 L 2623.62 1340.18" />
  <path stroke-width="2.50" stroke="grey" d="M 2615.84 1321.56 L 2589.47 1329.24" />
  <path stroke-width="2.50" stroke="grey" d="M 2615.84 1321.56 L 2544.16 1329.41" />
  <path stroke-width="2.50" stroke="grey" d="M 2615.84 1321.56 L 2574.69 1323.38" />
  <path stroke-width="2.50" stroke="grey" d="M 2615.84 1321.56 L 2610.37 1322.89" />
  <path stroke-width="2.50" stroke="grey" d="M 2615.84 1321.56 L 2631.92 1319.65" />
  <path stroke-width="2.50" stroke="grey" d="M 2615.84 1321.56 L 2658.45 1338.35" />
  <path stroke-width="2.50" stroke="grey" d="M 2615.84 1321.56 L 2724.15 1329.05" />
  <path stroke-width="2.50" stroke="grey" d="M 2615.84 1321.56 L 2672.25 1331.66" />
  <path stroke-width="2.50" stroke="grey" d="M 2615.84 1321.56 L 2644.54 1332.58" />
  <path stroke-width="2.50" stroke="grey" d="M 2615.84 1321.56 L 2581.38 1333.72" />
</g>
<g id="scrap_0">
<g id="points">
</g>
<g id="lines">
  <path stroke="#ff0000" stroke-width="2.50" fill="none" class="wall" d="M 304.12 327.45 L 297.35 345.54 L 295.25 362.34 L 294.20 379.03 L 294.20 398.17 L 294.08 417.54 L 292.10 437.03 L 289.53 459.55 L 288.48 484.05 L 288.02 506.57 L 286.85 529.45 L 286.27 548.58 L 286.50 568.19 L 286.73 586.86 L 285.80 607.75 L 284.16 627.58 L 283.46 647.19 L 285.10 664.58 L 286.73 681.96 L 288.13 698.53 L 287.90 717.90 L 287.43 734.71 L 287.43 756.06 L 286.97 774.97 L 286.15 795.97 L 287.08 815.11" />
  <path stroke="#ff0000" stroke-width="2.50" fill="none" class="wall" d="M 408.38 718.47 L 419.95 720.86 L 432.73 722.51 L 443.33 722.28" />
  <path stroke="#ff0000" stroke-width="2.50" fill="none" class="wall" d="M 472.63 284.85 L 464.98 295.83 L 462.06 308.59 L 459.86 323.80 L 457.91 336.89 L 455.47 349.82 L 451.32 367.14 L 446.69 383.32 L 444.49 395.03 L 443.03 408.86 L 442.38 421.14 L 441.08 434.39 L 439.21 446.35 L 437.50 460.90 L 436.12 477.82 L 435.47 491.56 L 433.84 503.51 L 431.89 516.85 L 429.29 532.38 L 427.17 547.02 L 425.63 561.25 L 423.76 573.94 L 421.07 588.09 L 417.33 602.48 L 415.14 614.11 L 413.43 627.69 L 410.83 644.11 L 408.55 661.52 L 408.14 674.28 L 408.63 686.81 L 408.23 700.39 L 405.38 714.62 L 405.38 722.10" />
  <path stroke="#ff0000" stroke-width="2.50" fill="none" class="wall" d="M 305.28 329.98 L 322.12 331.77 L 335.04 336.08 L 346.59 335.67 L 358.30 332.42 L 370.17 325.99 L 382.29 320.55 L 397.25 314.53 L 408.31 309.65 L 419.20 304.69 L 432.05 296.80 L 446.20 289.08 L 459.62 285.09 L 475.07 283.46" />
  <path stroke="#ff0000" stroke-width="2.50" fill="none" class="wall" d="M 441.20 720.73 L 450.80 720.55 L 460.53 721.29 L 471.18 723.01 L 482.82 724.86 L 493.41 727.32 L 503.08 729.91 L 512.87 732.43 L 521.55 735.94 L 527.95 739.76" />
  <path stroke="#ff0000" stroke-width="2.50" fill="none" class="wall" d="M 288.16 814.51 L 289.00 818.51 L 296.39 821.03 L 303.79 823.07 L 312.11 824.65 L 319.13 825.96 L 325.88 826.33 L 332.62 826.42 L 339.79 826.51 L 346.72 826.47 L 353.69 826.24 L 360.67 826.33 L 367.51 826.70 L 375.46 827.44 L 382.72 827.72 L 389.83 828.75 L 396.90 829.86" />
  <path stroke="#ff0000" stroke-width="2.50" fill="none" class="wall" d="M 392.78 826.87 L 403.98 826.71 L 415.26 826.17 L 427.00 826.17" />
  <path stroke="#ff0000" stroke-width="2.50" fill="none" class="wall" d="M 440.14 809.79 L 439.99 817.74 L 439.94 826.74 L 440.04 834.13 L 440.35 843.24 L 440.65 850.63 L 441.26 860.09 L 441.66 869.65 L 442.07 877.44 L 442.37 885.84 L 442.88 894.49" />
  <path stroke="#ff0000" stroke-width="2.50" fill="none" class="wall" d="M 425.07 827.81 L 432.91 822.44 L 439.99 817.23" />
  <path stroke="#ff0000" stroke-width="2.50" fill="none" class="wall" d="M 524.99 737.23 L 527.32 744.72 L 526.96 752.16 L 522.76 758.44 L 516.79 765.27 L 510.57 771.24 L 504.90 776.45 L 497.37 780.29 L 496.10 787.83 L 498.23 795.42 L 501.46 801.54 L 505.76 807.21 L 509.31 813.74 L 512.14 820.62" />
  <path stroke="#ff0000" stroke-width="2.50" fill="none" class="wall" d="M 516.49 824.06 L 512.39 824.31 L 512.09 832.71 L 512.14 840.35 L 512.54 850.07" />
  <path stroke="#ff0000" stroke-width="2.50" fill="none" class="wall" d="M 438.64 890.91 L 446.86 890.75 L 455.57 891.50 L 464.87 892.48 L 476.18 892.48 L 487.38 892.69 L 499.60 893.45 L 512.91 894.53 L 525.95 895.29 L 537.42 895.94 L 544.88 897.02 L 556.24 897.78" />
  <path stroke="#ff0000" stroke-width="2.50" fill="none" class="wall" d="M 511.67 840.49 L 521.95 839.24 L 533.68 838.11 L 543.75 838.32 L 551.59 838.32 L 559.43 838.49" />
  <path stroke="#ff0000" stroke-width="2.50" fill="none" class="wall" d="M 558.84 835.56 L 568.09 832.37 L 575.18 828.91 L 581.78 824.85 L 594.54 819.28 L 602.50 816.30 L 611.48 812.30 L 619.27 808.73 L 628.25 805.27" />
  <path stroke="#ff0000" stroke-width="2.50" fill="none" class="wall" d="M 630.90 803.97 L 639.98 808.51 L 646.48 813.06 L 653.18 818.63 L 659.08 824.80 L 662.65 832.91" />
  <path stroke="#ff0000" stroke-width="2.50" fill="none" class="wall" d="M 559.65 897.89 L 567.50 903.24 L 574.96 907.79 L 582.53 911.74 L 589.30 915.90" />
  <path stroke="#ff0000" stroke-width="2.50" fill="none" class="wall" d="M 587.02 916.17 L 588.48 915.74 L 589.03 924.72 L 589.78 934.03 L 590.76 942.57 L 591.95 951.55 L 592.49 962.10 L 592.33 972.17 L 591.89 980.28" />
  <path stroke="#ff0000" stroke-width="2.50" fill="none" class="wall" d="M 658.64 829.38 L 665.46 832.52 L 673.04 834.20 L 680.46 835.39 L 689.98 836.69 L 697.72 837.23 L 706.76 838.10 L 715.21 838.86 L 722.84 840.48 L 729.66 844.76 L 733.29 852.61 L 737.13 860.56" />
  <path stroke="#ff0000" stroke-width="2.50" fill="none" class="wall" d="M 589.73 977.06 L 598.99 978.36 L 607.71 980.09 L 615.18 982.37 L 622.38 985.18 L 629.68 988.21 L 638.02 991.78 L 645.65 994.92 L 655.56 998.39 L 663.46 1000.88 L 671.80 1003.96 L 679.86 1006.62 L 688.96 1008.46 L 696.70 1009.11" />
  <path stroke="#ff0000" stroke-width="2.50" fill="none" class="wall" d="M 890.85 663.94 L 886.44 673.81 L 883.50 682.77 L 881.50 689.18" />
  <path stroke="#ff0000" stroke-width="2.50" fill="none" class="wall" d="M 873.96 707.35 L 869.64 719.64 L 867.13 728.23 L 865.66 733.16" />
  <path stroke="#ff0000" stroke-width="2.50" fill="none" class="wall" d="M 914.24 665.27 L 911.58 675.89 L 910.82 680.21" />
  <path stroke="#ff0000" stroke-width="2.50" fill="none" class="wall" d="M 907.55 691.22 L 906.98 700.71 L 907.12 706.12" />
  <path stroke="#ff0000" stroke-width="2.50" fill="none" class="wall" d="M 867.55 732.78 L 865.61 740.52 L 864.33 747.02 L 862.48 755.46 L 860.91 763.29 L 857.83 774.40 L 855.12 784.50 L 852.94 790.91 L 850.19 797.93 L 847.15 803.67 L 842.98 811.64 L 838.90 820.47 L 835.77 829.39 L 831.97 838.64 L 829.46 846.66 L 827.27 854.91 L 825.80 861.98 L 824.43 870.43 L 822.67 878.97 L 819.45 886.66 L 816.36 892.78" />
  <path stroke="#ff0000" stroke-width="2.50" fill="none" class="wall" d="M 737.13 850.50 L 742.21 858.14 L 746.95 865.54 L 752.64 872.57 L 758.72 877.26 L 765.12 880.77 L 773.00 884.33 L 779.78 887.70 L 788.04 890.12 L 796.34 890.88 L 804.26 891.07 L 812.28 890.36 L 819.02 887.80 L 824.24 884.09" />
  <path stroke="#ff0000" stroke-width="2.50" fill="none" class="wall" d="M 700.93 1005.85 L 707.48 1011.82 L 715.50 1014.96 L 723.99 1016.19 L 732.86 1016.66 L 740.93 1016.57 L 749.18 1016.66 L 755.92 1016.66 L 764.27 1017.52 L 773.57 1018.94 L 782.58 1021.12 L 790.98 1023.54 L 800.52 1027.29 L 806.83 1030.61 L 813.47 1033.56 L 820.82 1036.35 L 829.46 1039.15 L 838.90 1040.58 L 847.20 1041.15 L 856.31 1041.00 L 864.71 1040.72 L 871.68 1041.29 L 879.08 1043.19 L 885.54 1045.75 L 893.41 1048.03 L 902.66 1050.97 L 912.34 1053.25 L 920.60 1054.67 L 928.80 1055.81 L 936.02 1057.42" />
  <path stroke="#ff0000" stroke-width="2.50" fill="none" class="wall" d="M 919.79 914.94 L 924.96 920.87 L 928.38 927.46 L 930.89 933.91 L 933.50 940.94 L 935.97 949.05 L 938.29 956.07 L 940.52 962.72 L 943.13 970.88 L 945.22 979.27" />
  <path stroke="#ff0000" stroke-width="2.50" fill="none" class="wall" d="M 905.37 704.08 L 905.04 711.43 L 906.08 718.22 L 906.79 725.62 L 906.79 732.93 L 905.84 742.65 L 904.09 751.34 L 902.24 760.21 L 900.01 771.07 L 897.92 781.42 L 896.59 791.24 L 895.88 799.88 L 895.69 808.27 L 895.88 815.72 L 897.02 822.98 L 898.63 831.43 L 900.48 839.68 L 902.52 848.22 L 904.37 855.77 L 906.89 864.64 L 909.68 874.61 L 911.11 882.96" />
  <path stroke="#ff0000" stroke-width="2.50" fill="none" class="wall" d="M 909.83 875.17 L 912.58 882.53 L 915.43 890.22 L 917.18 898.00 L 918.79 908.20 L 920.22 917.83 L 920.64 921.48" />
  <path stroke="#ff0000" stroke-width="2.50" fill="none" class="wall" d="M 946.34 976.43 L 953.82 980.76 L 961.77 982.51 L 970.48 983.45 L 979.48 984.27 L 988.42 984.62 L 997.01 984.97 L 1001.27 986.78" />
  <path stroke="#ff0000" stroke-width="2.50" fill="none" class="wall" d="M 934.48 1056.32 L 942.66 1057.96 L 951.37 1058.89 L 959.96 1059.13 L 968.67 1059.19 L 976.61 1058.31 L 985.44 1056.79 L 985.50 1065.21 L 985.26 1073.80 L 985.50 1083.09 L 986.08 1092.85 L 986.43 1103.25 L 987.13 1113.54 L 987.72 1123.35 L 989.00 1133.99 L 989.82 1139.60" />
  <path stroke="#ff0000" stroke-width="2.50" fill="none" class="wall" d="M 1003.08 987.01 L 1007.94 993.38" />
  <path stroke="#ff0000" stroke-width="2.50" fill="none" class="wall" d="M 1034.30 988.35 L 1028.49 990.29 L 1020.67 991.30 L 1014.14 991.97 L 1007.12 992.56" />
  <path stroke="#ff0000" stroke-width="2.50" fill="none" class="wall" d="M 991.76 1136.23 L 998.68 1134.79 L 1006.37 1134.26 L 1015.83 1133.78 L 1023.14 1133.30 L 1032.03 1133.01 L 1042.46 1132.91 L 1050.15 1133.30 L 1057.11 1133.78 L 1065.33 1134.26 L 1073.69 1134.45 L 1081.24 1134.50 L 1087.97 1134.60 L 1095.32 1134.45 L 1102.38 1133.88 L 1104.21 1140.94 L 1105.65 1147.91 L 1106.80 1156.03 L 1107.86 1164.39 L 1108.05 1172.56 L 1108.05 1180.78 L 1108.53 1187.75" />
  <path stroke="#ff0000" stroke-width="2.50" fill="none" class="wall" d="M 1128.57 1142.52 L 1128.82 1151.36 L 1128.45 1160.57 L 1128.20 1171.74 L 1128.14 1181.94 L 1128.39 1191.15" />
  <path stroke="#ff0000" stroke-width="2.50" fill="none" class="wall" d="M 1033.29 987.11 L 1041.82 985.33 L 1052.50 984.23 L 1063.12 983.67 L 1071.90 983.49 L 1080.13 986.31 L 1087.87 990.61 L 1093.21 997.61 L 1097.75 1006.94 L 1100.33 1015.79 L 1103.89 1024.69 L 1108.86 1033.71 L 1113.35 1040.90" />
  <path stroke="#ff0000" stroke-width="2.50" fill="none" class="wall" d="M 1107.47 1186.26 L 1115.79 1186.26 L 1124.06 1186.26 L 1129.46 1187.16" />
  <path stroke="#ff0000" stroke-width="2.50" fill="none" class="wall" d="M 1210.35 1096.28 L 1204.32 1094.87 L 1199.40 1095.04 L 1194.45 1095.69 L 1189.91 1095.69 L 1185.31 1095.54 L 1180.12 1095.89 L 1174.82 1096.71 L 1170.31 1096.86 L 1165.77 1097.39 L 1161.31 1098.27 L 1157.21 1098.91 L 1153.46 1099.26" />
  <path stroke="#ff0000" stroke-width="2.50" fill="none" class="wall" d="M 1109.87 1036.31 L 1113.39 1039.29 L 1115.47 1042.87 L 1116.96 1048.38 L 1117.37 1052.89 L 1117.37 1057.05 L 1117.14 1061.50 L 1117.11 1065.81 L 1117.02 1070.61 L 1116.79 1074.86 L 1118.08 1079.28 L 1119.95 1083.12 L 1122.76 1086.46 L 1126.51 1088.80 L 1130.41 1090.91 L 1134.80 1092.85 L 1138.99 1094.72 L 1142.89 1095.89 L 1147.31 1096.83 L 1152.67 1097.12 L 1156.80 1097.18" />
  <path stroke="#ff0000" stroke-width="2.50" fill="none" class="wall" d="M 1242.46 1095.24 L 1233.50 1094.81 L 1224.11 1094.75 L 1215.51 1094.56 L 1206.67 1094.13" />
  <path stroke="#ff0000" stroke-width="2.50" fill="none" class="wall" d="M 1245.10 1081.17 L 1243.75 1085.13 L 1242.76 1089.60 L 1241.44 1094.03 L 1238.81 1097.35" />
  <path stroke="#ff0000" stroke-width="2.50" fill="none" class="wall" d="M 1133.36 1143.13 L 1141.77 1140.43 L 1150.37 1139.51 L 1159.39 1139.39 L 1170.45 1140.12 L 1181.37 1140.86 L 1192.18 1142.46" />
  <path stroke="#ff0000" stroke-width="2.50" fill="none" class="wall" d="M 1173.19 1139.46 L 1177.67 1140.28 L 1182.42 1140.50 L 1188.30 1140.83 L 1193.63 1140.99 L 1198.30 1141.05 L 1202.17 1140.86 L 1207.99 1140.42 L 1212.55 1139.84" />
  <path stroke="#ff0000" stroke-width="2.50" fill="none" class="wall" d="M 1221.92 1138.52 L 1227.19 1137.86 L 1233.45 1137.31 L 1238.45 1137.01 L 1243.01 1136.82 L 1247.49 1136.74 L 1252.18 1136.90 L 1257.70 1137.40 L 1262.40 1137.40" />
  <path stroke="#ff0000" stroke-width="2.50" fill="none" class="wall" d="M 1189.99 1141.10 L 1195.73 1140.38 L 1202.18 1140.15 L 1209.43 1140.07 L 1215.89 1140.22 L 1222.41 1140.26 L 1229.06 1139.39 L 1236.20 1138.82 L 1242.00 1138.33 L 1248.38 1137.98 L 1256.24 1137.41 L 1262.88 1137.11 L 1270.74 1137.00 L 1279.21 1136.69 L 1286.61 1136.54 L 1293.10 1136.35 L 1298.65 1136.05 L 1301.07 1135.86" />
  <path stroke="#ff0000" stroke-width="2.50" fill="none" class="wall" d="M 1278.71 1083.35 L 1285.09 1083.73 L 1290.41 1083.77 L 1296.03 1083.54 L 1301.99 1083.35 L 1308.14 1083.08 L 1311.89 1082.78" />
  <path stroke="#ff0000" stroke-width="2.50" fill="none" class="wall" d="M 1246.44 1081.31 L 1247.84 1077.98 L 1251.63 1075.76 L 1255.29 1074.22 L 1260.06 1073.07 L 1264.49 1073.15 L 1268.69 1074.30 L 1272.59 1076.01 L 1276.02 1078.37 L 1279.84 1082.43" />
  <path stroke="#ff0000" stroke-width="2.50" fill="none" class="wall" d="M 1310.31 1083.31 L 1313.60 1079.41 L 1317.00 1074.83 L 1320.93 1070.35 L 1324.12 1065.95 L 1325.94 1060.91" />
  <path stroke="#ff0000" stroke-width="2.50" fill="none" class="wall" d="M 1327.87 1058.87 L 1333.78 1055.82 L 1339.18 1054.11 L 1344.76 1053.28 L 1351.45 1053.14 L 1356.96 1053.25 L 1362.83 1054.11 L 1369.06 1055.11 L 1375.21 1055.90 L 1381.83 1056.68 L 1390.67 1057.11 L 1396.40 1057.18 L 1401.69 1057.47 L 1406.02 1059.15" />
  <path stroke="#ff0000" stroke-width="2.50" fill="none" class="wall" d="M 1300.39 1134.73 L 1305.55 1134.83 L 1311.70 1134.98 L 1317.07 1135.05 L 1322.51 1135.69 L 1329.56 1136.77 L 1337.46 1137.91 L 1343.94 1138.91 L 1349.49 1139.56 L 1355.86 1140.20 L 1363.01 1140.77 L 1370.28 1141.20 L 1376.68 1141.63 L 1382.12 1141.85 L 1387.70 1142.06 L 1393.82 1142.71 L 1399.69 1143.57 L 1402.51 1143.67" />
  <path stroke="#ff0000" stroke-width="2.50" fill="none" class="wall" d="M 1401.92 1060.47 L 1407.25 1061.15 L 1412.59 1063.01 L 1417.85 1064.58 L 1423.62 1066.09 L 1429.67 1067.73 L 1435.22 1069.02 L 1441.63 1070.46 L 1447.29 1071.75 L 1452.91 1072.25 L 1455.27 1072.68" />
  <path stroke="#ff0000" stroke-width="2.50" fill="none" class="wall" d="M 1396.04 1143.12 L 1401.67 1144.48 L 1408.00 1145.91 L 1413.88 1146.70 L 1419.00 1147.27 L 1424.26 1148.13 L 1431.14 1148.77 L 1437.94 1149.13 L 1443.63 1149.35 L 1450.01 1149.63 L 1454.91 1150.13" />
  <path stroke="#ff0000" stroke-width="2.50" fill="none" class="wall" d="M 1788.74 1179.76 L 1798.22 1180.97 L 1807.15 1183.39 L 1816.21 1187.37 L 1825.02 1191.72 L 1834.74 1195.34 L 1844.22 1197.15 L 1853.40 1196.67 L 1862.46 1193.71 L 1870.07 1189.55" />
  <path stroke="#ff0000" stroke-width="2.50" fill="none" class="wall" d="M 1790.73 1179.82 L 1781.07 1179.58 L 1774.19 1179.10" />
  <path stroke="#ff0000" stroke-width="2.50" fill="none" class="wall" d="M 1449.72 1073.04 L 1462.79 1071.59 L 1474.25 1071.51 L 1486.73 1072.82 L 1498.13 1074.27 L 1511.04 1076.16 L 1521.20 1077.32 L 1531.29 1078.19 L 1542.61 1078.77 L 1555.02 1078.77 L 1565.90 1078.92 L 1576.71 1079.35 L 1588.11 1079.50 L 1599.07 1079.64 L 1611.04 1079.79" />
  <path stroke="#ff0000" stroke-width="2.50" fill="none" class="wall" d="M 1942.10 1103.38 L 1930.56 1103.50 L 1920.84 1104.23 L 1911.06 1105.19 L 1899.59 1105.92 L 1889.99 1106.40 L 1880.39 1106.40 L 1871.27 1106.04 L 1862.64 1105.31 L 1852.86 1104.95 L 1843.38 1104.29 L 1832.45 1104.17 L 1821.10 1104.17 L 1810.29 1103.56 L 1801.78 1102.66 L 1792.60 1100.97 L 1782.22 1098.79 L 1771.59 1096.62 L 1760.66 1094.63 L 1750.52 1092.93 L 1738.26 1090.82" />
  <path stroke="#ff0000" stroke-width="2.50" fill="none" class="wall" d="M 1741.12 1092.54 L 1732.53 1092.43 L 1724.67 1092.38 L 1715.66 1092.38 L 1705.91 1092.38 L 1696.32 1092.80 L 1687.05 1092.28 L 1679.24 1090.39 L 1670.49 1088.03 L 1662.63 1085.20 L 1653.78 1082.42 L 1644.45 1080.69 L 1635.39 1079.28 L 1626.53 1077.92 L 1617.94 1077.71 L 1607.77 1077.55 L 1599.49 1076.66" />
  <path stroke="#ff0000" stroke-width="2.50" fill="none" class="wall" d="M 1617.15 1155.84 L 1624.38 1156.57 L 1633.40 1157.51 L 1642.51 1157.93 L 1650.42 1157.67 L 1657.60 1154.95" />
  <path stroke="#ff0000" stroke-width="2.50" fill="none" class="wall" d="M 1649.32 1156.26 L 1658.07 1154.79 L 1665.93 1154.21 L 1673.69 1152.85 L 1680.92 1152.17 L 1690.72 1152.38 L 1699.47 1153.43 L 1708.58 1155.21 L 1716.60 1157.25 L 1726.82 1160.45 L 1734.52 1163.17 L 1742.22 1165.27 L 1751.39 1168.26 L 1759.83 1171.14 L 1770.36 1174.18 L 1778.85 1177.27 L 1784.82 1180.68" />
  <path stroke="#ff0000" stroke-width="2.50" fill="none" class="wall" d="M 1451.39 1150.11 L 1461.26 1147.93 L 1471.49 1145.61 L 1484.19 1144.01 L 1495.37 1143.72 L 1508.36 1143.58 L 1522.51 1143.51 L 1532.74 1143.65 L 1544.28 1143.21 L 1555.38 1143.07 L 1569.39 1143.43 L 1584.12 1143.87 L 1598.27 1145.17" />
  <path stroke="#ff0000" stroke-width="2.50" fill="none" class="wall" d="M 1858.44 1192.75 L 1865.97 1189.78 L 1873.90 1188.13 L 1882.65 1187.91 L 1891.01 1189.78 L 1898.77 1192.97 L 1906.64 1196.38 L 1914.62 1198.69 L 1923.59 1200.56 L 1931.40 1202.10 L 1940.53 1203.76 L 1950.49 1204.86 L 1960.23 1205.08 L 1970.03 1205.08 L 1981.64 1203.59 L 1991.10 1202.05 L 2000.07 1199.57" />
  <path stroke="#cccccc" stroke-width="2.50" fill="none" class="user" d="M 1868.24 1128.19 L 1863.58 1125.82 L 1858.60 1123.17 L 1853.83 1120.60 L 1849.14 1118.06 L 1844.16 1115.10 L 1839.84 1112.04 L 1836.40 1108.49 L 1832.61 1103.47 L 1828.60 1098.43 L 1824.50 1092.89 L 1819.80 1087.99 L 1816.39 1084.40 L 1811.79 1080.50 L 1807.48 1075.80" />
  <path stroke="#cccccc" stroke-width="2.50" fill="none" class="user" d="M 1877.61 1109.77 L 1872.35 1109.60 L 1866.71 1108.42 L 1861.21 1105.01 L 1856.76 1101.14 L 1852.62 1095.78 L 1848.68 1091.36 L 1844.54 1085.20 L 1840.23 1078.45 L 1836.54 1072.67 L 1831.67 1065.22 L 1827.07 1057.91 L 1823.56 1052.31 L 1821.02 1050.01" />
  <path stroke="#cccccc" stroke-width="2.50" fill="none" class="user" d="M 1786.91 980.54 L 1786.05 969.12 L 1792.27 958.88 L 1800.74 954.43 L 1810.02 954.37 L 1817.20 958.93 L 1821.33 967.08 L 1822.83 977.16 L 1821.55 985.47 L 1815.60 994.37 L 1810.29 1003.49 L 1811.41 1009.38" />
  <path stroke="#cccccc" stroke-width="2.50" fill="none" class="user" d="M 1813.77 1029.17 L 1813.08 1027.35 L 1820.15 1027.94 L 1816.29 1030.89 L 1809.70 1031.80" />
  <path stroke="#ff0000" stroke-width="2.50" fill="none" class="wall" d="M 1943.89 1098.11 L 1952.79 1097.76 L 1961.57 1096.78 L 1969.72 1096.26 L 1978.79 1095.79 L 1986.88 1095.74 L 1995.26 1096.31 L 2003.87 1098.28" />
  <path stroke="#ff0000" stroke-width="2.50" fill="none" class="wall" d="M 2002.08 1195.43 L 2009.19 1200.64 L 2014.91 1207.74 L 2018.84 1214.85 L 2021.85 1223.18 L 2025.95 1231.27 L 2030.63 1238.72 L 2035.54 1244.50" />
  <path stroke="#ff0000" stroke-width="2.50" fill="none" class="wall" d="M 2006.14 1097.57 L 2016.28 1103.28 L 2028.08 1105.50 L 2039.41 1108.03 L 2051.38 1111.68 L 2064.13 1114.05 L 2077.83 1117.06 L 2091.30 1118.33 L 2104.69 1119.92 L 2116.65 1122.13 L 2128.38 1124.51 L 2140.81 1127.36 L 2154.04 1132.12" />
  <path stroke="#ff0000" stroke-width="2.50" fill="none" class="wall" d="M 2037.99 1245.49 L 2050.03 1245.41 L 2061.28 1239.39" />
  <path stroke="#ff0000" stroke-width="2.50" fill="none" class="wall" d="M 2070.39 1225.13 L 2064.76 1235.35 L 2055.10 1241.21" />
  <path stroke="#ff0000" stroke-width="2.50" fill="none" class="wall" d="M 2069.75 1225.76 L 2084.81 1226.16 L 2097.32 1227.27 L 2109.36 1229.17 L 2120.85 1230.43 L 2130.99 1233.60 L 2139.15 1241.53 L 2148.82 1247.23 L 2160.86 1250.40 L 2173.06 1251.51 L 2185.10 1253.41 L 2198.09 1255.47" />
  <path stroke="#ff0000" stroke-width="2.50" fill="none" class="wall" d="M 2319.04 1169.64 L 2310.48 1166.29 L 2301.11 1164.49 L 2292.61 1163.07 L 2282.07 1161.89 L 2271.34 1161.89 L 2266.07 1162.20" />
  <path stroke="#ff0000" stroke-width="2.50" fill="none" class="wall" d="M 2155.91 1133.98 L 2164.16 1137.26 L 2173.59 1140.74 L 2183.39 1144.15 L 2194.99 1147.50 L 2203.49 1149.24 L 2212.60 1150.48 L 2223.89 1152.09 L 2234.37 1153.21 L 2244.24 1154.82 L 2255.40 1156.06 L 2265.76 1156.93 L 2276.05 1158.29 L 2281.33 1158.91" />
  <path stroke="#ff0000" stroke-width="2.50" fill="none" class="wall" d="M 2197.34 1255.61 L 2207.39 1255.37 L 2217.50 1256.36 L 2227.12 1257.23 L 2238.16 1258.34 L 2248.58 1259.96 L 2259.25 1262.19 L 2269.42 1264.67 L 2279.59 1266.78" />
  <path stroke="#ff0000" stroke-width="2.50" fill="none" class="wall" d="M 2276.80 1264.98 L 2287.03 1265.11 L 2297.08 1264.67 L 2307.56 1264.42 L 2313.02 1264.92" />
  <path stroke="#ff0000" stroke-width="2.50" fill="none" class="wall" d="M 2538.61 1166.12 L 2539.16 1175.37 L 2539.83 1183.28 L 2541.45 1191.14 L 2546.01 1197.49 L 2552.25 1202.72 L 2558.49 1208.24 L 2565.29 1213.14 L 2572.53 1218.54 L 2578.60 1223.89 L 2582.72 1230.80 L 2586.17 1238.71 L 2589.13 1247.01 L 2592.69 1254.81 L 2596.42 1262.55 L 2600.27 1269.79 L 2603.94 1277.92 L 2607.45 1285.22 L 2611.24 1293.30" />
  <path stroke="#ff0000" stroke-width="2.50" fill="none" class="wall" d="M 2304.15 1266.71 L 2313.88 1266.50 L 2326.18 1266.50 L 2339.03 1266.77 L 2349.16 1266.91 L 2360.32 1267.05 L 2370.92 1267.45 L 2380.44 1267.86 L 2390.91 1269.49 L 2401.18 1272.08" />
  <path stroke="#ff0000" stroke-width="2.50" fill="none" class="wall" d="M 2367.86 1269.83 L 2377.52 1267.25 L 2389.62 1266.57 L 2400.16 1266.64 L 2409.95 1267.45 L 2420.69 1268.41 L 2431.23 1270.04 L 2441.63 1272.89 L 2452.31 1277.65 L 2461.15 1284.04 L 2469.85 1290.16 L 2478.42 1294.65 L 2488.41 1297.92 L 2498.14 1299.55 L 2509.97 1300.64 L 2519.96 1301.18 L 2530.98 1301.45 L 2540.56 1301.72 L 2550.15 1302.40 L 2561.44 1303.08 L 2571.23 1305.26" />
  <path stroke="#ff0000" stroke-width="2.50" fill="none" class="wall" d="M 2567.62 1305.46 L 2577.55 1306.42 L 2586.59 1309.82 L 2594.41 1317.23 L 2601.48 1324.10" />
  <path stroke="#ff0000" stroke-width="2.50" fill="none" class="wall" d="M 2325.77 1167.50 L 2335.84 1168.58 L 2346.85 1171.92 L 2355.42 1176.88 L 2362.63 1183.07 L 2367.45 1192.04 L 2368.27 1200.20" />
  <path stroke="#ff0000" stroke-width="2.50" fill="none" class="wall" d="M 2371.94 1195.85 L 2381.32 1201.02 L 2391.73 1205.30 L 2401.38 1209.45 L 2411.31 1214.21 L 2421.30 1218.16 L 2431.98 1222.23 L 2441.23 1225.63 L 2452.24 1224.68 L 2462.37 1222.57 L 2472.71 1218.16 L 2482.09 1212.38 L 2490.25 1207.34 L 2498.20 1201.02 L 2506.57 1194.15 L 2513.57 1187.49 L 2520.23 1179.67 L 2523.36 1171.98" />
  <path stroke="#ff0000" stroke-width="2.50" fill="none" class="wall" d="M 2527.78 1145.06 L 2523.23 1156.41 L 2521.59 1166.55 L 2521.12 1173.14" />
  <path stroke="#ff0000" stroke-width="2.50" fill="none" class="wall" d="M 2540.29 1140.91 L 2540.90 1153.97 L 2540.22 1165.05" />
  <path stroke="#ff0000" stroke-width="2.50" fill="none" class="wall" d="M 2511.73 1074.82 L 2520.78 1067.54 L 2528.73 1072.91 L 2530.16 1087.74 L 2529.75 1099.84" />
</g>
<g id="areas">
</g>
</g>
<g id="xsections">
</g>
<g id="stations">
<text font-size="32" fill="violet" stroke="none" text-anchor="middle" x="291.85" y="802.88" >0</text>
<text font-size="32" fill="violet" stroke="none" text-anchor="middle" x="439.96" y="807.25" >1</text>
<text font-size="32" fill="violet" stroke="none" text-anchor="middle" x="471.87" y="846.53" >2</text>
<text font-size="32" fill="violet" stroke="none" text-anchor="middle" x="553.95" y="867.06" >3</text>
<text font-size="32" fill="violet" stroke="none" text-anchor="middle" x="695.87" y="976.08" >4</text>
<text font-size="32" fill="violet" stroke="none" text-anchor="middle" x="757.65" y="985.74" >5</text>
<text font-size="32" fill="violet" stroke="none" text-anchor="middle" x="845.42" y="1002.55" >6</text>
<text font-size="32" fill="violet" stroke="none" text-anchor="middle" x="1004.20" y="1043.92" >7</text>
<text font-size="32" fill="violet" stroke="none" text-anchor="middle" x="1070.76" y="1102.40" >8</text>
<text font-size="32" fill="violet" stroke="none" text-anchor="middle" x="1116.05" y="1103.89" >9</text>
<text font-size="32" fill="violet" stroke="none" text-anchor="middle" x="1246.83" y="1109.16" >10</text>
<text font-size="32" fill="violet" stroke="none" text-anchor="middle" x="1304.48" y="1110.80" >11</text>
<text font-size="32" fill="violet" stroke="none" text-anchor="middle" x="1396.40" y="1118.95" >12</text>
<text font-size="32" fill="violet" stroke="none" text-anchor="middle" x="1461.15" y="1123.55" >13</text>
<text font-size="32" fill="violet" stroke="none" text-anchor="middle" x="1537.40" y="1123.15" >14</text>
<text font-size="32" fill="violet" stroke="none" text-anchor="middle" x="1662.25" y="1122.82" >15</text>
<text font-size="32" fill="violet" stroke="none" text-anchor="middle" x="1662.25" y="1127.08" >16</text>
<text font-size="32" fill="violet" stroke="none" text-anchor="middle" x="1599.29" y="1139.50" >17</text>
<text font-size="32" fill="violet" stroke="none" text-anchor="middle" x="1793.01" y="1137.99" >18</text>
<text font-size="32" fill="violet" stroke="none" text-anchor="middle" x="1899.94" y="1149.71" >19</text>
<text font-size="32" fill="violet" stroke="none" text-anchor="middle" x="2013.53" y="1180.12" >20</text>
<text font-size="32" fill="violet" stroke="none" text-anchor="middle" x="2069.26" y="1193.36" >21</text>
<text font-size="32" fill="violet" stroke="none" text-anchor="middle" x="2150.62" y="1200.79" >22</text>
<text font-size="32" fill="violet" stroke="none" text-anchor="middle" x="2329.57" y="1227.74" >23</text>
<text font-size="32" fill="violet" stroke="none" text-anchor="middle" x="2437.44" y="1251.13" >24</text>
<text font-size="32" fill="violet" stroke="none" text-anchor="middle" x="2478.02" y="1260.75" >25</text>
<text font-size="32" fill="violet" stroke="none" text-anchor="middle" x="2530.11" y="1260.49" >26</text>
<text font-size="32" fill="violet" stroke="none" text-anchor="middle" x="2615.84" y="1321.56" >27</text>
</g>
</svg>
