<svg xmlns:i="http://ns.adobe.com/AdobeIllustrator/10.0/" xmlns:dc="http://purl.org/dc/elements/1.1/" xmlns:cc="http://creativecommons.org/ns#" xmlns:rdf="http://www.w3.org/1999/02/22-rdf-syntax-ns#" xmlns:svg="http://www.w3.org/2000/svg" xmlns="http://www.w3.org/2000/svg" xmlns:xlink="http://www.w3.org/1999/xlink" xmlns:sodipodi="http://sodipodi.sourceforge.net/DTD/sodipodi-0.dtd" xmlns:inkscape="http://www.inkscape.org/namespaces/inkscape" 
 width="1288pt" height="1075pt"
  version="1.1"
  id="svg46"
  sodipodi:docname="Pestera_Piciorul_Beni_din_mina-4p.svg"
  inkscape:version="0.92.4 (5da689c313, 2019-01-14)">
<!-- SVG created by TopoDroid v. 6.0.92 -->
  <sodipodi:namedview pagecolor="#ffffff" bordercolor="#666666" borderopacity="1" objecttolerance="10" gridtolerance="10" guidetolerance="10" inkscape:pageopacity="0" inkscape:pageshadow="2" inkscape:window-width="auto" inkscape:window-height="auto" id="namedview48" showgrid="false" inkscape:zoom="1" inkscape:cx="auto" inkscape:cy="auto" inkscape:window-x="0" inkscape:window-y="0" inkscape:window-maximized="1" inkscape:current-layer="w2d_Walls_shp" showborder="false"/>
  <defs>
    <marker id="Triangle" viewBox="0 0 10 10" refX="0" refY="5" 
      markerUnits="strokeWidth" markerWidth="4" markerHeight="3" orient="auto" >
      <path d="M 0 0 L 10 5 L 0 10 z" />
    </marker>
  </defs>
<g id="grid"
  style="fill:none;stroke-opacity:0.4" >
<g id="grid1"
 style="fill:none;stroke-opacity:0.4;stroke-width=2.50;stroke:#666666" >
  <path stroke-width="2.50" stroke="#999999" d="M 5.74 0.00 L 5.74 1524.87" />
  <path stroke-width="2.50" stroke="#999999" d="M 34.09 0.00 L 34.09 1524.87" />
  <path stroke-width="2.50" stroke="#999999" d="M 62.43 0.00 L 62.43 1524.87" />
  <path stroke-width="2.50" stroke="#999999" d="M 119.13 0.00 L 119.13 1524.87" />
  <path stroke-width="2.50" stroke="#999999" d="M 147.47 0.00 L 147.47 1524.87" />
  <path stroke-width="2.50" stroke="#999999" d="M 175.82 0.00 L 175.82 1524.87" />
  <path stroke-width="2.50" stroke="#999999" d="M 204.16 0.00 L 204.16 1524.87" />
  <path stroke-width="2.50" stroke="#999999" d="M 232.51 0.00 L 232.51 1524.87" />
  <path stroke-width="2.50" stroke="#999999" d="M 260.86 0.00 L 260.86 1524.87" />
  <path stroke-width="2.50" stroke="#999999" d="M 289.20 0.00 L 289.20 1524.87" />
  <path stroke-width="2.50" stroke="#999999" d="M 317.55 0.00 L 317.55 1524.87" />
  <path stroke-width="2.50" stroke="#999999" d="M 345.90 0.00 L 345.90 1524.87" />
  <path stroke-width="2.50" stroke="#999999" d="M 402.59 0.00 L 402.59 1524.87" />
  <path stroke-width="2.50" stroke="#999999" d="M 430.94 0.00 L 430.94 1524.87" />
  <path stroke-width="2.50" stroke="#999999" d="M 459.28 0.00 L 459.28 1524.87" />
  <path stroke-width="2.50" stroke="#999999" d="M 487.63 0.00 L 487.63 1524.87" />
  <path stroke-width="2.50" stroke="#999999" d="M 515.98 0.00 L 515.98 1524.87" />
  <path stroke-width="2.50" stroke="#999999" d="M 544.32 0.00 L 544.32 1524.87" />
  <path stroke-width="2.50" stroke="#999999" d="M 572.67 0.00 L 572.67 1524.87" />
  <path stroke-width="2.50" stroke="#999999" d="M 601.02 0.00 L 601.02 1524.87" />
  <path stroke-width="2.50" stroke="#999999" d="M 629.36 0.00 L 629.36 1524.87" />
  <path stroke-width="2.50" stroke="#999999" d="M 686.05 0.00 L 686.05 1524.87" />
  <path stroke-width="2.50" stroke="#999999" d="M 714.40 0.00 L 714.40 1524.87" />
  <path stroke-width="2.50" stroke="#999999" d="M 742.75 0.00 L 742.75 1524.87" />
  <path stroke-width="2.50" stroke="#999999" d="M 771.09 0.00 L 771.09 1524.87" />
  <path stroke-width="2.50" stroke="#999999" d="M 799.44 0.00 L 799.44 1524.87" />
  <path stroke-width="2.50" stroke="#999999" d="M 827.79 0.00 L 827.79 1524.87" />
  <path stroke-width="2.50" stroke="#999999" d="M 856.13 0.00 L 856.13 1524.87" />
  <path stroke-width="2.50" stroke="#999999" d="M 884.48 0.00 L 884.48 1524.87" />
  <path stroke-width="2.50" stroke="#999999" d="M 912.83 0.00 L 912.83 1524.87" />
  <path stroke-width="2.50" stroke="#999999" d="M 969.52 0.00 L 969.52 1524.87" />
  <path stroke-width="2.50" stroke="#999999" d="M 997.87 0.00 L 997.87 1524.87" />
  <path stroke-width="2.50" stroke="#999999" d="M 1026.21 0.00 L 1026.21 1524.87" />
  <path stroke-width="2.50" stroke="#999999" d="M 1054.56 0.00 L 1054.56 1524.87" />
  <path stroke-width="2.50" stroke="#999999" d="M 1082.90 0.00 L 1082.90 1524.87" />
  <path stroke-width="2.50" stroke="#999999" d="M 1111.25 0.00 L 1111.25 1524.87" />
  <path stroke-width="2.50" stroke="#999999" d="M 1139.60 0.00 L 1139.60 1524.87" />
  <path stroke-width="2.50" stroke="#999999" d="M 1167.94 0.00 L 1167.94 1524.87" />
  <path stroke-width="2.50" stroke="#999999" d="M 1196.29 0.00 L 1196.29 1524.87" />
  <path stroke-width="2.50" stroke="#999999" d="M 1252.98 0.00 L 1252.98 1524.87" />
  <path stroke-width="2.50" stroke="#999999" d="M 1281.33 0.00 L 1281.33 1524.87" />
  <path stroke-width="2.50" stroke="#999999" d="M 1309.68 0.00 L 1309.68 1524.87" />
  <path stroke-width="2.50" stroke="#999999" d="M 1338.02 0.00 L 1338.02 1524.87" />
  <path stroke-width="2.50" stroke="#999999" d="M 1366.37 0.00 L 1366.37 1524.87" />
  <path stroke-width="2.50" stroke="#999999" d="M 1394.72 0.00 L 1394.72 1524.87" />
  <path stroke-width="2.50" stroke="#999999" d="M 1423.06 0.00 L 1423.06 1524.87" />
  <path stroke-width="2.50" stroke="#999999" d="M 1451.41 0.00 L 1451.41 1524.87" />
  <path stroke-width="2.50" stroke="#999999" d="M 1479.76 0.00 L 1479.76 1524.87" />
  <path stroke-width="2.50" stroke="#999999" d="M 1536.45 0.00 L 1536.45 1524.87" />
  <path stroke-width="2.50" stroke="#999999" d="M 1564.79 0.00 L 1564.79 1524.87" />
  <path stroke-width="2.50" stroke="#999999" d="M 1593.14 0.00 L 1593.14 1524.87" />
  <path stroke-width="2.50" stroke="#999999" d="M 1621.49 0.00 L 1621.49 1524.87" />
  <path stroke-width="2.50" stroke="#999999" d="M 1649.83 0.00 L 1649.83 1524.87" />
  <path stroke-width="2.50" stroke="#999999" d="M 1678.18 0.00 L 1678.18 1524.87" />
  <path stroke-width="2.50" stroke="#999999" d="M 1706.53 0.00 L 1706.53 1524.87" />
  <path stroke-width="2.50" stroke="#999999" d="M 1734.87 0.00 L 1734.87 1524.87" />
  <path stroke-width="2.50" stroke="#999999" d="M 1763.22 0.00 L 1763.22 1524.87" />
  <path stroke-width="2.50" stroke="#999999" d="M 1819.91 0.00 L 1819.91 1524.87" />
  <path stroke-width="2.50" stroke="#999999" d="M 0.00 48.69 L 1826.80 48.69" />
  <path stroke-width="2.50" stroke="#999999" d="M 0.00 77.04 L 1826.80 77.04" />
  <path stroke-width="2.50" stroke="#999999" d="M 0.00 105.39 L 1826.80 105.39" />
  <path stroke-width="2.50" stroke="#999999" d="M 0.00 133.73 L 1826.80 133.73" />
  <path stroke-width="2.50" stroke="#999999" d="M 0.00 162.08 L 1826.80 162.08" />
  <path stroke-width="2.50" stroke="#999999" d="M 0.00 190.43 L 1826.80 190.43" />
  <path stroke-width="2.50" stroke="#999999" d="M 0.00 218.77 L 1826.80 218.77" />
  <path stroke-width="2.50" stroke="#999999" d="M 0.00 247.12 L 1826.80 247.12" />
  <path stroke-width="2.50" stroke="#999999" d="M 0.00 275.47 L 1826.80 275.47" />
  <path stroke-width="2.50" stroke="#999999" d="M 0.00 332.16 L 1826.80 332.16" />
  <path stroke-width="2.50" stroke="#999999" d="M 0.00 360.50 L 1826.80 360.50" />
  <path stroke-width="2.50" stroke="#999999" d="M 0.00 388.85 L 1826.80 388.85" />
  <path stroke-width="2.50" stroke="#999999" d="M 0.00 417.20 L 1826.80 417.20" />
  <path stroke-width="2.50" stroke="#999999" d="M 0.00 445.54 L 1826.80 445.54" />
  <path stroke-width="2.50" stroke="#999999" d="M 0.00 473.89 L 1826.80 473.89" />
  <path stroke-width="2.50" stroke="#999999" d="M 0.00 502.24 L 1826.80 502.24" />
  <path stroke-width="2.50" stroke="#999999" d="M 0.00 530.58 L 1826.80 530.58" />
  <path stroke-width="2.50" stroke="#999999" d="M 0.00 558.93 L 1826.80 558.93" />
  <path stroke-width="2.50" stroke="#999999" d="M 0.00 615.62 L 1826.80 615.62" />
  <path stroke-width="2.50" stroke="#999999" d="M 0.00 643.97 L 1826.80 643.97" />
  <path stroke-width="2.50" stroke="#999999" d="M 0.00 672.32 L 1826.80 672.32" />
  <path stroke-width="2.50" stroke="#999999" d="M 0.00 700.66 L 1826.80 700.66" />
  <path stroke-width="2.50" stroke="#999999" d="M 0.00 729.01 L 1826.80 729.01" />
  <path stroke-width="2.50" stroke="#999999" d="M 0.00 757.36 L 1826.80 757.36" />
  <path stroke-width="2.50" stroke="#999999" d="M 0.00 785.70 L 1826.80 785.70" />
  <path stroke-width="2.50" stroke="#999999" d="M 0.00 814.05 L 1826.80 814.05" />
  <path stroke-width="2.50" stroke="#999999" d="M 0.00 842.39 L 1826.80 842.39" />
  <path stroke-width="2.50" stroke="#999999" d="M 0.00 899.09 L 1826.80 899.09" />
  <path stroke-width="2.50" stroke="#999999" d="M 0.00 927.43 L 1826.80 927.43" />
  <path stroke-width="2.50" stroke="#999999" d="M 0.00 955.78 L 1826.80 955.78" />
  <path stroke-width="2.50" stroke="#999999" d="M 0.00 984.13 L 1826.80 984.13" />
  <path stroke-width="2.50" stroke="#999999" d="M 0.00 1012.47 L 1826.80 1012.47" />
  <path stroke-width="2.50" stroke="#999999" d="M 0.00 1040.82 L 1826.80 1040.82" />
  <path stroke-width="2.50" stroke="#999999" d="M 0.00 1069.17 L 1826.80 1069.17" />
  <path stroke-width="2.50" stroke="#999999" d="M 0.00 1097.51 L 1826.80 1097.51" />
  <path stroke-width="2.50" stroke="#999999" d="M 0.00 1125.86 L 1826.80 1125.86" />
  <path stroke-width="2.50" stroke="#999999" d="M 0.00 1182.55 L 1826.80 1182.55" />
  <path stroke-width="2.50" stroke="#999999" d="M 0.00 1210.90 L 1826.80 1210.90" />
  <path stroke-width="2.50" stroke="#999999" d="M 0.00 1239.24 L 1826.80 1239.24" />
  <path stroke-width="2.50" stroke="#999999" d="M 0.00 1267.59 L 1826.80 1267.59" />
  <path stroke-width="2.50" stroke="#999999" d="M 0.00 1295.94 L 1826.80 1295.94" />
  <path stroke-width="2.50" stroke="#999999" d="M 0.00 1324.28 L 1826.80 1324.28" />
  <path stroke-width="2.50" stroke="#999999" d="M 0.00 1352.63 L 1826.80 1352.63" />
  <path stroke-width="2.50" stroke="#999999" d="M 0.00 1380.98 L 1826.80 1380.98" />
  <path stroke-width="2.50" stroke="#999999" d="M 0.00 1409.32 L 1826.80 1409.32" />
  <path stroke-width="2.50" stroke="#999999" d="M 0.00 1466.02 L 1826.80 1466.02" />
  <path stroke-width="2.50" stroke="#999999" d="M 0.00 1494.36 L 1826.80 1494.36" />
  <path stroke-width="2.50" stroke="#999999" d="M 0.00 1522.71 L 1826.80 1522.71" />
</g>
<g id="grid10"
 style="fill:none;stroke-opacity:0.6;stroke-width=2.50;stroke:#666666" >
  <path stroke-width="2.50" stroke="#666666" d="M 90.78 0.00 L 90.78 1524.87" />
  <path stroke-width="2.50" stroke="#666666" d="M 657.71 0.00 L 657.71 1524.87" />
  <path stroke-width="2.50" stroke="#666666" d="M 941.17 0.00 L 941.17 1524.87" />
  <path stroke-width="2.50" stroke="#666666" d="M 1224.64 0.00 L 1224.64 1524.87" />
  <path stroke-width="2.50" stroke="#666666" d="M 1508.10 0.00 L 1508.10 1524.87" />
  <path stroke-width="2.50" stroke="#666666" d="M 1791.57 0.00 L 1791.57 1524.87" />
  <path stroke-width="2.50" stroke="#666666" d="M 0.00 20.35 L 1826.80 20.35" />
  <path stroke-width="2.50" stroke="#666666" d="M 0.00 303.81 L 1826.80 303.81" />
  <path stroke-width="2.50" stroke="#666666" d="M 0.00 587.28 L 1826.80 587.28" />
  <path stroke-width="2.50" stroke="#666666" d="M 0.00 870.74 L 1826.80 870.74" />
  <path stroke-width="2.50" stroke="#666666" d="M 0.00 1437.67 L 1826.80 1437.67" />
</g>
<g id="grid100"
 style="fill:none;stroke-opacity:0.8;stroke-width=2.50;stroke:#666666" >
  <path stroke-width="2.50" stroke="#333333" d="M 374.24 0.00 L 374.24 1524.87" />
  <path stroke-width="2.50" stroke="#333333" d="M 0.00 1154.21 L 1826.80 1154.21" />
</g>
</g>
<g id="legs" style="fill:none;stroke-opacity:0.6;stroke:red" >
  <path stroke-width="2.50" stroke="black" d="M 312.31 1178.57 L 374.24 1154.21" />
  <path stroke-width="2.50" stroke="black" d="M 374.24 1154.21 L 401.62 1190.28" />
  <path stroke-width="2.50" stroke="black" d="M 401.62 1190.28 L 498.42 1102.34" />
  <path stroke-width="2.50" stroke="black" d="M 498.42 1102.34 L 552.10 1081.33" />
  <path stroke-width="2.50" stroke="black" d="M 552.10 1081.33 L 620.65 1020.09" />
  <path stroke-width="2.50" stroke="black" d="M 620.65 1020.09 L 653.56 964.33" />
  <path stroke-width="2.50" stroke="black" d="M 326.29 1020.40 L 312.31 1178.57" />
  <path stroke-width="2.50" stroke="black" d="M 653.56 964.33 L 719.44 1002.72" />
  <path stroke-width="2.50" stroke="black" d="M 719.44 1002.72 L 827.64 940.43" />
  <path stroke-width="2.50" stroke="black" d="M 827.64 940.43 L 877.21 944.00" />
  <path stroke-width="2.50" stroke="black" d="M 877.21 944.00 L 905.78 1000.09" />
  <path stroke-width="2.50" stroke="black" d="M 905.78 1000.09 L 1013.33 838.98" />
  <path stroke-width="2.50" stroke="black" d="M 1013.33 838.98 L 1071.16 749.04" />
  <path stroke-width="2.50" stroke="black" d="M 1071.16 749.04 L 1118.04 645.57" />
  <path stroke-width="2.50" stroke="black" d="M 1118.04 645.57 L 1170.44 626.62" />
  <path stroke-width="2.50" stroke="black" d="M 1170.44 626.62 L 1170.84 545.25" />
  <path stroke-width="2.50" stroke="black" d="M 1170.84 545.25 L 1251.05 385.29" />
  <path stroke-width="2.50" stroke="black" d="M 1251.05 385.29 L 1341.69 443.78" />
  <path stroke-width="2.50" stroke="black" d="M 1341.69 443.78 L 1369.49 414.21" />
  <path stroke-width="2.50" stroke="black" d="M 1369.49 414.21 L 1334.80 375.37" />
  <path stroke-width="2.50" stroke="black" d="M 1334.80 375.37 L 1419.12 359.86" />
  <path stroke-width="2.50" stroke="black" d="M 323.12 932.70 L 326.29 1020.40" />
  <path stroke-width="2.50" stroke="black" d="M 315.03 871.45 L 323.12 932.70" />
  <path stroke-width="2.50" stroke="black" d="M 288.06 732.11 L 315.03 871.45" />
  <path stroke-width="2.50" stroke="black" d="M 324.00 658.31 L 288.06 732.11" />
  <path stroke-width="2.50" stroke="black" d="M 319.71 626.70 L 324.00 658.31" />
  <path stroke-width="2.50" stroke="black" d="M 182.58 682.68 L 319.71 626.70" />
</g>
<g id="splays"
  style="fill:none;stroke-opacity:0.4;stroke:grey" >
  <path stroke-width="2.50" stroke="grey" d="M 182.58 682.68 L 172.60 641.68" />
  <path stroke-width="2.50" stroke="grey" d="M 182.58 682.68 L 176.27 598.77" />
  <path stroke-width="2.50" stroke="grey" d="M 182.58 682.68 L 201.66 618.95" />
  <path stroke-width="2.50" stroke="grey" d="M 182.58 682.68 L 250.21 579.60" />
  <path stroke-width="2.50" stroke="grey" d="M 182.58 682.68 L 274.09 599.26" />
  <path stroke-width="2.50" stroke="grey" d="M 182.58 682.68 L 285.70 600.05" />
  <path stroke-width="2.50" stroke="grey" d="M 182.58 682.68 L 341.13 626.36" />
  <path stroke-width="2.50" stroke="grey" d="M 182.58 682.68 L 390.55 656.97" />
  <path stroke-width="2.50" stroke="grey" d="M 182.58 682.68 L 344.29 710.90" />
  <path stroke-width="2.50" stroke="grey" d="M 182.58 682.68 L 287.31 737.08" />
  <path stroke-width="2.50" stroke="grey" d="M 182.58 682.68 L 261.24 754.13" />
  <path stroke-width="2.50" stroke="grey" d="M 182.58 682.68 L 210.84 749.07" />
  <path stroke-width="2.50" stroke="grey" d="M 182.58 682.68 L 183.34 720.33" />
  <path stroke-width="2.50" stroke="grey" d="M 182.58 682.68 L 293.54 738.44" />
  <path stroke-width="2.50" stroke="grey" d="M 182.58 682.68 L 293.48 664.86" />
  <path stroke-width="2.50" stroke="grey" d="M 182.58 682.68 L 305.18 631.64" />
  <path stroke-width="2.50" stroke="grey" d="M 182.58 682.68 L 344.08 628.86" />
  <path stroke-width="2.50" stroke="grey" d="M 182.58 682.68 L 224.75 559.83" />
  <path stroke-width="2.50" stroke="grey" d="M 182.58 682.68 L 258.45 566.70" />
  <path stroke-width="2.50" stroke="grey" d="M 182.58 682.68 L 286.59 572.45" />
  <path stroke-width="2.50" stroke="grey" d="M 182.58 682.68 L 294.05 584.59" />
  <path stroke-width="2.50" stroke="grey" d="M 182.58 682.68 L 326.88 565.76" />
  <path stroke-width="2.50" stroke="grey" d="M 182.58 682.68 L 300.97 613.21" />
  <path stroke-width="2.50" stroke="grey" d="M 182.58 682.68 L 265.80 657.10" />
  <path stroke-width="2.50" stroke="grey" d="M 182.58 682.68 L 187.71 680.88" />
  <path stroke-width="2.50" stroke="grey" d="M 182.58 682.68 L 204.49 630.07" />
  <path stroke-width="2.50" stroke="grey" d="M 182.58 682.68 L 415.45 646.24" />
  <path stroke-width="2.50" stroke="grey" d="M 319.71 626.70 L 405.01 649.78" />
  <path stroke-width="2.50" stroke="grey" d="M 319.71 626.70 L 361.75 659.49" />
  <path stroke-width="2.50" stroke="grey" d="M 319.71 626.70 L 443.40 680.52" />
  <path stroke-width="2.50" stroke="grey" d="M 319.71 626.70 L 350.49 666.93" />
  <path stroke-width="2.50" stroke="grey" d="M 319.71 626.70 L 333.54 700.47" />
  <path stroke-width="2.50" stroke="grey" d="M 319.71 626.70 L 319.18 696.96" />
  <path stroke-width="2.50" stroke="grey" d="M 319.71 626.70 L 286.02 676.79" />
  <path stroke-width="2.50" stroke="grey" d="M 319.71 626.70 L 275.97 672.01" />
  <path stroke-width="2.50" stroke="grey" d="M 319.71 626.70 L 240.55 679.71" />
  <path stroke-width="2.50" stroke="grey" d="M 319.71 626.70 L 331.48 812.46" />
  <path stroke-width="2.50" stroke="grey" d="M 319.71 626.70 L 314.57 653.73" />
  <path stroke-width="2.50" stroke="grey" d="M 324.00 658.31 L 316.92 591.17" />
  <path stroke-width="2.50" stroke="grey" d="M 324.00 658.31 L 336.13 632.31" />
  <path stroke-width="2.50" stroke="grey" d="M 324.00 658.31 L 347.25 679.17" />
  <path stroke-width="2.50" stroke="grey" d="M 324.00 658.31 L 343.55 704.67" />
  <path stroke-width="2.50" stroke="grey" d="M 324.00 658.31 L 303.66 716.38" />
  <path stroke-width="2.50" stroke="grey" d="M 324.00 658.31 L 324.07 690.79" />
  <path stroke-width="2.50" stroke="grey" d="M 324.00 658.31 L 275.13 674.76" />
  <path stroke-width="2.50" stroke="grey" d="M 324.00 658.31 L 314.89 622.98" />
  <path stroke-width="2.50" stroke="grey" d="M 288.06 732.11 L 271.29 723.99" />
  <path stroke-width="2.50" stroke="grey" d="M 288.06 732.11 L 266.08 707.27" />
  <path stroke-width="2.50" stroke="grey" d="M 288.06 732.11 L 288.17 739.57" />
  <path stroke-width="2.50" stroke="grey" d="M 288.06 732.11 L 307.49 801.03" />
  <path stroke-width="2.50" stroke="grey" d="M 288.06 732.11 L 341.03 859.21" />
  <path stroke-width="2.50" stroke="grey" d="M 288.06 732.11 L 329.82 818.30" />
  <path stroke-width="2.50" stroke="grey" d="M 288.06 732.11 L 304.03 776.92" />
  <path stroke-width="2.50" stroke="grey" d="M 288.06 732.11 L 277.54 776.39" />
  <path stroke-width="2.50" stroke="grey" d="M 288.06 732.11 L 293.11 776.03" />
  <path stroke-width="2.50" stroke="grey" d="M 288.06 732.11 L 267.21 809.10" />
  <path stroke-width="2.50" stroke="grey" d="M 288.06 732.11 L 307.42 826.08" />
  <path stroke-width="2.50" stroke="grey" d="M 288.06 732.11 L 337.73 879.51" />
  <path stroke-width="2.50" stroke="grey" d="M 288.06 732.11 L 290.16 740.23" />
  <path stroke-width="2.50" stroke="grey" d="M 288.06 732.11 L 290.00 759.34" />
  <path stroke-width="2.50" stroke="grey" d="M 288.06 732.11 L 293.82 782.16" />
  <path stroke-width="2.50" stroke="grey" d="M 288.06 732.11 L 316.77 872.87" />
  <path stroke-width="2.50" stroke="grey" d="M 315.03 871.45 L 308.36 838.57" />
  <path stroke-width="2.50" stroke="grey" d="M 315.03 871.45 L 321.18 786.52" />
  <path stroke-width="2.50" stroke="grey" d="M 315.03 871.45 L 327.19 815.56" />
  <path stroke-width="2.50" stroke="grey" d="M 315.03 871.45 L 361.41 812.94" />
  <path stroke-width="2.50" stroke="grey" d="M 315.03 871.45 L 348.25 852.47" />
  <path stroke-width="2.50" stroke="grey" d="M 315.03 871.45 L 322.30 916.04" />
  <path stroke-width="2.50" stroke="grey" d="M 315.03 871.45 L 361.29 787.19" />
  <path stroke-width="2.50" stroke="grey" d="M 315.03 871.45 L 339.68 810.51" />
  <path stroke-width="2.50" stroke="grey" d="M 315.03 871.45 L 321.84 871.23" />
  <path stroke-width="2.50" stroke="grey" d="M 315.03 871.45 L 334.77 834.88" />
  <path stroke-width="2.50" stroke="grey" d="M 315.03 871.45 L 351.75 923.13" />
  <path stroke-width="2.50" stroke="grey" d="M 315.03 871.45 L 307.44 982.95" />
  <path stroke-width="2.50" stroke="grey" d="M 315.03 871.45 L 283.73 1001.19" />
  <path stroke-width="2.50" stroke="grey" d="M 315.03 871.45 L 302.77 920.71" />
  <path stroke-width="2.50" stroke="grey" d="M 323.12 932.70 L 304.48 932.80" />
  <path stroke-width="2.50" stroke="grey" d="M 323.12 932.70 L 334.40 933.82" />
  <path stroke-width="2.50" stroke="grey" d="M 323.12 932.70 L 313.16 943.52" />
  <path stroke-width="2.50" stroke="grey" d="M 323.12 932.70 L 373.93 981.89" />
  <path stroke-width="2.50" stroke="grey" d="M 326.29 1020.40 L 314.61 994.65" />
  <path stroke-width="2.50" stroke="grey" d="M 326.29 1020.40 L 389.76 1075.44" />
  <path stroke-width="2.50" stroke="grey" d="M 326.29 1020.40 L 372.21 1070.52" />
  <path stroke-width="2.50" stroke="grey" d="M 326.29 1020.40 L 352.47 1089.01" />
  <path stroke-width="2.50" stroke="grey" d="M 326.29 1020.40 L 348.33 1120.31" />
  <path stroke-width="2.50" stroke="grey" d="M 326.29 1020.40 L 346.45 1116.81" />
  <path stroke-width="2.50" stroke="grey" d="M 326.29 1020.40 L 330.28 1059.61" />
  <path stroke-width="2.50" stroke="grey" d="M 326.29 1020.40 L 336.86 1023.66" />
  <path stroke-width="2.50" stroke="grey" d="M 326.29 1020.40 L 318.04 995.34" />
  <path stroke-width="2.50" stroke="grey" d="M 326.29 1020.40 L 331.63 999.56" />
  <path stroke-width="2.50" stroke="grey" d="M 326.29 1020.40 L 342.02 1027.14" />
  <path stroke-width="2.50" stroke="grey" d="M 326.29 1020.40 L 355.26 1054.61" />
  <path stroke-width="2.50" stroke="grey" d="M 326.29 1020.40 L 352.85 1111.84" />
  <path stroke-width="2.50" stroke="grey" d="M 326.29 1020.40 L 332.37 1124.39" />
  <path stroke-width="2.50" stroke="grey" d="M 326.29 1020.40 L 316.93 1091.84" />
  <path stroke-width="2.50" stroke="grey" d="M 326.29 1020.40 L 311.21 1062.31" />
  <path stroke-width="2.50" stroke="grey" d="M 326.29 1020.40 L 291.87 1053.07" />
  <path stroke-width="2.50" stroke="grey" d="M 326.29 1020.40 L 309.44 1003.93" />
  <path stroke-width="2.50" stroke="grey" d="M 326.29 1020.40 L 318.87 990.93" />
  <path stroke-width="2.50" stroke="grey" d="M 326.29 1020.40 L 298.35 1030.58" />
  <path stroke-width="2.50" stroke="grey" d="M 326.29 1020.40 L 307.97 1016.95" />
  <path stroke-width="2.50" stroke="grey" d="M 326.29 1020.40 L 314.55 1019.52" />
  <path stroke-width="2.50" stroke="grey" d="M 326.29 1020.40 L 346.52 1045.38" />
  <path stroke-width="2.50" stroke="grey" d="M 326.29 1020.40 L 356.29 1042.99" />
  <path stroke-width="2.50" stroke="grey" d="M 326.29 1020.40 L 367.99 1060.31" />
  <path stroke-width="2.50" stroke="grey" d="M 326.29 1020.40 L 342.87 1044.27" />
  <path stroke-width="2.50" stroke="grey" d="M 326.29 1020.40 L 325.55 1047.07" />
  <path stroke-width="2.50" stroke="grey" d="M 312.31 1178.57 L 304.47 1160.20" />
  <path stroke-width="2.50" stroke="grey" d="M 312.31 1178.57 L 297.17 1169.86" />
  <path stroke-width="2.50" stroke="grey" d="M 312.31 1178.57 L 305.55 1162.93" />
  <path stroke-width="2.50" stroke="grey" d="M 312.31 1178.57 L 292.37 1169.24" />
  <path stroke-width="2.50" stroke="grey" d="M 312.31 1178.57 L 322.06 1153.74" />
  <path stroke-width="2.50" stroke="grey" d="M 312.31 1178.57 L 358.28 1142.63" />
  <path stroke-width="2.50" stroke="grey" d="M 312.31 1178.57 L 362.02 1165.54" />
  <path stroke-width="2.50" stroke="grey" d="M 312.31 1178.57 L 322.55 1177.21" />
  <path stroke-width="2.50" stroke="grey" d="M 312.31 1178.57 L 305.64 1189.53" />
  <path stroke-width="2.50" stroke="grey" d="M 312.31 1178.57 L 304.23 1171.82" />
  <path stroke-width="2.50" stroke="grey" d="M 312.31 1178.57 L 326.48 1164.96" />
  <path stroke-width="2.50" stroke="grey" d="M 374.24 1154.21 L 307.19 1145.34" />
  <path stroke-width="2.50" stroke="grey" d="M 374.24 1154.21 L 300.98 1160.56" />
  <path stroke-width="2.50" stroke="grey" d="M 374.24 1154.21 L 338.77 1130.20" />
  <path stroke-width="2.50" stroke="grey" d="M 374.24 1154.21 L 311.37 1134.20" />
  <path stroke-width="2.50" stroke="grey" d="M 374.24 1154.21 L 295.67 1143.50" />
  <path stroke-width="2.50" stroke="grey" d="M 374.24 1154.21 L 284.95 1156.99" />
  <path stroke-width="2.50" stroke="grey" d="M 374.24 1154.21 L 324.31 1166.61" />
  <path stroke-width="2.50" stroke="grey" d="M 374.24 1154.21 L 353.84 1162.27" />
  <path stroke-width="2.50" stroke="grey" d="M 374.24 1154.21 L 368.09 1162.95" />
  <path stroke-width="2.50" stroke="grey" d="M 374.24 1154.21 L 330.38 1147.59" />
  <path stroke-width="2.50" stroke="grey" d="M 374.24 1154.21 L 299.74 1145.85" />
  <path stroke-width="2.50" stroke="grey" d="M 374.24 1154.21 L 276.66 1143.92" />
  <path stroke-width="2.50" stroke="grey" d="M 374.24 1154.21 L 291.82 1131.34" />
  <path stroke-width="2.50" stroke="grey" d="M 374.24 1154.21 L 310.80 1129.18" />
  <path stroke-width="2.50" stroke="grey" d="M 374.24 1154.21 L 314.10 1168.37" />
  <path stroke-width="2.50" stroke="grey" d="M 374.24 1154.21 L 363.98 1162.30" />
  <path stroke-width="2.50" stroke="grey" d="M 374.24 1154.21 L 360.14 1170.63" />
  <path stroke-width="2.50" stroke="grey" d="M 374.24 1154.21 L 356.38 1193.57" />
  <path stroke-width="2.50" stroke="grey" d="M 374.24 1154.21 L 361.37 1217.65" />
  <path stroke-width="2.50" stroke="grey" d="M 374.24 1154.21 L 375.62 1241.78" />
  <path stroke-width="2.50" stroke="grey" d="M 374.24 1154.21 L 405.81 1216.63" />
  <path stroke-width="2.50" stroke="grey" d="M 374.24 1154.21 L 416.51 1214.50" />
  <path stroke-width="2.50" stroke="grey" d="M 374.24 1154.21 L 380.46 1161.97" />
  <path stroke-width="2.50" stroke="grey" d="M 401.62 1190.28 L 388.37 1180.06" />
  <path stroke-width="2.50" stroke="grey" d="M 401.62 1190.28 L 375.16 1209.65" />
  <path stroke-width="2.50" stroke="grey" d="M 401.62 1190.28 L 421.42 1193.71" />
  <path stroke-width="2.50" stroke="grey" d="M 401.62 1190.28 L 400.78 1171.08" />
  <path stroke-width="2.50" stroke="grey" d="M 401.62 1190.28 L 395.92 1196.57" />
  <path stroke-width="2.50" stroke="grey" d="M 401.62 1190.28 L 369.62 1197.75" />
  <path stroke-width="2.50" stroke="grey" d="M 401.62 1190.28 L 376.00 1200.80" />
  <path stroke-width="2.50" stroke="grey" d="M 401.62 1190.28 L 379.91 1223.46" />
  <path stroke-width="2.50" stroke="grey" d="M 401.62 1190.28 L 393.75 1203.57" />
  <path stroke-width="2.50" stroke="grey" d="M 401.62 1190.28 L 410.33 1188.95" />
  <path stroke-width="2.50" stroke="grey" d="M 401.62 1190.28 L 415.53 1181.93" />
  <path stroke-width="2.50" stroke="grey" d="M 401.62 1190.28 L 437.38 1168.95" />
  <path stroke-width="2.50" stroke="grey" d="M 401.62 1190.28 L 429.73 1145.13" />
  <path stroke-width="2.50" stroke="grey" d="M 401.62 1190.28 L 484.64 1122.93" />
  <path stroke-width="2.50" stroke="grey" d="M 401.62 1190.28 L 457.02 1124.80" />
  <path stroke-width="2.50" stroke="grey" d="M 401.62 1190.28 L 440.92 1170.42" />
  <path stroke-width="2.50" stroke="grey" d="M 401.62 1190.28 L 486.26 1149.58" />
  <path stroke-width="2.50" stroke="grey" d="M 401.62 1190.28 L 477.77 1159.36" />
  <path stroke-width="2.50" stroke="grey" d="M 498.42 1102.34 L 506.33 1118.63" />
  <path stroke-width="2.50" stroke="grey" d="M 498.42 1102.34 L 499.72 1111.15" />
  <path stroke-width="2.50" stroke="grey" d="M 498.42 1102.34 L 458.55 1091.53" />
  <path stroke-width="2.50" stroke="grey" d="M 498.42 1102.34 L 444.28 1108.17" />
  <path stroke-width="2.50" stroke="grey" d="M 498.42 1102.34 L 474.70 1112.80" />
  <path stroke-width="2.50" stroke="grey" d="M 498.42 1102.34 L 532.68 1108.23" />
  <path stroke-width="2.50" stroke="grey" d="M 498.42 1102.34 L 545.91 1095.00" />
  <path stroke-width="2.50" stroke="grey" d="M 498.42 1102.34 L 526.28 1082.39" />
  <path stroke-width="2.50" stroke="grey" d="M 552.10 1081.33 L 521.55 1084.94" />
  <path stroke-width="2.50" stroke="grey" d="M 552.10 1081.33 L 549.97 1063.46" />
  <path stroke-width="2.50" stroke="grey" d="M 552.10 1081.33 L 551.89 1075.70" />
  <path stroke-width="2.50" stroke="grey" d="M 552.10 1081.33 L 550.21 1087.51" />
  <path stroke-width="2.50" stroke="grey" d="M 552.10 1081.33 L 573.35 1080.08" />
  <path stroke-width="2.50" stroke="grey" d="M 552.10 1081.33 L 602.24 1066.17" />
  <path stroke-width="2.50" stroke="grey" d="M 552.10 1081.33 L 577.24 1058.19" />
  <path stroke-width="2.50" stroke="grey" d="M 620.65 1020.09 L 611.12 1011.20" />
  <path stroke-width="2.50" stroke="grey" d="M 653.56 964.33 L 652.40 972.43" />
  <path stroke-width="2.50" stroke="grey" d="M 653.56 964.33 L 643.75 971.15" />
  <path stroke-width="2.50" stroke="grey" d="M 653.56 964.33 L 644.57 972.48" />
  <path stroke-width="2.50" stroke="grey" d="M 653.56 964.33 L 651.63 989.88" />
  <path stroke-width="2.50" stroke="grey" d="M 653.56 964.33 L 668.76 965.74" />
  <path stroke-width="2.50" stroke="grey" d="M 653.56 964.33 L 682.67 980.34" />
  <path stroke-width="2.50" stroke="grey" d="M 653.56 964.33 L 704.05 1003.52" />
  <path stroke-width="2.50" stroke="grey" d="M 653.56 964.33 L 719.49 1002.58" />
  <path stroke-width="2.50" stroke="grey" d="M 653.56 964.33 L 690.16 997.37" />
  <path stroke-width="2.50" stroke="grey" d="M 653.56 964.33 L 641.54 987.00" />
  <path stroke-width="2.50" stroke="grey" d="M 719.44 1002.72 L 715.36 988.56" />
  <path stroke-width="2.50" stroke="grey" d="M 719.44 1002.72 L 717.01 998.36" />
  <path stroke-width="2.50" stroke="grey" d="M 719.44 1002.72 L 711.78 994.91" />
  <path stroke-width="2.50" stroke="grey" d="M 719.44 1002.72 L 736.92 976.91" />
  <path stroke-width="2.50" stroke="grey" d="M 719.44 1002.72 L 771.06 955.57" />
  <path stroke-width="2.50" stroke="grey" d="M 719.44 1002.72 L 760.35 981.87" />
  <path stroke-width="2.50" stroke="grey" d="M 719.44 1002.72 L 820.77 949.31" />
  <path stroke-width="2.50" stroke="grey" d="M 719.44 1002.72 L 756.60 965.62" />
  <path stroke-width="2.50" stroke="grey" d="M 719.44 1002.72 L 777.42 934.48" />
  <path stroke-width="2.50" stroke="grey" d="M 827.64 940.43 L 774.69 991.37" />
  <path stroke-width="2.50" stroke="grey" d="M 827.64 940.43 L 805.28 1000.55" />
  <path stroke-width="2.50" stroke="grey" d="M 827.64 940.43 L 827.85 949.19" />
  <path stroke-width="2.50" stroke="grey" d="M 827.64 940.43 L 834.48 904.22" />
  <path stroke-width="2.50" stroke="grey" d="M 827.64 940.43 L 813.94 916.67" />
  <path stroke-width="2.50" stroke="grey" d="M 827.64 940.43 L 801.71 933.52" />
  <path stroke-width="2.50" stroke="grey" d="M 827.64 940.43 L 777.95 952.23" />
  <path stroke-width="2.50" stroke="grey" d="M 827.64 940.43 L 824.95 933.49" />
  <path stroke-width="2.50" stroke="grey" d="M 827.64 940.43 L 822.93 942.96" />
  <path stroke-width="2.50" stroke="grey" d="M 827.64 940.43 L 851.94 900.57" />
  <path stroke-width="2.50" stroke="grey" d="M 827.64 940.43 L 868.50 913.27" />
  <path stroke-width="2.50" stroke="grey" d="M 827.64 940.43 L 940.01 821.53" />
  <path stroke-width="2.50" stroke="grey" d="M 827.64 940.43 L 855.32 875.25" />
  <path stroke-width="2.50" stroke="grey" d="M 827.64 940.43 L 858.68 900.26" />
  <path stroke-width="2.50" stroke="grey" d="M 877.21 944.00 L 856.90 938.20" />
  <path stroke-width="2.50" stroke="grey" d="M 877.21 944.00 L 867.15 959.26" />
  <path stroke-width="2.50" stroke="grey" d="M 877.21 944.00 L 886.66 996.29" />
  <path stroke-width="2.50" stroke="grey" d="M 877.21 944.00 L 902.09 1005.25" />
  <path stroke-width="2.50" stroke="grey" d="M 877.21 944.00 L 891.93 964.38" />
  <path stroke-width="2.50" stroke="grey" d="M 877.21 944.00 L 888.61 967.22" />
  <path stroke-width="2.50" stroke="grey" d="M 877.21 944.00 L 870.55 957.16" />
  <path stroke-width="2.50" stroke="grey" d="M 877.21 944.00 L 903.04 977.29" />
  <path stroke-width="2.50" stroke="grey" d="M 877.21 944.00 L 917.09 1001.63" />
  <path stroke-width="2.50" stroke="grey" d="M 877.21 944.00 L 888.78 966.55" />
  <path stroke-width="2.50" stroke="grey" d="M 905.78 1000.09 L 908.66 980.01" />
  <path stroke-width="2.50" stroke="grey" d="M 905.78 1000.09 L 906.77 980.82" />
  <path stroke-width="2.50" stroke="grey" d="M 905.78 1000.09 L 915.36 944.99" />
  <path stroke-width="2.50" stroke="grey" d="M 905.78 1000.09 L 919.67 899.98" />
  <path stroke-width="2.50" stroke="grey" d="M 905.78 1000.09 L 904.77 984.09" />
  <path stroke-width="2.50" stroke="grey" d="M 905.78 1000.09 L 921.30 990.75" />
  <path stroke-width="2.50" stroke="grey" d="M 905.78 1000.09 L 943.65 945.91" />
  <path stroke-width="2.50" stroke="grey" d="M 905.78 1000.09 L 987.21 863.67" />
  <path stroke-width="2.50" stroke="grey" d="M 905.78 1000.09 L 922.94 965.21" />
  <path stroke-width="2.50" stroke="grey" d="M 905.78 1000.09 L 957.99 912.20" />
  <path stroke-width="2.50" stroke="grey" d="M 1013.33 838.98 L 1013.58 835.25" />
  <path stroke-width="2.50" stroke="grey" d="M 1013.33 838.98 L 1005.65 833.20" />
  <path stroke-width="2.50" stroke="grey" d="M 1013.33 838.98 L 1005.44 833.47" />
  <path stroke-width="2.50" stroke="grey" d="M 1013.33 838.98 L 1005.01 835.10" />
  <path stroke-width="2.50" stroke="grey" d="M 1013.33 838.98 L 1002.05 836.48" />
  <path stroke-width="2.50" stroke="grey" d="M 1013.33 838.98 L 1015.51 841.53" />
  <path stroke-width="2.50" stroke="grey" d="M 1013.33 838.98 L 1005.37 833.51" />
  <path stroke-width="2.50" stroke="grey" d="M 1013.33 838.98 L 1016.64 823.58" />
  <path stroke-width="2.50" stroke="grey" d="M 1013.33 838.98 L 1044.33 781.95" />
  <path stroke-width="2.50" stroke="grey" d="M 1013.33 838.98 L 1007.84 832.99" />
  <path stroke-width="2.50" stroke="grey" d="M 1013.33 838.98 L 1028.51 811.94" />
  <path stroke-width="2.50" stroke="grey" d="M 1013.33 838.98 L 1043.83 750.87" />
  <path stroke-width="2.50" stroke="grey" d="M 1071.16 749.04 L 1071.33 791.45" />
  <path stroke-width="2.50" stroke="grey" d="M 1071.16 749.04 L 1067.54 856.95" />
  <path stroke-width="2.50" stroke="grey" d="M 1071.16 749.04 L 1082.99 837.65" />
  <path stroke-width="2.50" stroke="grey" d="M 1071.16 749.04 L 1072.46 799.87" />
  <path stroke-width="2.50" stroke="grey" d="M 1071.16 749.04 L 1066.20 830.60" />
  <path stroke-width="2.50" stroke="grey" d="M 1071.16 749.04 L 1051.44 733.59" />
  <path stroke-width="2.50" stroke="grey" d="M 1071.16 749.04 L 1058.76 689.63" />
  <path stroke-width="2.50" stroke="grey" d="M 1071.16 749.04 L 1055.74 727.10" />
  <path stroke-width="2.50" stroke="grey" d="M 1071.16 749.04 L 1076.64 699.24" />
  <path stroke-width="2.50" stroke="grey" d="M 1071.16 749.04 L 1090.73 639.08" />
  <path stroke-width="2.50" stroke="grey" d="M 1071.16 749.04 L 1042.03 765.83" />
  <path stroke-width="2.50" stroke="grey" d="M 1071.16 749.04 L 1113.54 701.41" />
  <path stroke-width="2.50" stroke="grey" d="M 1071.16 749.04 L 1104.08 714.88" />
  <path stroke-width="2.50" stroke="grey" d="M 1071.16 749.04 L 1068.46 771.73" />
  <path stroke-width="2.50" stroke="grey" d="M 1071.16 749.04 L 1079.82 684.16" />
  <path stroke-width="2.50" stroke="grey" d="M 1071.16 749.04 L 1084.98 648.27" />
  <path stroke-width="2.50" stroke="grey" d="M 1071.16 749.04 L 1020.39 802.37" />
  <path stroke-width="2.50" stroke="grey" d="M 1071.16 749.04 L 1047.90 773.83" />
  <path stroke-width="2.50" stroke="grey" d="M 1071.16 749.04 L 1040.18 749.65" />
  <path stroke-width="2.50" stroke="grey" d="M 1071.16 749.04 L 1030.93 753.12" />
  <path stroke-width="2.50" stroke="grey" d="M 1071.16 749.04 L 1051.88 774.62" />
  <path stroke-width="2.50" stroke="grey" d="M 1071.16 749.04 L 1065.02 708.00" />
  <path stroke-width="2.50" stroke="grey" d="M 1118.04 645.57 L 1103.44 648.49" />
  <path stroke-width="2.50" stroke="grey" d="M 1118.04 645.57 L 1124.17 649.13" />
  <path stroke-width="2.50" stroke="grey" d="M 1118.04 645.57 L 1165.52 642.58" />
  <path stroke-width="2.50" stroke="grey" d="M 1118.04 645.57 L 1172.99 636.21" />
  <path stroke-width="2.50" stroke="grey" d="M 1118.04 645.57 L 1068.00 665.77" />
  <path stroke-width="2.50" stroke="grey" d="M 1118.04 645.57 L 1131.31 657.97" />
  <path stroke-width="2.50" stroke="grey" d="M 1118.04 645.57 L 1150.41 639.79" />
  <path stroke-width="2.50" stroke="grey" d="M 1118.04 645.57 L 1175.40 615.37" />
  <path stroke-width="2.50" stroke="grey" d="M 1118.04 645.57 L 1082.25 699.35" />
  <path stroke-width="2.50" stroke="grey" d="M 1170.44 626.62 L 1162.07 636.10" />
  <path stroke-width="2.50" stroke="grey" d="M 1170.44 626.62 L 1137.89 610.87" />
  <path stroke-width="2.50" stroke="grey" d="M 1170.44 626.62 L 1160.92 622.03" />
  <path stroke-width="2.50" stroke="grey" d="M 1170.44 626.62 L 1160.70 606.00" />
  <path stroke-width="2.50" stroke="grey" d="M 1170.44 626.62 L 1172.15 617.97" />
  <path stroke-width="2.50" stroke="grey" d="M 1170.44 626.62 L 1158.85 577.77" />
  <path stroke-width="2.50" stroke="grey" d="M 1170.44 626.62 L 1178.29 556.55" />
  <path stroke-width="2.50" stroke="grey" d="M 1170.84 545.25 L 1195.88 551.47" />
  <path stroke-width="2.50" stroke="grey" d="M 1170.84 545.25 L 1177.30 563.97" />
  <path stroke-width="2.50" stroke="grey" d="M 1170.84 545.25 L 1224.03 513.90" />
  <path stroke-width="2.50" stroke="grey" d="M 1170.84 545.25 L 1191.14 579.34" />
  <path stroke-width="2.50" stroke="grey" d="M 1170.84 545.25 L 1188.76 551.26" />
  <path stroke-width="2.50" stroke="grey" d="M 1170.84 545.25 L 1182.39 529.75" />
  <path stroke-width="2.50" stroke="grey" d="M 1170.84 545.25 L 1191.57 492.82" />
  <path stroke-width="2.50" stroke="grey" d="M 1170.84 545.25 L 1168.84 527.10" />
  <path stroke-width="2.50" stroke="grey" d="M 1251.05 385.29 L 1240.63 390.52" />
  <path stroke-width="2.50" stroke="grey" d="M 1251.05 385.29 L 1189.40 488.86" />
  <path stroke-width="2.50" stroke="grey" d="M 1251.05 385.29 L 1219.98 421.67" />
  <path stroke-width="2.50" stroke="grey" d="M 1251.05 385.29 L 1221.58 453.02" />
  <path stroke-width="2.50" stroke="grey" d="M 1251.05 385.29 L 1236.69 429.03" />
  <path stroke-width="2.50" stroke="grey" d="M 1251.05 385.29 L 1263.48 406.35" />
  <path stroke-width="2.50" stroke="grey" d="M 1251.05 385.29 L 1238.41 391.05" />
  <path stroke-width="2.50" stroke="grey" d="M 1251.05 385.29 L 1197.39 428.21" />
  <path stroke-width="2.50" stroke="grey" d="M 1251.05 385.29 L 1203.87 435.96" />
  <path stroke-width="2.50" stroke="grey" d="M 1251.05 385.29 L 1239.08 434.14" />
  <path stroke-width="2.50" stroke="grey" d="M 1251.05 385.29 L 1251.86 409.08" />
  <path stroke-width="2.50" stroke="grey" d="M 1251.05 385.29 L 1300.06 442.80" />
  <path stroke-width="2.50" stroke="grey" d="M 1251.05 385.29 L 1299.26 381.74" />
  <path stroke-width="2.50" stroke="grey" d="M 1251.05 385.29 L 1275.66 392.36" />
  <path stroke-width="2.50" stroke="grey" d="M 1251.05 385.29 L 1282.26 410.70" />
  <path stroke-width="2.50" stroke="grey" d="M 1251.05 385.29 L 1306.14 421.18" />
  <path stroke-width="2.50" stroke="grey" d="M 1251.05 385.29 L 1335.28 432.88" />
  <path stroke-width="2.50" stroke="grey" d="M 1341.69 443.78 L 1337.47 428.05" />
  <path stroke-width="2.50" stroke="grey" d="M 1341.69 443.78 L 1344.33 430.74" />
  <path stroke-width="2.50" stroke="grey" d="M 1341.69 443.78 L 1356.97 434.44" />
  <path stroke-width="2.50" stroke="grey" d="M 1341.69 443.78 L 1368.56 436.95" />
  <path stroke-width="2.50" stroke="grey" d="M 1341.69 443.78 L 1357.84 420.34" />
  <path stroke-width="2.50" stroke="grey" d="M 1341.69 443.78 L 1351.12 395.51" />
  <path stroke-width="2.50" stroke="grey" d="M 1369.49 414.21 L 1348.20 423.67" />
  <path stroke-width="2.50" stroke="grey" d="M 1369.49 414.21 L 1351.86 402.84" />
  <path stroke-width="2.50" stroke="grey" d="M 1369.49 414.21 L 1336.39 375.72" />
  <path stroke-width="2.50" stroke="grey" d="M 1369.49 414.21 L 1340.18 395.81" />
  <path stroke-width="2.50" stroke="grey" d="M 1369.49 414.21 L 1371.57 424.87" />
  <path stroke-width="2.50" stroke="grey" d="M 1334.80 375.37 L 1365.08 435.92" />
  <path stroke-width="2.50" stroke="grey" d="M 1334.80 375.37 L 1371.04 405.57" />
  <path stroke-width="2.50" stroke="grey" d="M 1334.80 375.37 L 1373.47 372.59" />
  <path stroke-width="2.50" stroke="grey" d="M 1334.80 375.37 L 1331.90 360.71" />
  <path stroke-width="2.50" stroke="grey" d="M 1334.80 375.37 L 1330.42 351.19" />
  <path stroke-width="2.50" stroke="grey" d="M 1334.80 375.37 L 1328.10 384.09" />
  <path stroke-width="2.50" stroke="grey" d="M 1334.80 375.37 L 1370.48 393.43" />
  <path stroke-width="2.50" stroke="grey" d="M 1334.80 375.37 L 1376.42 384.94" />
  <path stroke-width="2.50" stroke="grey" d="M 1334.80 375.37 L 1401.97 374.05" />
  <path stroke-width="2.50" stroke="grey" d="M 1334.80 375.37 L 1370.83 378.74" />
  <path stroke-width="2.50" stroke="grey" d="M 1334.80 375.37 L 1365.14 361.66" />
  <path stroke-width="2.50" stroke="grey" d="M 1334.80 375.37 L 1381.78 356.73" />
  <path stroke-width="2.50" stroke="grey" d="M 1334.80 375.37 L 1389.94 344.96" />
  <path stroke-width="2.50" stroke="grey" d="M 1334.80 375.37 L 1404.53 346.47" />
  <path stroke-width="2.50" stroke="grey" d="M 1334.80 375.37 L 1419.76 359.09" />
  <path stroke-width="2.50" stroke="grey" d="M 1334.80 375.37 L 1419.57 358.56" />
  <path stroke-width="2.50" stroke="grey" d="M 1334.80 375.37 L 1386.85 375.45" />
  <path stroke-width="2.50" stroke="grey" d="M 1334.80 375.37 L 1405.83 368.84" />
  <path stroke-width="2.50" stroke="grey" d="M 1419.12 359.86 L 1394.39 357.31" />
  <path stroke-width="2.50" stroke="grey" d="M 1419.12 359.86 L 1408.53 369.76" />
  <path stroke-width="2.50" stroke="grey" d="M 1419.12 359.86 L 1410.29 371.03" />
  <path stroke-width="2.50" stroke="grey" d="M 1419.12 359.86 L 1402.43 371.41" />
  <path stroke-width="2.50" stroke="grey" d="M 1419.12 359.86 L 1378.72 386.16" />
  <path stroke-width="2.50" stroke="grey" d="M 1419.12 359.86 L 1381.05 347.40" />
  <path stroke-width="2.50" stroke="grey" d="M 1419.12 359.86 L 1376.14 347.65" />
  <path stroke-width="2.50" stroke="grey" d="M 1419.12 359.86 L 1415.11 354.01" />
  <path stroke-width="2.50" stroke="grey" d="M 1419.12 359.86 L 1403.81 353.73" />
  <path stroke-width="2.50" stroke="grey" d="M 1419.12 359.86 L 1388.92 355.73" />
  <path stroke-width="2.50" stroke="grey" d="M 1419.12 359.86 L 1382.93 355.29" />
  <path stroke-width="2.50" stroke="grey" d="M 1419.12 359.86 L 1348.35 359.97" />
  <path stroke-width="2.50" stroke="grey" d="M 1419.12 359.86 L 1329.91 366.32" />
  <path stroke-width="2.50" stroke="grey" d="M 1419.12 359.86 L 1378.63 381.51" />
  <path stroke-width="2.50" stroke="grey" d="M 1419.12 359.86 L 1406.77 370.33" />
  <path stroke-width="2.50" stroke="grey" d="M 1419.12 359.86 L 1412.34 383.88" />
  <path stroke-width="2.50" stroke="grey" d="M 1419.12 359.86 L 1412.41 364.39" />
  <path stroke-width="2.50" stroke="grey" d="M 1419.12 359.86 L 1424.19 344.43" />
  <path stroke-width="2.50" stroke="grey" d="M 1419.12 359.86 L 1388.20 337.51" />
  <path stroke-width="2.50" stroke="grey" d="M 1419.12 359.86 L 1342.65 340.33" />
  <path stroke-width="2.50" stroke="grey" d="M 1419.12 359.86 L 1377.97 363.62" />
  <path stroke-width="2.50" stroke="grey" d="M 1419.12 359.86 L 1415.75 371.74" />
  <path stroke-width="2.50" stroke="grey" d="M 1419.12 359.86 L 1440.74 388.55" />
  <path stroke-width="2.50" stroke="grey" d="M 1419.12 359.86 L 1473.72 421.20" />
  <path stroke-width="2.50" stroke="grey" d="M 1419.12 359.86 L 1536.31 398.29" />
  <path stroke-width="2.50" stroke="grey" d="M 1419.12 359.86 L 1476.37 359.28" />
  <path stroke-width="2.50" stroke="grey" d="M 1419.12 359.86 L 1446.80 351.68" />
  <path stroke-width="2.50" stroke="grey" d="M 1419.12 359.86 L 1381.74 347.17" />
</g>
<g id="scrap_0">
<g id="points">
</g>
<g id="lines">
  <path stroke="#ff0000" stroke-width="2.50" fill="none" class="wall" d="M 339.35 1129.90 L 336.76 1130.49 L 334.81 1130.78 L 332.30 1131.23 L 330.14 1131.37 L 327.11 1130.96 L 324.30 1130.59 L 322.09 1130.49 L 318.81 1130.86 L 316.22 1131.38 L 313.89 1131.98 L 311.86 1132.71 L 309.83 1133.72 L 307.71 1134.77 L 305.61 1135.87 L 303.18 1137.41 L 301.11 1138.66 L 299.01 1139.96 L 296.95 1141.06 L 294.90 1142.15 L 292.96 1143.49 L 290.87 1145.29 L 288.56 1146.66 L 286.77 1148.01 L 285.43 1149.92 L 284.82 1152.11 L 284.21 1154.46 L 283.59 1156.93 L 283.46 1158.64" />
  <path stroke="#ff0000" stroke-width="2.50" fill="none" class="wall" d="M 325.09 1166.97 L 323.27 1167.71 L 320.84 1168.07 L 318.57 1168.30 L 316.19 1168.36 L 313.86 1168.36 L 311.41 1168.30 L 309.35 1168.17 L 306.73 1167.99 L 303.42 1167.71 L 300.19 1167.13 L 298.04 1166.57 L 295.79 1166.06 L 293.34 1165.54 L 291.00 1164.49 L 288.77 1163.52 L 287.02 1162.49 L 284.96 1161.25 L 283.62 1159.22" />
  <path stroke="#ff0000" stroke-width="2.50" fill="none" class="wall" d="M 339.00 1129.67 L 341.09 1130.46 L 342.78 1131.34 L 344.67 1132.23 L 346.36 1133.15 L 347.93 1134.18 L 349.54 1135.29 L 351.19 1136.28 L 352.86 1137.13 L 354.73 1138.05 L 356.27 1139.03 L 358.04 1140.15 L 359.70 1141.35 L 361.30 1142.72 L 363.09 1144.03 L 364.79 1145.27 L 366.29 1146.44 L 367.71 1147.67 L 368.86 1149.04 L 370.10 1150.52 L 371.37 1151.79 L 372.75 1153.13 L 373.90 1154.45" />
  <path stroke="#ff0000" stroke-width="2.50" fill="none" class="wall" d="M 301.20 1160.19 L 302.61 1158.00 L 303.99 1155.59 L 305.15 1153.01 L 306.04 1150.57 L 306.62 1147.90 L 306.92 1145.30 L 306.89 1143.11 L 306.42 1139.88 L 305.87 1137.00 L 305.57 1135.79" />
  <path stroke="#ff0000" stroke-width="2.50" fill="none" class="wall" d="M 301.31 1158.93 L 300.36 1161.38 L 299.07 1163.81 L 297.66 1165.69" />
  <path stroke="#ff0000" stroke-width="2.50" fill="none" class="wall" d="M 307.66 1144.46 L 310.42 1145.90 L 312.55 1146.81 L 313.47 1147.37" />
  <path stroke="#ff0000" stroke-width="2.50" fill="none" class="wall" d="M 307.66 1148.80 L 309.97 1149.87 L 312.18 1150.63" />
  <path stroke="#ff0000" stroke-width="2.50" fill="none" class="wall" d="M 304.66 1154.03 L 307.74 1155.29 L 310.24 1156.47 L 311.99 1157.36" />
  <path stroke="#ff0000" stroke-width="2.50" fill="none" class="wall" d="M 302.48 1157.11 L 305.15 1158.49 L 307.65 1159.82 L 309.80 1160.96" />
  <path stroke="#ff0000" stroke-width="2.50" fill="none" class="wall" d="M 299.72 1161.26 L 302.90 1162.81 L 305.89 1164.32 L 307.45 1164.83" />
  <path stroke="#ff0000" stroke-width="2.50" fill="none" class="wall" d="M 324.15 1167.06 L 325.88 1166.66 L 327.65 1166.20 L 329.84 1165.64 L 332.79 1164.97 L 335.75 1164.41 L 337.98 1163.93 L 340.74 1163.40 L 343.08 1162.95 L 345.60 1162.42 L 347.74 1161.99" />
  <path stroke="#ff0000" stroke-width="2.50" fill="none" class="wall" d="M 346.62 1160.74 L 349.33 1161.39 L 351.90 1161.93 L 354.35 1162.98 L 356.64 1164.63 L 358.65 1166.69 L 359.63 1169.13 L 359.56 1171.86 L 359.18 1174.51 L 358.60 1177.33 L 357.89 1179.97 L 357.26 1182.67 L 356.95 1185.40 L 356.72 1188.31 L 356.52 1191.17 L 356.44 1194.03 L 356.70 1197.07 L 357.20 1199.93 L 357.85 1202.79 L 358.92 1205.70 L 359.94 1208.40 L 360.91 1211.22 L 362.03 1214.49 L 363.30 1217.77 L 364.33 1220.27 L 365.89 1223.36 L 367.44 1225.75 L 369.34 1228.48 L 371.24 1231.07 L 372.96 1233.35 L 374.95 1235.93 L 376.62 1238.68 L 377.59 1240.71" />
  <path stroke="#ff0000" stroke-width="2.50" fill="none" class="wall" d="M 374.33 1154.25 L 375.32 1154.76 L 376.15 1155.32 L 376.95 1156.14 L 377.58 1156.96 L 378.19 1157.83 L 378.68 1158.87 L 379.24 1159.89 L 379.80 1160.86 L 380.45 1161.77" />
  <path stroke="#ff0000" stroke-width="2.50" fill="none" class="wall" d="M 377.10 1241.41 L 381.37 1240.13 L 385.82 1238.33 L 389.60 1235.62 L 394.18 1232.63 L 398.81 1229.85 L 403.78 1226.89 L 408.29 1223.97 L 412.04 1220.25 L 415.09 1216.89 L 417.90 1213.26 L 419.03 1210.55" />
  <path stroke="#ff0000" stroke-width="2.50" fill="none" class="wall" d="M 379.48 1160.09 L 380.60 1161.93 L 382.17 1163.59 L 383.95 1164.91 L 386.25 1166.05 L 388.79 1166.76 L 391.24 1167.46 L 393.50 1168.05 L 395.69 1168.83 L 397.97 1169.67 L 400.28 1170.90" />
  <path stroke="#ff0000" stroke-width="2.50" fill="none" class="wall" d="M 419.36 1211.00 L 418.99 1208.99 L 419.60 1206.75 L 419.91 1204.42 L 420.06 1201.92 L 420.34 1199.35 L 420.49 1196.79 L 420.68 1194.55" />
  <path stroke="#cccccc" stroke-width="2.50" fill="none" class="user" d="M 415.63 1181.45 L 413.07 1181.28 L 410.66 1181.25 L 407.86 1181.22 L 405.61 1181.13 L 403.28 1180.76 L 400.75 1180.45 L 398.04 1180.25 L 395.32 1180.28 L 392.70 1180.96 L 390.19 1182.09 L 388.38 1183.90 L 387.16 1186.26 L 386.59 1189.11 L 386.54 1191.82 L 387.55 1194.78 L 389.98 1197.54 L 391.95 1198.96 L 394.20 1200.13 L 396.75 1201.02 L 399.17 1201.66 L 401.51 1201.91 L 403.90 1201.69 L 406.16 1200.68 L 408.52 1199.26 L 410.74 1197.75 L 412.93 1195.81 L 415.35 1192.97 L 416.75 1190.78 L 417.80 1187.99 L 418.31 1185.75 L 418.42 1182.08 L 416.75 1179.89 L 415.58 1179.70" />
  <path stroke="#cccccc" stroke-width="2.50" fill="none" class="user" d="M 391.72 1182.29 L 392.73 1185.23 L 393.45 1187.87" />
  <path stroke="#cccccc" stroke-width="2.50" fill="none" class="user" d="M 396.09 1182.17 L 396.33 1184.87 L 396.40 1187.12" />
  <path stroke="#cccccc" stroke-width="2.50" fill="none" class="user" d="M 402.60 1182.15 L 402.00 1184.51 L 401.45 1186.08" />
  <path stroke="#cccccc" stroke-width="2.50" fill="none" class="user" d="M 408.03 1180.93 L 406.79 1183.21 L 405.50 1185.45" />
  <path stroke="#cccccc" stroke-width="2.50" fill="none" class="user" d="M 416.95 1183.41 L 414.16 1184.45 L 411.43 1185.17" />
  <path stroke="#cccccc" stroke-width="2.50" fill="none" class="user" d="M 413.45 1193.43 L 412.39 1190.24 L 411.41 1188.15" />
  <path stroke="#cccccc" stroke-width="2.50" fill="none" class="user" d="M 405.05 1200.71 L 405.15 1197.57 L 405.62 1194.84" />
  <path stroke="#cccccc" stroke-width="2.50" fill="none" class="user" d="M 395.16 1201.34 L 396.32 1198.52 L 397.24 1197.33" />
  <path stroke="#cccccc" stroke-width="2.50" fill="none" class="user" d="M 395.84 1121.04 L 396.04 1125.19 L 396.89 1131.17 L 397.87 1136.24 L 397.85 1128.88 L 397.36 1121.51 L 397.79 1117.82 L 400.01 1118.63 L 401.35 1121.74 L 400.79 1124.39 L 398.57 1123.35" />
  <path stroke="#cccccc" stroke-width="2.50" fill="none" class="user" d="M 404.43 1126.66 L 404.13 1130.49 L 404.95 1134.94 L 406.71 1137.57 L 408.27 1133.68 L 408.66 1129.62" />
  <path stroke="#cccccc" stroke-width="2.50" fill="none" class="user" d="M 416.56 1119.21 L 416.16 1123.09 L 415.50 1128.43 L 415.35 1133.67 L 415.60 1135.87" />
  <path stroke="#cccccc" stroke-width="2.50" fill="none" class="user" d="M 412.32 1125.27 L 415.96 1126.40 L 418.32 1127.63" />
  <path stroke="#cccccc" stroke-width="2.50" fill="none" class="user" d="M 414.69 1139.70 L 415.09 1141.91 L 413.57 1144.56" />
  <path stroke="#cccccc" stroke-width="2.50" fill="none" class="user" d="M 390.65 1146.31 L 393.70 1146.51 L 397.06 1147.32 L 398.79 1148.58" />
  <path stroke="#ff0000" stroke-width="2.50" fill="none" class="wall" d="M 400.64 1172.01 L 403.67 1168.96 L 407.22 1166.30 L 410.75 1163.19 L 414.26 1159.88 L 418.07 1156.55 L 421.85 1153.38 L 425.52 1150.24 L 429.19 1146.55 L 432.19 1144.02 L 436.02 1140.80 L 440.42 1137.72 L 444.09 1135.40 L 447.23 1132.90 L 451.12 1130.10 L 454.09 1127.44 L 455.64 1125.93" />
  <path stroke="#ff0000" stroke-width="2.50" fill="none" class="wall" d="M 421.09 1195.52 L 421.76 1191.43 L 423.87 1187.76 L 426.86 1184.09 L 430.42 1180.11 L 433.78 1176.08 L 436.75 1172.55 L 439.61 1168.85 L 442.61 1165.46 L 445.13 1162.38 L 448.15 1158.93 L 451.66 1155.46 L 455.38 1151.95 L 458.44 1149.04 L 462.22 1146.01 L 465.80 1142.54 L 470.15 1138.20 L 474.49 1134.22 L 478.36 1129.96 L 481.19 1126.40 L 484.21 1122.96 L 486.09 1121.33" />
  <path stroke="#ff0000" stroke-width="2.50" fill="none" class="wall" d="M 400.87 1143.58 L 402.74 1143.07 L 403.49 1144.39 L 402.20 1145.53 L 404.34 1144.30 L 406.10 1145.03 L 405.34 1147.58 L 404.14 1149.32 L 402.44 1149.81" />
  <path stroke="#ff0000" stroke-width="2.50" fill="none" class="wall" d="M 482.64 1124.76 L 486.99 1120.65 L 492.82 1117.94 L 498.24 1116.18 L 503.84 1114.93 L 509.67 1114.01 L 515.24 1113.52 L 522.41 1112.60 L 528.28 1111.53 L 534.00 1109.02 L 538.08 1105.62 L 542.80 1100.63 L 547.42 1095.63 L 549.89 1093.57" />
  <path stroke="#ff0000" stroke-width="2.50" fill="none" class="wall" d="M 455.34 1126.10 L 460.22 1122.93 L 464.91 1119.65 L 469.60 1116.68 L 474.94 1113.67" />
  <path stroke="#ff0000" stroke-width="2.50" fill="none" class="wall" d="M 454.84 1126.29 L 456.30 1128.32" />
  <path stroke="#ff0000" stroke-width="2.50" fill="none" class="wall" d="M 547.07 1097.50 L 549.13 1092.43 L 551.23 1087.36 L 553.40 1081.98" />
  <path stroke="#ff0000" stroke-width="2.50" fill="none" class="wall" d="M 476.89 1112.94 L 471.28 1112.94 L 465.83 1112.49 L 459.84 1112.52 L 453.97 1112.49 L 448.52 1111.27 L 444.06 1107.53 L 444.29 1101.85 L 447.34 1096.55 L 451.80 1093.00 L 457.44 1091.90 L 462.82 1092.13" />
  <path stroke="#ff0000" stroke-width="2.50" fill="none" class="wall" d="M 497.43 1101.28 L 491.91 1099.94 L 486.19 1097.84 L 480.24 1095.37 L 473.84 1093.38 L 467.81 1092.20 L 461.37 1091.86" />
  <path stroke="#ff0000" stroke-width="2.50" fill="none" class="wall" d="M 551.02 1063.30 L 546.41 1065.92 L 542.63 1069.63 L 538.42 1073.81 L 533.75 1076.96 L 529.74 1080.07 L 525.63 1082.29 L 521.28 1085.05 L 517.11 1088.29 L 513.10 1091.35 L 508.65 1094.46 L 504.01 1097.48 L 499.64 1099.80 L 495.56 1099.63" />
  <path stroke="#ff0000" stroke-width="2.50" fill="none" class="wall" d="M 554.08 1084.85 L 557.13 1083.15 L 560.77 1082.42 L 564.74 1082.09 L 568.31 1082.47 L 571.62 1082.51 L 575.24 1081.35 L 578.43 1079.84 L 582.16 1077.81 L 585.87 1075.54 L 589.99 1073.22 L 594.24 1070.91 L 598.24 1069.06 L 601.83 1067.29" />
  <path stroke="#ff0000" stroke-width="2.50" fill="none" class="wall" d="M 600.29 1068.50 L 602.63 1066.09 L 605.21 1063.70 L 607.55 1061.17 L 609.30 1057.96 L 610.90 1055.08 L 612.65 1052.03 L 614.40 1049.03 L 616.01 1045.81 L 617.59 1042.41 L 619.15 1039.01 L 620.33 1035.60 L 621.09 1032.20 L 621.61 1028.68" />
  <path stroke="#ff0000" stroke-width="2.50" fill="none" class="wall" d="M 548.97 1063.96 L 552.71 1062.56 L 556.56 1061.43 L 560.53 1060.81 L 564.88 1060.17 L 568.43 1059.58" />
  <path stroke="#ff0000" stroke-width="2.50" fill="none" class="wall" d="M 609.86 1014.98 L 607.83 1018.76 L 606.32 1021.90 L 604.43 1024.85 L 602.75 1027.97 L 601.03 1031.40 L 598.85 1034.92 L 595.92 1037.64 L 593.04 1040.14 L 590.75 1042.65 L 588.41 1045.46 L 586.28 1048.06 L 584.18 1050.70 L 581.58 1053.19 L 579.36 1055.74 L 576.43 1057.91 L 572.91 1059.14 L 569.27 1059.94 L 565.63 1060.09" />
  <path stroke="#ff0000" stroke-width="2.50" fill="none" class="wall" d="M 621.01 1021.50 L 621.14 1023.85 L 621.34 1026.35 L 621.65 1029.48 L 621.88 1031.95" />
  <path stroke="#ff0000" stroke-width="2.50" fill="none" class="wall" d="M 620.74 1019.44 L 621.39 1020.82" />
  <path stroke="#ff0000" stroke-width="2.50" fill="none" class="wall" d="M 644.81 972.37 L 643.05 975.05 L 640.82 977.83 L 638.49 980.36 L 636.17 983.05 L 633.67 985.75 L 631.16 988.11 L 628.89 990.34 L 626.81 992.68 L 624.55 995.10 L 621.94 998.20 L 619.08 1001.17 L 617.12 1004.00 L 615.32 1006.46 L 613.32 1009.71 L 611.52 1013.17 L 610.05 1016.14 L 608.90 1017.61" />
  <path stroke="#ff0000" stroke-width="2.50" fill="none" class="wall" d="M 622.43 1019.37 L 623.58 1016.12 L 625.68 1012.66 L 627.80 1009.67 L 629.89 1006.76 L 631.95 1004.21 L 633.79 1001.53 L 635.98 998.86 L 638.42 996.03 L 640.86 993.84 L 643.29 992.00 L 646.26 990.00 L 649.59 988.15 L 652.97 987.09" />
  <path stroke="#ff0000" stroke-width="2.50" fill="none" class="wall" d="M 652.94 986.98 L 658.23 986.58 L 663.30 986.34 L 667.15 986.91 L 671.47 988.36 L 676.73 990.03 L 680.91 991.74 L 684.95 993.93 L 689.69 996.51 L 694.20 998.95 L 698.57 1001.40 L 702.39 1004.10 L 704.48 1005.90" />
  <path stroke="#ff0000" stroke-width="2.50" fill="none" class="wall" d="M 704.76 1003.78 L 710.02 1004.14 L 715.71 1003.68 L 721.04 1002.85" />
  <path stroke="#ff0000" stroke-width="2.50" fill="none" class="wall" d="M 644.52 973.46 L 645.18 971.97 L 645.93 970.43 L 646.75 968.89 L 647.53 967.43 L 648.63 966.07 L 649.84 965.02 L 651.32 963.94 L 652.83 963.18 L 654.44 962.63 L 656.27 962.11 L 658.25 961.91 L 659.90 962.03" />
  <path stroke="#ff0000" stroke-width="2.50" fill="none" class="wall" d="M 658.58 961.21 L 662.18 961.52 L 665.45 963.31 L 668.37 965.96 L 671.17 968.18 L 674.20 970.49 L 677.24 972.83 L 680.01 975.46 L 682.79 977.70 L 685.85 979.29 L 689.17 981.05 L 692.28 982.79 L 695.71 984.84 L 699.23 986.64 L 703.08 988.45 L 705.64 989.61" />
  <path stroke="#ff0000" stroke-width="2.50" fill="none" class="wall" d="M 716.39 988.48 L 712.87 989.59 L 709.49 990.17 L 705.42 990.15 L 702.16 989.40" />
  <path stroke="#ff0000" stroke-width="2.50" fill="none" class="wall" d="M 713.98 989.06 L 717.48 987.27 L 720.83 985.74 L 724.35 984.10 L 727.80 982.29 L 731.04 980.25 L 735.05 977.99 L 739.27 975.12 L 742.57 973.15 L 746.34 970.81 L 750.35 968.42 L 755.00 965.40 L 760.24 962.03 L 765.07 958.48 L 769.12 956.22 L 771.71 954.48" />
  <path stroke="#ff0000" stroke-width="2.50" fill="none" class="wall" d="M 721.46 1003.03 L 724.88 1001.24 L 728.40 999.38 L 732.05 997.72" />
  <path stroke="#ff0000" stroke-width="2.50" fill="none" class="wall" d="M 724.55 1002.12 L 728.63 999.88 L 731.85 998.17 L 735.60 996.53 L 739.10 994.80 L 742.57 992.93 L 745.92 991.15 L 749.16 989.16 L 752.74 987.10 L 756.41 984.91 L 760.06 982.94 L 763.20 981.28 L 766.48 979.62 L 769.85 977.91" />
  <path stroke="#ff0000" stroke-width="2.50" fill="none" class="wall" d="M 765.36 979.32 L 769.52 978.63 L 772.92 981.24 L 773.61 985.48 L 774.86 989.43 L 778.25 993.25 L 782.20 995.74 L 786.11 997.44 L 791.21 998.59 L 796.52 999.26 L 801.70 998.74 L 806.41 996.95" />
  <path stroke="#ff0000" stroke-width="2.50" fill="none" class="wall" d="M 827.64 949.71 L 824.30 952.60 L 823.43 957.09 L 822.15 961.64 L 820.73 966.52 L 819.21 971.56 L 817.66 977.05 L 815.96 982.05 L 814.14 986.51 L 811.20 991.25 L 807.53 995.04 L 803.77 997.71" />
  <path stroke="#ff0000" stroke-width="2.50" fill="none" class="wall" d="M 834.25 905.63 L 830.22 907.97 L 826.69 910.19 L 822.90 912.67 L 819.36 915.32 L 815.86 918.10 L 812.07 921.66 L 808.80 925.19 L 806.35 928.69 L 803.86 931.96 L 800.95 935.82 L 798.23 939.12 L 794.49 942.77 L 791.08 945.48 L 787.31 948.08 L 782.99 950.79 L 778.88 953.25 L 774.50 955.44 L 770.29 957.13 L 766.18 958.82" />
  <path stroke="#ff0000" stroke-width="2.50" fill="none" class="wall" d="M 833.10 904.93 L 837.21 902.56 L 841.69 901.20 L 845.88 901.05 L 849.79 902.27 L 852.02 903.40" />
  <path stroke="#ff0000" stroke-width="2.50" fill="none" class="wall" d="M 933.69 816.08 L 930.42 818.62 L 927.27 822.59 L 923.62 826.06 L 920.59 828.83 L 916.91 832.01 L 913.53 834.70 L 909.77 838.15 L 905.69 841.76 L 902.34 844.74 L 898.98 848.10 L 895.45 851.83 L 892.16 855.79 L 889.58 859.20 L 885.62 863.77 L 882.27 867.79 L 878.48 871.99 L 873.88 877.08 L 870.29 881.07 L 866.48 884.77 L 863.01 888.67 L 859.68 892.67 L 856.35 897.12 L 853.20 901.17" />
  <path stroke="#ff0000" stroke-width="2.50" fill="none" class="wall" d="M 871.45 915.63 L 872.26 911.93 L 875.85 907.36 L 879.52 903.08 L 883.31 899.84 L 888.14 896.05 L 893.00 891.80 L 896.84 888.76 L 901.76 884.36 L 905.55 881.13 L 908.70 877.71 L 911.77 874.36 L 916.08 869.50 L 920.36 863.86 L 924.87 858.42 L 928.66 852.64 L 932.13 846.88 L 935.60 841.18 L 938.06 836.53 L 940.17 832.22 L 941.73 828.51" />
  <path stroke="#ff0000" stroke-width="2.50" fill="none" class="wall" d="M 937.71 779.25 L 934.65 772.73 L 936.25 764.65 L 940.77 756.62 L 946.49 753.52 L 953.10 752.36 L 960.47 752.50 L 962.78 761.64 L 962.86 768.56 L 963.13 776.90 L 962.15 784.66 L 960.34 792.25 L 961.05 802.63" />
  <path stroke="#ff0000" stroke-width="2.50" fill="none" class="wall" d="M 971.96 819.13 L 966.99 819.76 L 966.41 820.47" />
  <path stroke="#ff0000" stroke-width="2.50" fill="none" class="wall" d="M 853.40 900.84 L 854.49 905.41 L 857.43 910.28 L 861.46 914.31 L 866.23 916.34 L 870.96 916.86 L 875.12 916.54" />
  <path stroke="#ff0000" stroke-width="2.50" fill="none" class="wall" d="M 852.14 905.77 L 846.27 908.57 L 844.11 909.48" />
  <path stroke="#ff0000" stroke-width="2.50" fill="none" class="wall" d="M 855.59 908.93 L 850.17 912.41 L 848.08 913.57" />
  <path stroke="#ff0000" stroke-width="2.50" fill="none" class="wall" d="M 859.71 913.41 L 855.27 916.73 L 852.72 918.69" />
  <path stroke="#ff0000" stroke-width="2.50" fill="none" class="wall" d="M 863.74 915.18 L 861.26 920.44 L 860.91 922.79" />
  <path stroke="#ff0000" stroke-width="2.50" fill="none" class="wall" d="M 868.29 916.41 L 866.77 921.21 L 866.32 926.91" />
  <path stroke="#ff0000" stroke-width="2.50" fill="none" class="wall" d="M 833.99 849.52 L 828.32 847.68 L 823.68 852.49 L 825.55 859.61 L 832.99 865.64 L 837.19 869.96 L 834.41 873.79 L 828.58 874.92 L 823.62 874.92" />
  <path stroke="#ff0000" stroke-width="2.50" fill="none" class="wall" d="M 844.44 867.77 L 843.89 861.61 L 844.44 855.90 L 844.02 861.54 L 844.21 868.67 L 845.47 872.76" />
  <path stroke="#ff0000" stroke-width="2.50" fill="none" class="wall" d="M 849.14 866.67 L 849.40 873.86 L 849.18 877.08" />
  <path stroke="#ff0000" stroke-width="2.50" fill="none" class="wall" d="M 851.56 855.68 L 853.62 852.00 L 857.39 858.45 L 856.97 863.67 L 862.71 862.35" />
  <path stroke="#ff0000" stroke-width="2.50" fill="none" class="wall" d="M 864.39 841.50 L 864.48 847.17 L 865.03 852.33 L 864.45 845.85 L 866.87 839.34 L 871.93 841.91 L 872.74 847.62 L 873.22 848.55 L 873.57 842.17 L 875.35 837.53 L 879.76 837.56 L 879.79 843.08 L 879.76 836.40 L 882.47 831.18 L 885.85 834.02 L 886.24 838.85 L 887.21 841.69" />
  <path stroke="#ff0000" stroke-width="2.50" fill="none" class="wall" d="M 853.96 936.43 L 849.45 937.08 L 845.61 940.17 L 842.20 943.20 L 837.95 945.77 L 833.28 946.16 L 828.61 947.51 L 824.90 950.25" />
  <path stroke="#ff0000" stroke-width="2.50" fill="none" class="wall" d="M 874.28 912.82 L 874.15 917.52 L 874.15 922.32 L 875.12 926.87 L 876.67 931.54 L 878.34 936.50 L 879.89 941.07 L 881.14 944.03" />
  <path stroke="#ff0000" stroke-width="2.50" fill="none" class="wall" d="M 879.12 939.59 L 880.13 941.56 L 880.64 943.82 L 881.16 946.16 L 881.76 948.58 L 882.60 950.78 L 883.60 952.77 L 884.67 955.05 L 885.80 957.46 L 886.85 959.69 L 887.85 962.02 L 888.83 963.88 L 890.03 965.85 L 890.70 967.04" />
  <path stroke="#ff0000" stroke-width="2.50" fill="none" class="wall" d="M 854.15 935.23 L 856.55 936.74 L 858.06 938.42 L 858.90 940.79 L 859.59 943.35 L 860.38 945.72 L 861.25 948.63 L 862.06 950.90 L 863.18 953.28 L 864.34 955.20 L 865.74 957.26 L 866.86 959.21 L 868.23 961.54 L 869.42 963.35 L 870.82 965.52 L 872.24 967.59 L 873.50 969.71 L 874.71 971.49 L 875.93 973.28 L 877.13 975.53" />
  <path stroke="#ff0000" stroke-width="2.50" fill="none" class="wall" d="M 876.71 974.53 L 877.60 976.61 L 878.55 978.90" />
  <path stroke="#ff0000" stroke-width="2.50" fill="none" class="wall" d="M 876.64 975.39 L 877.75 977.74 L 878.75 980.18 L 879.69 982.40 L 880.58 984.49 L 881.59 986.44 L 882.68 988.32 L 884.00 990.34 L 885.45 992.38 L 886.63 994.20 L 888.09 996.43 L 889.64 998.19 L 891.86 1000.14 L 894.03 1001.79 L 896.14 1003.12 L 899.06 1004.54 L 901.77 1005.59" />
  <path stroke="#ff0000" stroke-width="2.50" fill="none" class="wall" d="M 906.35 999.07 L 905.46 1001.06 L 904.43 1002.87 L 903.02 1004.71 L 901.59 1005.55" />
  <path stroke="#ff0000" stroke-width="2.50" fill="none" class="wall" d="M 889.82 964.83 L 890.42 966.57 L 891.19 968.29 L 891.99 969.85 L 892.82 971.45 L 893.68 973.22 L 894.50 974.58 L 895.55 976.06 L 896.84 977.22 L 898.32 978.44 L 899.80 979.42 L 901.39 980.50 L 903.01 981.55 L 904.27 982.66 L 905.02 983.32" />
  <path stroke="#ff0000" stroke-width="2.50" fill="none" class="wall" d="M 904.33 982.19 L 905.92 982.37 L 907.32 981.26 L 908.48 979.83 L 909.58 978.42 L 910.80 976.78 L 912.30 974.90 L 913.43 973.76 L 914.81 972.13 L 916.25 970.65 L 917.69 969.35 L 919.08 968.17 L 920.43 967.08 L 921.69 965.98 L 922.72 964.86" />
  <path stroke="#ff0000" stroke-width="2.50" fill="none" class="wall" d="M 906.69 999.97 L 907.42 999.12 L 908.46 998.58 L 909.53 998.13 L 910.92 997.53 L 912.19 996.92 L 913.22 996.42 L 914.31 995.93 L 915.55 995.24 L 916.66 994.64 L 917.93 993.96 L 918.80 993.39 L 919.72 992.61 L 920.50 991.82 L 921.28 990.81 L 921.53 990.17" />
  <path stroke="#ff0000" stroke-width="2.50" fill="none" class="wall" d="M 1014.24 838.25 L 1010.56 845.63 L 1006.77 852.05 L 1003.04 858.08 L 999.44 864.60 L 995.47 872.12 L 991.40 878.25 L 986.60 885.73 L 982.87 891.43 L 978.17 897.80 L 973.53 903.07 L 968.69 909.87 L 964.19 916.48 L 960.26 922.18 L 955.90 928.65 L 951.49 934.64 L 947.28 941.30 L 944.50 947.67 L 941.00 954.81 L 937.70 961.03 L 934.39 967.74 L 931.04 974.45 L 927.68 981.87 L 924.86 988.25 L 920.74 993.66" />
  <path stroke="#ff0000" stroke-width="2.50" fill="none" class="wall" d="M 987.49 862.44 L 985.62 865.89 L 983.59 869.11 L 980.97 872.28 L 978.53 875.42 L 976.17 878.62 L 973.34 882.28 L 970.64 885.79 L 968.45 888.88 L 965.96 892.85 L 963.52 896.56 L 961.26 900.80 L 959.21 904.95 L 957.31 908.74 L 955.31 912.38 L 953.16 916.09 L 950.93 919.83 L 948.77 923.88 L 947.03 927.18 L 945.29 930.40 L 943.65 933.78 L 941.73 937.13 L 939.42 940.58 L 937.03 944.48 L 934.54 948.19 L 932.10 951.33 L 929.14 955.10 L 926.54 958.55 L 923.06 962.06 L 920.62 965.05 L 919.11 966.60" />
  <path stroke="#ff0000" stroke-width="2.50" fill="none" class="wall" d="M 987.09 863.33 L 988.40 860.47 L 990.14 857.69 L 991.77 854.68 L 993.36 851.73 L 995.12 848.32 L 996.65 845.63 L 998.62 842.60 L 1000.23 840.01 L 1002.03 837.53 L 1004.21 834.54 L 1006.27 831.79 L 1008.20 829.52" />
  <path stroke="#ff0000" stroke-width="2.50" fill="none" class="wall" d="M 1075.20 702.78 L 1073.48 706.19 L 1070.75 709.97 L 1068.50 712.94 L 1065.99 716.35 L 1063.66 719.01 L 1060.84 722.05 L 1058.14 724.97 L 1055.71 727.82 L 1053.94 730.77 L 1052.42 733.96 L 1050.92 737.30 L 1049.08 740.61 L 1047.02 743.97 L 1045.10 747.66 L 1044.36 751.07 L 1044.56 754.78 L 1044.71 758.41 L 1043.90 762.04 L 1041.96 765.75 L 1040.22 768.89 L 1038.55 772.55 L 1037.25 775.91 L 1035.67 779.55 L 1033.81 783.33 L 1031.89 787.08 L 1030.20 790.28 L 1028.41 793.76 L 1026.37 796.81 L 1024.41 800.05 L 1022.34 803.66 L 1020.41 806.77 L 1018.42 810.28" />
  <path stroke="#ff0000" stroke-width="2.50" fill="none" class="wall" d="M 1013.74 838.80 L 1013.91 838.80 L 1014.31 837.87 L 1014.86 836.95 L 1015.49 835.89 L 1016.18 834.83 L 1016.83 833.81" />
  <path stroke="#ff0000" stroke-width="2.50" fill="none" class="wall" d="M 1005.26 833.88 L 1008.25 831.55 L 1011.00 829.31 L 1013.51 825.95 L 1014.69 822.41 L 1015.57 818.73 L 1016.80 814.36 L 1017.63 810.82 L 1019.35 807.24 L 1021.44 804.07" />
  <path stroke="#ff0000" stroke-width="2.50" fill="none" class="wall" d="M 1028.36 816.78 L 1029.48 815.35 L 1030.43 813.99 L 1031.60 812.37 L 1032.64 811.05 L 1033.86 809.60 L 1034.86 808.29 L 1036.07 806.94 L 1036.80 805.49 L 1037.39 804.07 L 1038.04 802.70 L 1038.95 801.12 L 1040.06 799.57 L 1041.03 798.16 L 1042.11 796.74 L 1043.37 794.87 L 1044.32 793.35 L 1045.37 791.50 L 1046.52 789.34 L 1047.56 787.37 L 1048.59 785.28 L 1049.63 783.40 L 1050.34 781.87 L 1051.25 780.40 L 1051.98 779.13 L 1052.96 777.57 L 1054.32 775.73 L 1055.22 774.62 L 1056.32 772.89 L 1057.41 771.01 L 1058.44 769.40 L 1059.62 767.73 L 1060.53 766.31 L 1061.54 764.82 L 1062.35 763.45 L 1063.35 761.79 L 1064.48 759.83" />
  <path stroke="#ff0000" stroke-width="2.50" fill="none" class="wall" d="M 1067.82 755.27 L 1069.01 753.81 L 1070.04 752.47 L 1070.91 751.18 L 1071.41 749.76 L 1071.72 748.30" />
  <path stroke="#ff0000" stroke-width="2.50" fill="none" class="wall" d="M 1113.87 700.27 L 1110.56 703.80 L 1107.93 707.67 L 1104.81 712.15 L 1102.40 715.68 L 1099.24 719.42 L 1096.30 722.89 L 1092.16 727.50 L 1089.34 730.81 L 1086.16 734.27 L 1082.17 738.63 L 1079.04 742.13 L 1075.80 746.09 L 1072.70 749.43 L 1070.13 752.03" />
  <path stroke="#ff0000" stroke-width="2.50" fill="none" class="wall" d="M 1069.86 749.71 L 1067.26 753.64 L 1064.81 757.44 L 1061.97 761.19" />
  <path stroke="#ff0000" stroke-width="2.50" fill="none" class="wall" d="M 1120.37 643.29 L 1117.47 646.08 L 1114.63 649.08 L 1112.03 652.14 L 1109.28 655.26 L 1106.61 658.65 L 1103.94 662.14 L 1101.59 665.48 L 1099.46 668.55 L 1097.11 672.23 L 1095.03 676.29 L 1093.00 679.48 L 1090.63 682.87 L 1088.38 686.26 L 1085.90 689.73 L 1083.11 693.04 L 1080.39 696.13 L 1077.52 699.43 L 1073.53 703.31 L 1070.34 706.43 L 1068.88 708.18" />
  <path stroke="#ff0000" stroke-width="2.50" fill="none" class="wall" d="M 1149.38 640.75 L 1146.81 643.15 L 1144.09 645.81 L 1141.38 648.46 L 1138.83 650.85 L 1136.24 652.79 L 1133.87 654.61 L 1131.64 656.87 L 1129.86 659.23 L 1128.15 661.76 L 1126.98 664.85 L 1125.81 667.88 L 1124.32 670.52 L 1123.03 674.03 L 1122.09 677.43 L 1121.21 680.53 L 1120.02 684.10 L 1118.97 687.41 L 1118.03 690.14 L 1117.01 693.01 L 1115.61 696.00 L 1114.04 698.90 L 1113.02 700.70" />
  <path stroke="#ff0000" stroke-width="2.50" fill="none" class="wall" d="M 1176.03 614.99 L 1175.76 618.07 L 1175.47 621.29 L 1173.91 624.69 L 1171.48 627.21 L 1168.49 629.46 L 1165.65 631.30 L 1162.10 633.83 L 1159.56 635.94 L 1156.45 638.21 L 1153.57 640.04 L 1150.24 641.52 L 1148.21 642.51" />
  <path stroke="#ff0000" stroke-width="2.50" fill="none" class="wall" d="M 1160.92 621.55 L 1159.50 622.90 L 1157.72 623.99 L 1155.73 625.12 L 1153.57 626.11 L 1151.49 627.13 L 1149.51 628.04 L 1147.27 629.08 L 1145.47 629.83 L 1142.90 631.00 L 1140.66 632.01 L 1139.03 632.83 L 1136.92 633.66 L 1134.97 634.64 L 1132.95 635.76 L 1130.97 636.90 L 1129.16 637.83 L 1126.93 638.94 L 1124.96 640.22 L 1123.58 641.22 L 1120.70 642.84 L 1118.67 643.88 L 1117.03 644.68" />
  <path stroke="#ff0000" stroke-width="2.50" fill="none" class="wall" d="M 1160.25 605.83 L 1161.02 607.44 L 1161.73 609.25 L 1162.32 611.13 L 1162.64 613.30 L 1162.64 615.41 L 1162.21 617.56 L 1161.45 619.61 L 1160.05 621.32 L 1158.54 622.74" />
  <path stroke="#ff0000" stroke-width="2.50" fill="none" class="wall" d="M 1158.76 575.80 L 1156.82 576.20 L 1154.95 576.99 L 1153.19 577.84 L 1151.68 578.87 L 1150.14 580.17 L 1149.01 581.66 L 1148.08 583.61 L 1147.68 585.66 L 1147.70 587.60 L 1148.22 589.76 L 1149.06 591.84 L 1150.07 593.39 L 1151.51 594.95 L 1153.06 596.24 L 1154.66 597.30 L 1156.17 598.61 L 1157.35 599.92 L 1158.45 601.33 L 1159.57 602.94 L 1160.59 604.50 L 1161.57 606.53 L 1161.92 607.50" />
  <path stroke="#ff0000" stroke-width="2.50" fill="none" class="wall" d="M 1166.97 570.48 L 1164.95 572.13 L 1163.27 573.65 L 1161.29 574.95 L 1159.21 575.88 L 1157.21 576.55" />
  <path stroke="#ff0000" stroke-width="2.50" fill="none" class="wall" d="M 1170.61 546.05 L 1170.27 548.67 L 1169.99 551.42 L 1169.77 554.07 L 1169.66 556.79 L 1169.63 559.29 L 1169.42 561.97 L 1168.95 564.66 L 1168.18 567.21 L 1166.97 569.70 L 1165.29 571.82" />
  <path stroke="#ff0000" stroke-width="2.50" fill="none" class="wall" d="M 1183.78 531.70 L 1181.85 530.41 L 1182.24 532.97 L 1182.41 535.33 L 1182.80 537.70 L 1183.51 540.11 L 1184.30 542.60 L 1185.33 544.87 L 1186.38 547.18 L 1187.53 549.41 L 1188.72 551.67 L 1189.83 554.01 L 1190.68 556.22 L 1191.21 559.10 L 1191.74 561.36 L 1192.17 563.73 L 1192.30 566.18 L 1192.18 568.73 L 1192.04 571.20 L 1192.00 573.58 L 1191.47 575.84 L 1190.42 578.03 L 1189.64 580.34 L 1188.82 582.70 L 1187.83 584.71 L 1186.58 586.75 L 1185.24 588.81 L 1183.97 590.92 L 1182.70 593.13 L 1181.32 595.52 L 1179.82 598.33 L 1178.68 601.05 L 1177.61 603.31 L 1176.47 605.90 L 1175.60 608.22 L 1175.05 610.54 L 1174.79 613.20 L 1174.64 615.99" />
  <path stroke="#ff0000" stroke-width="2.50" fill="none" class="wall" d="M 1185.31 505.58 L 1183.94 507.58 L 1182.46 509.75 L 1180.76 511.65 L 1178.66 513.68 L 1176.67 516.07 L 1174.90 518.26 L 1173.42 520.32 L 1171.95 522.60 L 1171.08 524.71 L 1170.39 527.00 L 1170.02 529.39 L 1170.12 531.77 L 1170.21 534.26 L 1170.50 537.17 L 1170.60 540.42 L 1170.70 543.44 L 1170.54 546.09 L 1170.35 548.17" />
  <path stroke="#ff0000" stroke-width="2.50" fill="none" class="wall" d="M 1189.33 496.90 L 1187.76 500.87 L 1185.65 504.69 L 1183.06 508.18 L 1181.24 510.28" />
  <path stroke="#ff0000" stroke-width="2.50" fill="none" class="wall" d="M 1241.61 389.21 L 1239.48 390.95 L 1237.92 393.05 L 1236.15 395.85 L 1234.54 398.33 L 1232.85 401.11 L 1230.98 403.77 L 1229.14 406.59 L 1227.59 409.23 L 1225.91 411.71 L 1224.40 414.32 L 1222.76 417.25 L 1221.51 419.73 L 1220.66 422.41" />
  <path stroke="#ff0000" stroke-width="2.50" fill="none" class="wall" d="M 1222.18 419.19 L 1220.94 421.74 L 1219.84 424.61 L 1218.74 427.30 L 1217.64 429.61 L 1216.24 432.63 L 1214.64 435.65 L 1213.05 438.80 L 1211.60 441.75 L 1209.84 444.93 L 1208.50 447.80 L 1207.22 451.25 L 1205.87 454.40 L 1204.63 457.40 L 1203.12 460.14 L 1201.23 463.13 L 1199.00 466.46 L 1196.69 469.58 L 1195.08 471.98 L 1193.70 474.57 L 1192.34 477.61 L 1191.39 480.71 L 1190.70 483.67 L 1190.44 487.47 L 1190.33 491.26 L 1190.05 494.76 L 1189.68 497.84 L 1188.80 500.58" />
  <path stroke="#ff0000" stroke-width="2.50" fill="none" class="wall" d="M 1219.50 422.49 L 1215.05 422.66 L 1211.30 423.03 L 1207.44 423.38 L 1202.84 423.46 L 1197.37 423.72 L 1193.39 423.91 L 1188.99 424.17 L 1185.59 424.54 L 1182.78 425.32" />
  <path stroke="#ff0000" stroke-width="2.50" fill="none" class="wall" d="M 1235.46 382.97 L 1233.39 380.99 L 1229.86 378.53 L 1227.48 376.87 L 1224.66 374.84 L 1220.54 371.65 L 1216.09 367.93 L 1211.13 363.77 L 1207.03 360.67 L 1203.56 358.42 L 1201.61 357.15" />
  <path stroke="#ff0000" stroke-width="2.50" fill="none" class="wall" d="M 1173.44 396.52 L 1172.96 400.19 L 1174.45 402.47 L 1177.86 402.82 L 1181.08 403.72 L 1180.67 406.63 L 1178.38 407.69" />
  <path stroke="#ff0000" stroke-width="2.50" fill="none" class="wall" d="M 1184.35 394.88 L 1180.82 396.60 L 1180.36 400.83 L 1183.66 402.24" />
  <path stroke="#ff0000" stroke-width="2.50" fill="none" class="wall" d="M 1186.55 393.97 L 1188.30 397.85 L 1190.81 396.82 L 1189.97 393.93" />
  <path stroke="#ff0000" stroke-width="2.50" fill="none" class="wall" d="M 1192.68 388.82 L 1193.18 392.64 L 1193.70 392.22 L 1191.99 389.89 L 1192.21 388.95 L 1194.82 388.13" />
  <path stroke="#ff0000" stroke-width="2.50" fill="none" class="wall" d="M 1198.57 386.66 L 1196.87 388.79 L 1199.61 390.85 L 1199.07 388.13 L 1199.89 390.69 L 1201.87 393.39 L 1203.25 396.09 L 1201.42 398.46 L 1199.80 396.19 L 1199.26 393.41 L 1199.59 390.58 L 1200.71 387.50" />
  <path stroke="#ff0000" stroke-width="2.50" fill="none" class="wall" d="M 1200.36 386.90 L 1203.30 385.47 L 1200.80 384.31 L 1200.51 387.80 L 1202.85 390.22 L 1204.44 390.24" />
  <path stroke="#ff0000" stroke-width="2.50" fill="none" class="wall" d="M 1207.38 387.31 L 1207.96 384.07 L 1205.22 381.83 L 1205.13 383.06 L 1208.04 382.56 L 1209.42 381.94" />
  <path stroke="#ff0000" stroke-width="2.50" fill="none" class="wall" d="M 1211.32 381.50 L 1213.46 379.74 L 1211.41 378.14 L 1209.99 381.44 L 1211.35 384.05 L 1213.96 385.23 L 1217.58 383.40" />
  <path stroke="#ff0000" stroke-width="2.50" fill="none" class="wall" d="M 1264.04 407.04 L 1259.91 407.68 L 1256.03 409.29 L 1251.88 412.22 L 1248.22 415.72 L 1245.59 418.79 L 1243.07 421.67 L 1240.04 424.50 L 1236.83 427.46 L 1234.25 431.23 L 1231.65 434.95 L 1229.02 438.94 L 1227.33 442.90 L 1225.58 446.70 L 1223.67 450.58 L 1221.98 454.23 L 1220.01 458.08" />
  <path stroke="#ff0000" stroke-width="2.50" fill="none" class="wall" d="M 1182.16 531.74 L 1183.22 527.83 L 1184.77 524.20 L 1187.87 521.57 L 1191.56 519.82 L 1195.07 517.88 L 1198.07 515.06 L 1200.39 511.65 L 1202.28 507.66 L 1203.89 503.92 L 1205.22 499.87 L 1206.32 495.63 L 1207.38 491.42 L 1208.32 487.13 L 1209.54 482.58 L 1210.92 477.79 L 1212.75 473.13 L 1214.25 469.03 L 1216.02 464.68 L 1218.18 460.74 L 1220.51 456.73 L 1222.59 453.37" />
  <path stroke="#ff0000" stroke-width="2.50" fill="none" class="wall" d="M 1276.49 392.60 L 1283.14 397.59 L 1288.01 401.65" />
  <path stroke="#ff0000" stroke-width="2.50" fill="none" class="wall" d="M 1238.94 390.16 L 1241.97 384.89 L 1245.59 380.25 L 1250.70 378.01 L 1256.12 378.80 L 1261.00 382.02 L 1264.97 386.15 L 1269.22 390.12 L 1274.25 392.64 L 1279.40 394.53" />
  <path stroke="#ff0000" stroke-width="2.50" fill="none" class="wall" d="M 1289.51 398.62 L 1293.60 394.02 L 1298.12 389.18 L 1305.04 381.75 L 1311.81 375.14 L 1314.28 372.62" />
  <path stroke="#ff0000" stroke-width="2.50" fill="none" class="wall" d="M 1203.08 420.60 L 1206.42 413.99 L 1209.33 408.61 L 1211.81 403.41 L 1213.89 398.11 L 1217.08 389.97 L 1220.46 382.22 L 1223.68 373.45 L 1226.67 367.35 L 1230.17 362.44 L 1235.99 357.52 L 1243.50 353.63 L 1251.01 351.66 L 1257.74 351.07 L 1266.35 351.54 L 1276.02 353.04 L 1283.14 355.40 L 1289.74 359.17 L 1297.06 365.15 L 1302.05 369.12 L 1306.54 372.62" />
  <path stroke="#ff0000" stroke-width="2.50" fill="none" class="wall" d="M 1314.20 370.77 L 1320.38 364.17 L 1324.98 359.21 L 1326.98 356.58" />
  <path stroke="#ff0000" stroke-width="2.50" fill="none" class="wall" d="M 1231.39 317.53 L 1225.53 318.04 L 1223.96 323.15 L 1228.05 329.21 L 1223.17 333.26" />
  <path stroke="#ff0000" stroke-width="2.50" fill="none" class="wall" d="M 1235.09 326.77 L 1230.37 331.49 L 1234.97 333.34" />
  <path stroke="#ff0000" stroke-width="2.50" fill="none" class="wall" d="M 1241.61 328.58 L 1239.73 333.85 L 1243.86 332.47" />
  <path stroke="#ff0000" stroke-width="2.50" fill="none" class="wall" d="M 1251.64 331.57 L 1249.40 337.15 L 1251.84 332.12 L 1255.42 332.08" />
  <path stroke="#ff0000" stroke-width="2.50" fill="none" class="wall" d="M 1260.37 335.26 L 1256.91 338.61 L 1261.94 342.22 L 1262.93 349.89 L 1258.37 347.65 L 1260.06 340.85" />
  <path stroke="#ff0000" stroke-width="2.50" fill="none" class="wall" d="M 1265.40 338.61 L 1264.93 337.47 L 1268.79 342.34" />
  <path stroke="#ff0000" stroke-width="2.50" fill="none" class="wall" d="M 1276.65 335.18 L 1275.55 341.40 L 1274.57 335.70 L 1281.17 336.33 L 1286.09 337.66" />
  <path stroke="#ff0000" stroke-width="2.50" fill="none" class="wall" d="M 1286.56 339.86 L 1292.69 339.63 L 1286.32 339.90 L 1285.42 346.67 L 1291.95 347.89" />
  <path stroke="#ff0000" stroke-width="2.50" fill="none" class="wall" d="M 1260.86 406.90 L 1264.68 406.60 L 1268.13 406.86 L 1271.60 407.69 L 1274.87 409.06 L 1278.46 410.58 L 1281.95 412.32 L 1284.75 414.40 L 1287.85 416.33 L 1291.21 418.50 L 1294.29 420.38 L 1297.69 422.85 L 1301.14 424.85 L 1304.17 426.42 L 1307.88 428.30 L 1311.63 430.10 L 1315.75 431.70 L 1320.10 433.78 L 1324.34 435.70 L 1327.67 437.46 L 1332.00 439.78 L 1335.66 441.65 L 1339.22 443.46 L 1341.70 444.62" />
  <path stroke="#ff0000" stroke-width="2.50" fill="none" class="wall" d="M 1287.18 401.56 L 1290.72 402.83 L 1294.10 404.03 L 1297.14 405.38 L 1300.45 406.95 L 1303.60 408.48 L 1306.67 409.73 L 1310.29 411.21 L 1314.48 413.02 L 1318.25 415.08 L 1321.42 416.70 L 1324.43 418.73 L 1327.30 420.77 L 1330.19 423.13 L 1332.97 425.45 L 1336.05 427.46 L 1338.13 430.10" />
  <path stroke="#ff0000" stroke-width="2.50" fill="none" class="wall" d="M 1347.70 444.39 L 1350.13 443.68 L 1351.65 443.37" />
  <path stroke="#ff0000" stroke-width="2.50" fill="none" class="wall" d="M 1341.72 444.14 L 1344.45 444.10 L 1347.06 443.95 L 1349.52 443.70 L 1351.97 443.37 L 1354.70 442.88 L 1357.39 442.35 L 1359.69 441.67 L 1361.98 440.82 L 1364.28 439.70" />
  <path stroke="#ff0000" stroke-width="2.50" fill="none" class="wall" d="M 1363.51 439.84 L 1365.80 439.41 L 1367.84 438.06 L 1369.25 435.94 L 1369.93 433.12 L 1370.54 430.25 L 1370.70 427.04 L 1370.76 424.65 L 1370.73 422.18 L 1370.76 419.32 L 1370.81 416.67 L 1370.87 414.12 L 1370.65 411.52" />
  <path stroke="#ff0000" stroke-width="2.50" fill="none" class="wall" d="M 1337.87 428.28 L 1340.16 429.17 L 1342.29 429.89 L 1344.65 430.49 L 1347.02 430.48 L 1349.71 430.07 L 1352.11 429.20 L 1354.06 427.84" />
  <path stroke="#ff0000" stroke-width="2.50" fill="none" class="wall" d="M 1370.76 406.58 L 1370.04 408.72 L 1369.84 411.12 L 1370.01 413.86 L 1370.33 416.32" />
  <path stroke="#ff0000" stroke-width="2.50" fill="none" class="wall" d="M 1333.51 372.60 L 1332.94 374.96" />
  <path stroke="#ff0000" stroke-width="2.50" fill="none" class="wall" d="M 1351.24 414.84 L 1351.23 417.19 L 1350.68 419.46 L 1351.48 421.78 L 1352.99 423.83 L 1354.28 425.97 L 1354.36 428.07" />
  <path stroke="#ff0000" stroke-width="2.50" fill="none" class="wall" d="M 1370.18 379.15 L 1369.38 380.91 L 1368.82 382.76 L 1368.26 384.83 L 1367.87 386.81 L 1367.60 388.94 L 1367.52 391.05 L 1367.59 393.16 L 1367.93 395.14 L 1368.46 397.07 L 1369.17 399.26 L 1369.89 401.23 L 1370.40 403.20 L 1370.83 405.14 L 1370.76 407.20 L 1370.32 409.06" />
  <path stroke="#ff0000" stroke-width="2.50" fill="none" class="wall" d="M 1333.46 374.00 L 1334.28 372.08 L 1335.80 370.65 L 1337.36 369.69" />
  <path stroke="#ff0000" stroke-width="2.50" fill="none" class="wall" d="M 1341.63 340.64 L 1341.88 345.78 L 1341.95 350.87 L 1341.88 355.31 L 1341.83 357.28" />
  <path stroke="#ff0000" stroke-width="2.50" fill="none" class="wall" d="M 1348.70 338.26 L 1349.11 342.87 L 1349.03 347.51 L 1348.56 352.08 L 1348.45 354.43" />
  <path stroke="#ff0000" stroke-width="2.50" fill="none" class="wall" d="M 1341.67 348.50 L 1344.50 347.55 L 1348.32 346.86 L 1350.35 346.79" />
  <path stroke="#cccccc" stroke-width="2.50" fill="none" class="user" d="M 1339.90 371.79 L 1339.88 372.18" />
  <path stroke="#cccccc" stroke-width="2.50" fill="none" class="user" d="M 1336.74 370.88 L 1337.05 371.93 L 1337.21 372.49" />
  <path stroke="#cccccc" stroke-width="2.50" fill="none" class="user" d="M 1334.54 372.77 L 1335.05 372.99 L 1335.60 373.13 L 1336.08 373.20" />
  <path stroke="#cccccc" stroke-width="2.50" fill="none" class="user" d="M 1333.56 375.77 L 1334.51 375.70 L 1334.94 375.66" />
  <path stroke="#cccccc" stroke-width="2.50" fill="none" class="user" d="M 1334.10 379.70 L 1334.56 379.31 L 1334.83 378.95" />
  <path stroke="#cccccc" stroke-width="2.50" fill="none" class="user" d="M 1336.94 382.07 L 1336.73 381.08 L 1336.58 379.94" />
  <path stroke="#cccccc" stroke-width="2.50" fill="none" class="user" d="M 1339.40 382.47 L 1339.09 382.00 L 1338.70 381.06" />
  <path stroke="#cccccc" stroke-width="2.50" fill="none" class="user" d="M 1342.87 380.52 L 1342.32 380.14 L 1341.63 379.69" />
  <path stroke="#cccccc" stroke-width="2.50" fill="none" class="user" d="M 1344.45 378.49 L 1343.70 378.18 L 1343.19 378.07" />
  <path stroke="#cccccc" stroke-width="2.50" fill="none" class="user" d="M 1345.89 374.59 L 1345.42 374.54 L 1344.81 374.53 L 1344.19 374.55" />
  <path stroke="#ff0000" stroke-width="2.50" fill="none" class="wall" d="M 1354.10 346.47 L 1355.90 342.92 L 1357.91 341.66 L 1358.52 344.07 L 1357.35 345.65 L 1357.42 345.25 L 1359.59 346.95" />
  <path stroke="#ff0000" stroke-width="2.50" fill="none" class="wall" d="M 1363.97 341.37 L 1363.51 344.41 L 1362.72 347.79" />
  <path stroke="#ff0000" stroke-width="2.50" fill="none" class="wall" d="M 1362.91 347.32 L 1364.05 343.37 L 1365.66 342.52 L 1366.11 345.69 L 1366.32 345.17 L 1367.92 344.24 L 1368.24 346.38 L 1367.93 348.58 L 1369.39 344.68 L 1371.28 343.67 L 1371.92 346.33 L 1371.72 349.00" />
  <path stroke="#cccccc" stroke-width="2.50" fill="none" class="user" d="M 1337.79 370.51 L 1335.98 370.82 L 1334.37 371.88 L 1333.53 373.73 L 1333.11 375.63 L 1333.12 377.82 L 1333.63 379.69 L 1334.92 381.52 L 1336.60 382.36 L 1339.06 382.90 L 1341.27 382.38 L 1343.49 380.98 L 1345.02 378.48 L 1345.95 375.96 L 1346.13 374.03" />
  <path stroke="#ff0000" stroke-width="2.50" fill="none" class="wall" d="M 1364.77 362.66 L 1362.72 362.75 L 1360.56 363.11 L 1358.48 363.51 L 1356.28 363.82 L 1354.07 364.28 L 1351.60 364.82 L 1349.56 365.34 L 1347.49 365.92 L 1345.18 366.52 L 1342.22 367.27 L 1339.96 368.02 L 1338.16 368.78 L 1336.11 369.61 L 1335.22 370.15" />
  <path stroke="#ff0000" stroke-width="2.50" fill="none" class="wall" d="M 1405.78 368.34 L 1404.14 369.60 L 1402.51 370.38 L 1400.60 371.03 L 1398.95 371.66 L 1396.93 372.12 L 1394.88 372.65 L 1392.89 373.17 L 1391.17 373.63 L 1389.43 374.11 L 1387.73 374.59 L 1385.74 374.99 L 1383.70 375.22 L 1381.63 375.18 L 1379.40 375.33 L 1377.32 375.68 L 1375.47 376.11 L 1373.68 376.67 L 1371.72 377.42 L 1370.12 378.73 L 1369.06 380.28" />
  <path stroke="#ff0000" stroke-width="2.50" fill="none" class="wall" d="M 1333.08 374.00 L 1332.81 376.49 L 1333.10 378.78 L 1333.64 381.21 L 1334.22 383.60 L 1334.98 385.92 L 1335.94 388.16 L 1336.97 390.16 L 1338.09 392.21 L 1339.32 394.19 L 1340.54 396.14 L 1341.75 398.23 L 1343.08 400.31 L 1344.55 402.93" />
  <path stroke="#ff0000" stroke-width="2.50" fill="none" class="wall" d="M 1347.18 407.71 L 1348.44 410.18 L 1349.93 412.79 L 1351.27 415.12" />
  <path stroke="#cccccc" stroke-width="2.50" fill="none" class="user" d="M 1361.01 429.91 L 1359.67 430.72 L 1358.26 431.42 L 1356.99 432.02 L 1355.29 432.62 L 1352.96 433.36 L 1351.39 433.91 L 1349.81 434.58 L 1348.40 435.29 L 1346.94 436.04 L 1345.58 437.19 L 1345.79 438.72 L 1347.66 439.39 L 1349.26 439.40 L 1351.21 438.96 L 1353.22 438.25 L 1354.64 437.70 L 1356.35 437.28 L 1358.07 436.78 L 1359.73 436.09 L 1361.39 435.35 L 1362.69 434.74 L 1364.10 433.61 L 1364.68 432.01 L 1364.29 430.37 L 1362.36 429.60 L 1360.57 429.69 L 1359.93 429.91" />
  <path stroke="#ff0000" stroke-width="2.50" fill="none" class="wall" d="M 1406.43 368.67 L 1402.41 369.14" />
  <path stroke="#ff0000" stroke-width="2.50" fill="none" class="wall" d="M 1362.88 361.64 L 1366.36 360.84 L 1369.73 359.56 L 1373.71 358.18 L 1377.83 356.95 L 1381.87 356.20 L 1386.38 356.00 L 1390.32 356.60 L 1393.51 357.60" />
  <path stroke="#cccccc" stroke-width="2.50" fill="none" class="user" d="M 1393.08 357.86 L 1394.52 358.50 L 1396.09 359.42 L 1397.56 360.39 L 1398.98 361.64 L 1400.39 363.16 L 1401.57 364.90 L 1402.27 366.25 L 1402.89 368.01 L 1403.08 369.41 L 1403.23 370.78" />
  <path stroke="#cccccc" stroke-width="2.50" fill="none" class="user" d="M 1394.96 358.92 L 1396.20 357.42 L 1397.46 356.05" />
  <path stroke="#cccccc" stroke-width="2.50" fill="none" class="user" d="M 1398.44 362.09 L 1399.45 360.89 L 1400.50 359.74 L 1401.56 358.67 L 1402.07 358.08" />
  <path stroke="#cccccc" stroke-width="2.50" fill="none" class="user" d="M 1401.16 364.38 L 1402.31 363.24 L 1403.48 362.19 L 1404.59 361.19 L 1405.09 360.80" />
  <path stroke="#cccccc" stroke-width="2.50" fill="none" class="user" d="M 1402.74 366.88 L 1404.57 365.86 L 1406.10 365.04 L 1407.53 364.21" />
  <path stroke="#cccccc" stroke-width="2.50" fill="none" class="user" d="M 1403.57 367.76 L 1405.43 367.59 L 1406.60 367.58" />
  <path stroke="#ff0000" stroke-width="2.50" fill="none" class="wall" d="M 1426.28 345.28 L 1422.04 349.61 L 1421.54 355.31 L 1426.74 359.60" />
  <path stroke="#ff0000" stroke-width="2.50" fill="none" class="wall" d="M 1445.86 352.26 L 1450.87 353.80 L 1455.11 354.69 L 1460.12 355.67 L 1465.00 356.80 L 1468.83 357.68 L 1473.27 358.91 L 1478.07 360.43 L 1481.48 362.12 L 1486.98 365.46 L 1491.35 368.62 L 1495.12 370.98 L 1498.61 373.31 L 1501.87 375.20 L 1505.38 377.23 L 1508.49 379.25 L 1511.19 381.45 L 1514.28 383.69 L 1517.82 385.94 L 1521.37 388.42 L 1525.55 391.07 L 1529.62 393.80 L 1534.08 396.81 L 1537.30 398.58 L 1540.58 400.27 L 1543.33 401.52" />
  <path stroke="#ff0000" stroke-width="2.50" fill="none" class="wall" d="M 1411.93 382.98 L 1417.11 382.71 L 1420.59 382.56 L 1424.32 382.24 L 1429.89 382.09 L 1433.82 383.27 L 1438.40 385.99 L 1442.48 389.55 L 1446.45 393.11 L 1449.05 395.98 L 1452.61 399.59 L 1456.04 402.95 L 1460.02 406.46 L 1463.45 409.99 L 1467.40 413.20 L 1472.31 416.81 L 1476.11 419.34 L 1477.88 420.00" />
  <path stroke="#ff0000" stroke-width="2.50" fill="none" class="wall" d="M 1342.51 340.26 L 1345.52 341.29 L 1348.60 342.06 L 1352.01 342.89 L 1354.76 343.61 L 1358.28 344.61 L 1361.09 345.37 L 1364.17 346.33 L 1366.98 347.20 L 1369.66 348.07 L 1372.56 348.98 L 1375.51 349.74 L 1378.41 350.54 L 1381.29 351.33 L 1384.19 351.81 L 1386.84 352.31 L 1389.70 352.97 L 1392.00 354.09 L 1394.76 356.46 L 1396.33 357.51" />
  <path stroke="#ff0000" stroke-width="2.50" fill="none" class="wall" d="M 1421.50 358.69 L 1419.02 358.98 L 1415.80 357.55 L 1412.26 355.74 L 1409.36 353.98 L 1406.10 351.59 L 1401.17 347.78 L 1396.62 344.19 L 1391.66 340.15 L 1386.40 334.88 L 1383.99 331.29 L 1383.29 328.14" />
  <path stroke="#ff0000" stroke-width="2.50" fill="none" class="wall" d="M 1418.62 358.81 L 1424.98 356.18 L 1432.61 353.33 L 1441.03 349.45 L 1445.96 347.39 L 1448.02 346.49" />
  <path stroke="#ff0000" stroke-width="2.50" fill="none" class="wall" d="M 1458.20 289.79 L 1453.50 288.89 L 1448.26 290.85 L 1445.17 296.18 L 1450.29 298.03 L 1454.99 294.34 L 1454.74 297.88 L 1455.56 306.93 L 1453.47 314.38 L 1448.72 316.78 L 1449.72 311.84 L 1457.41 306.36 L 1466.01 300.24 L 1463.40 301.18 L 1460.04 305.94 L 1464.40 307.60 L 1469.58 302.85 L 1468.76 301.48 L 1470.61 306.48 L 1479.94 305.48 L 1488.42 298.58 L 1493.69 290.37 L 1494.11 283.46 L 1485.36 287.25 L 1477.03 296.43 L 1471.94 306.06 L 1473.37 314.05 L 1481.21 316.17 L 1488.78 313.29 L 1494.66 309.24 L 1493.23 308.60 L 1489.48 313.51 L 1489.36 318.93 L 1495.23 321.83 L 1500.17 320.47 L 1503.92 316.87 L 1500.29 314.78 L 1505.10 316.44 L 1501.80 320.87 L 1498.65 326.29 L 1500.08 330.65 L 1505.19 332.19 L 1509.89 331.25 L 1509.61 336.10 L 1512.19 336.70" />
</g>
<g id="areas">
</g>
</g>
<g id="xsections">
</g>
<g id="stations">
<text font-size="32" fill="violet" stroke="none" text-anchor="middle" x="374.24" y="1154.21" >8</text>
<text font-size="32" fill="violet" stroke="none" text-anchor="middle" x="312.31" y="1178.57" >7</text>
<text font-size="32" fill="violet" stroke="none" text-anchor="middle" x="401.62" y="1190.28" >9</text>
<text font-size="32" fill="violet" stroke="none" text-anchor="middle" x="498.42" y="1102.34" >10</text>
<text font-size="32" fill="violet" stroke="none" text-anchor="middle" x="552.10" y="1081.33" >11</text>
<text font-size="32" fill="violet" stroke="none" text-anchor="middle" x="620.65" y="1020.09" >12</text>
<text font-size="32" fill="violet" stroke="none" text-anchor="middle" x="653.56" y="964.33" >13</text>
<text font-size="32" fill="violet" stroke="none" text-anchor="middle" x="326.29" y="1020.40" >6</text>
<text font-size="32" fill="violet" stroke="none" text-anchor="middle" x="719.44" y="1002.72" >14</text>
<text font-size="32" fill="violet" stroke="none" text-anchor="middle" x="827.64" y="940.43" >15</text>
<text font-size="32" fill="violet" stroke="none" text-anchor="middle" x="877.21" y="944.00" >16</text>
<text font-size="32" fill="violet" stroke="none" text-anchor="middle" x="905.78" y="1000.09" >17</text>
<text font-size="32" fill="violet" stroke="none" text-anchor="middle" x="1013.33" y="838.98" >18</text>
<text font-size="32" fill="violet" stroke="none" text-anchor="middle" x="1071.16" y="749.04" >19</text>
<text font-size="32" fill="violet" stroke="none" text-anchor="middle" x="1118.04" y="645.57" >20</text>
<text font-size="32" fill="violet" stroke="none" text-anchor="middle" x="1170.44" y="626.62" >21</text>
<text font-size="32" fill="violet" stroke="none" text-anchor="middle" x="1170.84" y="545.25" >22</text>
<text font-size="32" fill="violet" stroke="none" text-anchor="middle" x="1251.05" y="385.29" >23</text>
<text font-size="32" fill="violet" stroke="none" text-anchor="middle" x="1341.69" y="443.78" >24</text>
<text font-size="32" fill="violet" stroke="none" text-anchor="middle" x="1369.49" y="414.21" >25</text>
<text font-size="32" fill="violet" stroke="none" text-anchor="middle" x="1334.80" y="375.37" >26</text>
<text font-size="32" fill="violet" stroke="none" text-anchor="middle" x="1419.12" y="359.86" >27</text>
<text font-size="32" fill="violet" stroke="none" text-anchor="middle" x="323.12" y="932.70" >5</text>
<text font-size="32" fill="violet" stroke="none" text-anchor="middle" x="315.03" y="871.45" >4</text>
<text font-size="32" fill="violet" stroke="none" text-anchor="middle" x="288.06" y="732.11" >3</text>
<text font-size="32" fill="violet" stroke="none" text-anchor="middle" x="324.00" y="658.31" >2</text>
<text font-size="32" fill="violet" stroke="none" text-anchor="middle" x="319.71" y="626.70" >1</text>
<text font-size="32" fill="violet" stroke="none" text-anchor="middle" x="182.58" y="682.68" >0</text>
</g>
</svg>
