<svg xmlns:i="http://ns.adobe.com/AdobeIllustrator/10.0/" xmlns:dc="http://purl.org/dc/elements/1.1/" xmlns:cc="http://creativecommons.org/ns#" xmlns:rdf="http://www.w3.org/1999/02/22-rdf-syntax-ns#" xmlns:svg="http://www.w3.org/2000/svg" xmlns="http://www.w3.org/2000/svg" xmlns:xlink="http://www.w3.org/1999/xlink" xmlns:sodipodi="http://sodipodi.sourceforge.net/DTD/sodipodi-0.dtd" xmlns:inkscape="http://www.inkscape.org/namespaces/inkscape" 
 width="763pt" height="498pt"
  version="1.1"
  id="svg46"
  sodipodi:docname="Pestera_Piciorul_Beni_din_mina-1p.svg"
  inkscape:version="0.92.4 (5da689c313, 2019-01-14)">
<!-- SVG created by TopoDroid v. 6.0.92 -->
  <sodipodi:namedview pagecolor="#ffffff" bordercolor="#666666" borderopacity="1" objecttolerance="10" gridtolerance="10" guidetolerance="10" inkscape:pageopacity="0" inkscape:pageshadow="2" inkscape:window-width="auto" inkscape:window-height="auto" id="namedview48" showgrid="false" inkscape:zoom="1" inkscape:cx="auto" inkscape:cy="auto" inkscape:window-x="0" inkscape:window-y="0" inkscape:window-maximized="1" inkscape:current-layer="w2d_Walls_shp" showborder="false"/>
  <defs>
    <marker id="Triangle" viewBox="0 0 10 10" refX="0" refY="5" 
      markerUnits="strokeWidth" markerWidth="4" markerHeight="3" orient="auto" >
      <path d="M 0 0 L 10 5 L 0 10 z" />
    </marker>
  </defs>
<g id="grid"
  style="fill:none;stroke-opacity:0.4" >
<g id="grid1"
 style="fill:none;stroke-opacity:0.4;stroke-width=2.50;stroke:#666666" >
  <path stroke-width="2.50" stroke="#999999" d="M 39.90 0.00 L 39.90 706.78" />
  <path stroke-width="2.50" stroke="#999999" d="M 68.25 0.00 L 68.25 706.78" />
  <path stroke-width="2.50" stroke="#999999" d="M 96.59 0.00 L 96.59 706.78" />
  <path stroke-width="2.50" stroke="#999999" d="M 124.94 0.00 L 124.94 706.78" />
  <path stroke-width="2.50" stroke="#999999" d="M 153.29 0.00 L 153.29 706.78" />
  <path stroke-width="2.50" stroke="#999999" d="M 181.63 0.00 L 181.63 706.78" />
  <path stroke-width="2.50" stroke="#999999" d="M 209.98 0.00 L 209.98 706.78" />
  <path stroke-width="2.50" stroke="#999999" d="M 238.32 0.00 L 238.32 706.78" />
  <path stroke-width="2.50" stroke="#999999" d="M 266.67 0.00 L 266.67 706.78" />
  <path stroke-width="2.50" stroke="#999999" d="M 323.36 0.00 L 323.36 706.78" />
  <path stroke-width="2.50" stroke="#999999" d="M 351.71 0.00 L 351.71 706.78" />
  <path stroke-width="2.50" stroke="#999999" d="M 380.06 0.00 L 380.06 706.78" />
  <path stroke-width="2.50" stroke="#999999" d="M 408.40 0.00 L 408.40 706.78" />
  <path stroke-width="2.50" stroke="#999999" d="M 436.75 0.00 L 436.75 706.78" />
  <path stroke-width="2.50" stroke="#999999" d="M 465.10 0.00 L 465.10 706.78" />
  <path stroke-width="2.50" stroke="#999999" d="M 493.44 0.00 L 493.44 706.78" />
  <path stroke-width="2.50" stroke="#999999" d="M 521.79 0.00 L 521.79 706.78" />
  <path stroke-width="2.50" stroke="#999999" d="M 550.14 0.00 L 550.14 706.78" />
  <path stroke-width="2.50" stroke="#999999" d="M 606.83 0.00 L 606.83 706.78" />
  <path stroke-width="2.50" stroke="#999999" d="M 635.17 0.00 L 635.17 706.78" />
  <path stroke-width="2.50" stroke="#999999" d="M 663.52 0.00 L 663.52 706.78" />
  <path stroke-width="2.50" stroke="#999999" d="M 691.87 0.00 L 691.87 706.78" />
  <path stroke-width="2.50" stroke="#999999" d="M 720.21 0.00 L 720.21 706.78" />
  <path stroke-width="2.50" stroke="#999999" d="M 748.56 0.00 L 748.56 706.78" />
  <path stroke-width="2.50" stroke="#999999" d="M 776.91 0.00 L 776.91 706.78" />
  <path stroke-width="2.50" stroke="#999999" d="M 805.25 0.00 L 805.25 706.78" />
  <path stroke-width="2.50" stroke="#999999" d="M 833.60 0.00 L 833.60 706.78" />
  <path stroke-width="2.50" stroke="#999999" d="M 890.29 0.00 L 890.29 706.78" />
  <path stroke-width="2.50" stroke="#999999" d="M 918.64 0.00 L 918.64 706.78" />
  <path stroke-width="2.50" stroke="#999999" d="M 946.99 0.00 L 946.99 706.78" />
  <path stroke-width="2.50" stroke="#999999" d="M 975.33 0.00 L 975.33 706.78" />
  <path stroke-width="2.50" stroke="#999999" d="M 1003.68 0.00 L 1003.68 706.78" />
  <path stroke-width="2.50" stroke="#999999" d="M 1032.03 0.00 L 1032.03 706.78" />
  <path stroke-width="2.50" stroke="#999999" d="M 1060.37 0.00 L 1060.37 706.78" />
  <path stroke-width="2.50" stroke="#999999" d="M 0.00 26.32 L 1081.90 26.32" />
  <path stroke-width="2.50" stroke="#999999" d="M 0.00 83.01 L 1081.90 83.01" />
  <path stroke-width="2.50" stroke="#999999" d="M 0.00 111.36 L 1081.90 111.36" />
  <path stroke-width="2.50" stroke="#999999" d="M 0.00 139.71 L 1081.90 139.71" />
  <path stroke-width="2.50" stroke="#999999" d="M 0.00 168.05 L 1081.90 168.05" />
  <path stroke-width="2.50" stroke="#999999" d="M 0.00 196.40 L 1081.90 196.40" />
  <path stroke-width="2.50" stroke="#999999" d="M 0.00 224.75 L 1081.90 224.75" />
  <path stroke-width="2.50" stroke="#999999" d="M 0.00 253.09 L 1081.90 253.09" />
  <path stroke-width="2.50" stroke="#999999" d="M 0.00 281.44 L 1081.90 281.44" />
  <path stroke-width="2.50" stroke="#999999" d="M 0.00 309.78 L 1081.90 309.78" />
  <path stroke-width="2.50" stroke="#999999" d="M 0.00 366.48 L 1081.90 366.48" />
  <path stroke-width="2.50" stroke="#999999" d="M 0.00 394.82 L 1081.90 394.82" />
  <path stroke-width="2.50" stroke="#999999" d="M 0.00 423.17 L 1081.90 423.17" />
  <path stroke-width="2.50" stroke="#999999" d="M 0.00 451.52 L 1081.90 451.52" />
  <path stroke-width="2.50" stroke="#999999" d="M 0.00 479.86 L 1081.90 479.86" />
  <path stroke-width="2.50" stroke="#999999" d="M 0.00 508.21 L 1081.90 508.21" />
  <path stroke-width="2.50" stroke="#999999" d="M 0.00 536.56 L 1081.90 536.56" />
  <path stroke-width="2.50" stroke="#999999" d="M 0.00 564.90 L 1081.90 564.90" />
  <path stroke-width="2.50" stroke="#999999" d="M 0.00 593.25 L 1081.90 593.25" />
  <path stroke-width="2.50" stroke="#999999" d="M 0.00 649.94 L 1081.90 649.94" />
  <path stroke-width="2.50" stroke="#999999" d="M 0.00 678.29 L 1081.90 678.29" />
  <path stroke-width="2.50" stroke="#999999" d="M 0.00 706.64 L 1081.90 706.64" />
</g>
<g id="grid10"
 style="fill:none;stroke-opacity:0.6;stroke-width=2.50;stroke:#666666" >
  <path stroke-width="2.50" stroke="#666666" d="M 11.55 0.00 L 11.55 706.78" />
  <path stroke-width="2.50" stroke="#666666" d="M 578.48 0.00 L 578.48 706.78" />
  <path stroke-width="2.50" stroke="#666666" d="M 861.95 0.00 L 861.95 706.78" />
  <path stroke-width="2.50" stroke="#666666" d="M 0.00 54.67 L 1081.90 54.67" />
  <path stroke-width="2.50" stroke="#666666" d="M 0.00 621.60 L 1081.90 621.60" />
</g>
<g id="grid100"
 style="fill:none;stroke-opacity:0.8;stroke-width=2.50;stroke:#666666" >
  <path stroke-width="2.50" stroke="#333333" d="M 295.02 0.00 L 295.02 706.78" />
  <path stroke-width="2.50" stroke="#333333" d="M 0.00 338.13 L 1081.90 338.13" />
</g>
</g>
<g id="legs" style="fill:none;stroke-opacity:0.6;stroke:red" >
  <path stroke-width="2.50" stroke="black" d="M 295.02 338.13 L 432.14 282.15" />
  <path stroke-width="2.50" stroke="black" d="M 432.14 282.15 L 436.43 313.76" />
  <path stroke-width="2.50" stroke="black" d="M 436.43 313.76 L 400.50 387.56" />
  <path stroke-width="2.50" stroke="black" d="M 400.50 387.56 L 427.46 526.90" />
  <path stroke-width="2.50" stroke="black" d="M 427.46 526.90 L 435.56 588.15" />
  <path stroke-width="2.50" stroke="black" d="M 435.56 588.15 L 438.72 675.85" />
  <path stroke-width="2.50" stroke="black" d="M 438.72 675.85 L 424.74 834.02" />
  <path stroke-width="2.50" stroke="black" d="M 424.74 834.02 L 486.68 809.66" />
  <path stroke-width="2.50" stroke="black" d="M 486.68 809.66 L 514.06 845.74" />
  <path stroke-width="2.50" stroke="black" d="M 514.06 845.74 L 610.85 757.80" />
  <path stroke-width="2.50" stroke="black" d="M 610.85 757.80 L 664.54 736.78" />
  <path stroke-width="2.50" stroke="black" d="M 664.54 736.78 L 733.09 675.55" />
  <path stroke-width="2.50" stroke="black" d="M 733.09 675.55 L 765.99 619.78" />
  <path stroke-width="2.50" stroke="black" d="M 765.99 619.78 L 831.88 658.17" />
  <path stroke-width="2.50" stroke="black" d="M 831.88 658.17 L 940.08 595.88" />
  <path stroke-width="2.50" stroke="black" d="M 940.08 595.88 L 989.65 599.45" />
  <path stroke-width="2.50" stroke="black" d="M 989.65 599.45 L 1018.21 655.54" />
  <path stroke-width="2.50" stroke="black" d="M 1018.21 655.54 L 1125.77 494.43" />
  <path stroke-width="2.50" stroke="black" d="M 1125.77 494.43 L 1183.60 404.49" />
  <path stroke-width="2.50" stroke="black" d="M 1183.60 404.49 L 1230.47 301.02" />
  <path stroke-width="2.50" stroke="black" d="M 1230.47 301.02 L 1282.88 282.07" />
  <path stroke-width="2.50" stroke="black" d="M 1282.88 282.07 L 1283.28 200.70" />
  <path stroke-width="2.50" stroke="black" d="M 1283.28 200.70 L 1363.48 40.74" />
  <path stroke-width="2.50" stroke="black" d="M 1363.48 40.74 L 1454.12 99.23" />
  <path stroke-width="2.50" stroke="black" d="M 1454.12 99.23 L 1481.93 69.66" />
  <path stroke-width="2.50" stroke="black" d="M 1481.93 69.66 L 1447.23 30.82" />
  <path stroke-width="2.50" stroke="black" d="M 1447.23 30.82 L 1531.55 15.32" />
</g>
<g id="splays"
  style="fill:none;stroke-opacity:0.4;stroke:grey" >
  <path stroke-width="2.50" stroke="grey" d="M 295.02 338.13 L 285.04 297.13" />
  <path stroke-width="2.50" stroke="grey" d="M 295.02 338.13 L 288.71 254.22" />
  <path stroke-width="2.50" stroke="grey" d="M 295.02 338.13 L 314.09 274.40" />
  <path stroke-width="2.50" stroke="grey" d="M 295.02 338.13 L 362.65 235.05" />
  <path stroke-width="2.50" stroke="grey" d="M 295.02 338.13 L 386.53 254.71" />
  <path stroke-width="2.50" stroke="grey" d="M 295.02 338.13 L 398.13 255.51" />
  <path stroke-width="2.50" stroke="grey" d="M 295.02 338.13 L 453.57 281.81" />
  <path stroke-width="2.50" stroke="grey" d="M 295.02 338.13 L 502.99 312.42" />
  <path stroke-width="2.50" stroke="grey" d="M 295.02 338.13 L 456.73 366.35" />
  <path stroke-width="2.50" stroke="grey" d="M 295.02 338.13 L 399.74 392.53" />
  <path stroke-width="2.50" stroke="grey" d="M 295.02 338.13 L 373.68 409.58" />
  <path stroke-width="2.50" stroke="grey" d="M 295.02 338.13 L 323.27 404.52" />
  <path stroke-width="2.50" stroke="grey" d="M 295.02 338.13 L 295.78 375.79" />
  <path stroke-width="2.50" stroke="grey" d="M 295.02 338.13 L 405.97 393.89" />
  <path stroke-width="2.50" stroke="grey" d="M 295.02 338.13 L 405.92 320.31" />
  <path stroke-width="2.50" stroke="grey" d="M 295.02 338.13 L 417.61 287.09" />
  <path stroke-width="2.50" stroke="grey" d="M 295.02 338.13 L 456.51 284.32" />
  <path stroke-width="2.50" stroke="grey" d="M 295.02 338.13 L 337.19 215.29" />
  <path stroke-width="2.50" stroke="grey" d="M 295.02 338.13 L 370.89 222.15" />
  <path stroke-width="2.50" stroke="grey" d="M 295.02 338.13 L 399.02 227.90" />
  <path stroke-width="2.50" stroke="grey" d="M 295.02 338.13 L 406.49 240.04" />
  <path stroke-width="2.50" stroke="grey" d="M 295.02 338.13 L 439.31 221.21" />
  <path stroke-width="2.50" stroke="grey" d="M 295.02 338.13 L 413.41 268.66" />
  <path stroke-width="2.50" stroke="grey" d="M 295.02 338.13 L 378.23 312.55" />
  <path stroke-width="2.50" stroke="grey" d="M 295.02 338.13 L 300.15 336.33" />
  <path stroke-width="2.50" stroke="grey" d="M 295.02 338.13 L 316.93 285.52" />
  <path stroke-width="2.50" stroke="grey" d="M 295.02 338.13 L 527.89 301.69" />
  <path stroke-width="2.50" stroke="grey" d="M 432.14 282.15 L 517.45 305.23" />
  <path stroke-width="2.50" stroke="grey" d="M 432.14 282.15 L 474.18 314.94" />
  <path stroke-width="2.50" stroke="grey" d="M 432.14 282.15 L 555.83 335.97" />
  <path stroke-width="2.50" stroke="grey" d="M 432.14 282.15 L 462.93 322.38" />
  <path stroke-width="2.50" stroke="grey" d="M 432.14 282.15 L 445.97 355.92" />
  <path stroke-width="2.50" stroke="grey" d="M 432.14 282.15 L 431.62 352.41" />
  <path stroke-width="2.50" stroke="grey" d="M 432.14 282.15 L 398.46 332.24" />
  <path stroke-width="2.50" stroke="grey" d="M 432.14 282.15 L 388.41 327.46" />
  <path stroke-width="2.50" stroke="grey" d="M 432.14 282.15 L 352.98 335.16" />
  <path stroke-width="2.50" stroke="grey" d="M 432.14 282.15 L 443.91 467.91" />
  <path stroke-width="2.50" stroke="grey" d="M 432.14 282.15 L 427.01 309.18" />
  <path stroke-width="2.50" stroke="grey" d="M 436.43 313.76 L 429.36 246.62" />
  <path stroke-width="2.50" stroke="grey" d="M 436.43 313.76 L 448.56 287.76" />
  <path stroke-width="2.50" stroke="grey" d="M 436.43 313.76 L 459.69 334.62" />
  <path stroke-width="2.50" stroke="grey" d="M 436.43 313.76 L 455.98 360.12" />
  <path stroke-width="2.50" stroke="grey" d="M 436.43 313.76 L 416.09 371.83" />
  <path stroke-width="2.50" stroke="grey" d="M 436.43 313.76 L 436.51 346.24" />
  <path stroke-width="2.50" stroke="grey" d="M 436.43 313.76 L 387.57 330.21" />
  <path stroke-width="2.50" stroke="grey" d="M 436.43 313.76 L 427.33 278.43" />
  <path stroke-width="2.50" stroke="grey" d="M 400.50 387.56 L 383.72 379.44" />
  <path stroke-width="2.50" stroke="grey" d="M 400.50 387.56 L 378.52 362.72" />
  <path stroke-width="2.50" stroke="grey" d="M 400.50 387.56 L 400.60 395.02" />
  <path stroke-width="2.50" stroke="grey" d="M 400.50 387.56 L 419.92 456.48" />
  <path stroke-width="2.50" stroke="grey" d="M 400.50 387.56 L 453.47 514.66" />
  <path stroke-width="2.50" stroke="grey" d="M 400.50 387.56 L 442.26 473.75" />
  <path stroke-width="2.50" stroke="grey" d="M 400.50 387.56 L 416.46 432.37" />
  <path stroke-width="2.50" stroke="grey" d="M 400.50 387.56 L 389.97 431.84" />
  <path stroke-width="2.50" stroke="grey" d="M 400.50 387.56 L 405.54 431.48" />
  <path stroke-width="2.50" stroke="grey" d="M 400.50 387.56 L 379.65 464.55" />
  <path stroke-width="2.50" stroke="grey" d="M 400.50 387.56 L 419.85 481.54" />
  <path stroke-width="2.50" stroke="grey" d="M 400.50 387.56 L 450.16 534.96" />
  <path stroke-width="2.50" stroke="grey" d="M 400.50 387.56 L 402.59 395.68" />
  <path stroke-width="2.50" stroke="grey" d="M 400.50 387.56 L 402.44 414.79" />
  <path stroke-width="2.50" stroke="grey" d="M 400.50 387.56 L 406.26 437.61" />
  <path stroke-width="2.50" stroke="grey" d="M 400.50 387.56 L 429.21 528.32" />
  <path stroke-width="2.50" stroke="grey" d="M 427.46 526.90 L 420.79 494.02" />
  <path stroke-width="2.50" stroke="grey" d="M 427.46 526.90 L 433.61 441.97" />
  <path stroke-width="2.50" stroke="grey" d="M 427.46 526.90 L 439.63 471.01" />
  <path stroke-width="2.50" stroke="grey" d="M 427.46 526.90 L 473.85 468.39" />
  <path stroke-width="2.50" stroke="grey" d="M 427.46 526.90 L 460.69 507.92" />
  <path stroke-width="2.50" stroke="grey" d="M 427.46 526.90 L 434.73 571.49" />
  <path stroke-width="2.50" stroke="grey" d="M 427.46 526.90 L 473.72 442.64" />
  <path stroke-width="2.50" stroke="grey" d="M 427.46 526.90 L 452.12 465.96" />
  <path stroke-width="2.50" stroke="grey" d="M 427.46 526.90 L 434.27 526.68" />
  <path stroke-width="2.50" stroke="grey" d="M 427.46 526.90 L 447.20 490.33" />
  <path stroke-width="2.50" stroke="grey" d="M 427.46 526.90 L 464.19 578.58" />
  <path stroke-width="2.50" stroke="grey" d="M 427.46 526.90 L 419.87 638.40" />
  <path stroke-width="2.50" stroke="grey" d="M 427.46 526.90 L 396.16 656.64" />
  <path stroke-width="2.50" stroke="grey" d="M 427.46 526.90 L 415.21 576.16" />
  <path stroke-width="2.50" stroke="grey" d="M 435.56 588.15 L 416.91 588.25" />
  <path stroke-width="2.50" stroke="grey" d="M 435.56 588.15 L 446.84 589.27" />
  <path stroke-width="2.50" stroke="grey" d="M 435.56 588.15 L 425.60 598.97" />
  <path stroke-width="2.50" stroke="grey" d="M 435.56 588.15 L 486.37 637.34" />
  <path stroke-width="2.50" stroke="grey" d="M 438.72 675.85 L 427.04 650.10" />
  <path stroke-width="2.50" stroke="grey" d="M 438.72 675.85 L 502.20 730.89" />
  <path stroke-width="2.50" stroke="grey" d="M 438.72 675.85 L 484.64 725.97" />
  <path stroke-width="2.50" stroke="grey" d="M 438.72 675.85 L 464.90 744.47" />
  <path stroke-width="2.50" stroke="grey" d="M 438.72 675.85 L 460.77 775.76" />
  <path stroke-width="2.50" stroke="grey" d="M 438.72 675.85 L 458.88 772.26" />
  <path stroke-width="2.50" stroke="grey" d="M 438.72 675.85 L 442.72 715.06" />
  <path stroke-width="2.50" stroke="grey" d="M 438.72 675.85 L 449.30 679.11" />
  <path stroke-width="2.50" stroke="grey" d="M 438.72 675.85 L 430.47 650.79" />
  <path stroke-width="2.50" stroke="grey" d="M 438.72 675.85 L 444.06 655.01" />
  <path stroke-width="2.50" stroke="grey" d="M 438.72 675.85 L 454.46 682.59" />
  <path stroke-width="2.50" stroke="grey" d="M 438.72 675.85 L 467.70 710.06" />
  <path stroke-width="2.50" stroke="grey" d="M 438.72 675.85 L 465.29 767.29" />
  <path stroke-width="2.50" stroke="grey" d="M 438.72 675.85 L 444.80 779.84" />
  <path stroke-width="2.50" stroke="grey" d="M 438.72 675.85 L 429.37 747.30" />
  <path stroke-width="2.50" stroke="grey" d="M 438.72 675.85 L 423.65 717.76" />
  <path stroke-width="2.50" stroke="grey" d="M 438.72 675.85 L 404.30 708.52" />
  <path stroke-width="2.50" stroke="grey" d="M 438.72 675.85 L 421.88 659.38" />
  <path stroke-width="2.50" stroke="grey" d="M 438.72 675.85 L 431.30 646.38" />
  <path stroke-width="2.50" stroke="grey" d="M 438.72 675.85 L 410.78 686.03" />
  <path stroke-width="2.50" stroke="grey" d="M 438.72 675.85 L 420.40 672.40" />
  <path stroke-width="2.50" stroke="grey" d="M 438.72 675.85 L 426.98 674.97" />
  <path stroke-width="2.50" stroke="grey" d="M 438.72 675.85 L 458.96 700.84" />
  <path stroke-width="2.50" stroke="grey" d="M 438.72 675.85 L 468.72 698.44" />
  <path stroke-width="2.50" stroke="grey" d="M 438.72 675.85 L 480.42 715.76" />
  <path stroke-width="2.50" stroke="grey" d="M 438.72 675.85 L 455.30 699.72" />
  <path stroke-width="2.50" stroke="grey" d="M 438.72 675.85 L 437.98 702.52" />
  <path stroke-width="2.50" stroke="grey" d="M 424.74 834.02 L 416.91 815.66" />
  <path stroke-width="2.50" stroke="grey" d="M 424.74 834.02 L 409.61 825.31" />
  <path stroke-width="2.50" stroke="grey" d="M 424.74 834.02 L 417.98 818.38" />
  <path stroke-width="2.50" stroke="grey" d="M 424.74 834.02 L 404.81 824.69" />
  <path stroke-width="2.50" stroke="grey" d="M 424.74 834.02 L 434.49 809.19" />
  <path stroke-width="2.50" stroke="grey" d="M 424.74 834.02 L 470.72 798.08" />
  <path stroke-width="2.50" stroke="grey" d="M 424.74 834.02 L 474.46 820.99" />
  <path stroke-width="2.50" stroke="grey" d="M 424.74 834.02 L 434.99 832.66" />
  <path stroke-width="2.50" stroke="grey" d="M 424.74 834.02 L 418.07 844.98" />
  <path stroke-width="2.50" stroke="grey" d="M 424.74 834.02 L 416.67 827.27" />
  <path stroke-width="2.50" stroke="grey" d="M 424.74 834.02 L 438.92 820.41" />
  <path stroke-width="2.50" stroke="grey" d="M 486.68 809.66 L 419.62 800.79" />
  <path stroke-width="2.50" stroke="grey" d="M 486.68 809.66 L 413.41 816.01" />
  <path stroke-width="2.50" stroke="grey" d="M 486.68 809.66 L 451.21 785.65" />
  <path stroke-width="2.50" stroke="grey" d="M 486.68 809.66 L 423.81 789.65" />
  <path stroke-width="2.50" stroke="grey" d="M 486.68 809.66 L 408.10 798.95" />
  <path stroke-width="2.50" stroke="grey" d="M 486.68 809.66 L 397.39 812.44" />
  <path stroke-width="2.50" stroke="grey" d="M 486.68 809.66 L 436.75 822.06" />
  <path stroke-width="2.50" stroke="grey" d="M 486.68 809.66 L 466.28 817.72" />
  <path stroke-width="2.50" stroke="grey" d="M 486.68 809.66 L 480.53 818.40" />
  <path stroke-width="2.50" stroke="grey" d="M 486.68 809.66 L 442.81 803.04" />
  <path stroke-width="2.50" stroke="grey" d="M 486.68 809.66 L 412.18 801.30" />
  <path stroke-width="2.50" stroke="grey" d="M 486.68 809.66 L 389.10 799.37" />
  <path stroke-width="2.50" stroke="grey" d="M 486.68 809.66 L 404.25 786.80" />
  <path stroke-width="2.50" stroke="grey" d="M 486.68 809.66 L 423.24 784.63" />
  <path stroke-width="2.50" stroke="grey" d="M 486.68 809.66 L 426.54 823.82" />
  <path stroke-width="2.50" stroke="grey" d="M 486.68 809.66 L 476.42 817.75" />
  <path stroke-width="2.50" stroke="grey" d="M 486.68 809.66 L 472.58 826.08" />
  <path stroke-width="2.50" stroke="grey" d="M 486.68 809.66 L 468.81 849.02" />
  <path stroke-width="2.50" stroke="grey" d="M 486.68 809.66 L 473.80 873.10" />
  <path stroke-width="2.50" stroke="grey" d="M 486.68 809.66 L 488.06 897.24" />
  <path stroke-width="2.50" stroke="grey" d="M 486.68 809.66 L 518.24 872.08" />
  <path stroke-width="2.50" stroke="grey" d="M 486.68 809.66 L 528.94 869.95" />
  <path stroke-width="2.50" stroke="grey" d="M 486.68 809.66 L 492.90 817.42" />
  <path stroke-width="2.50" stroke="grey" d="M 514.06 845.74 L 500.81 835.51" />
  <path stroke-width="2.50" stroke="grey" d="M 514.06 845.74 L 487.60 865.10" />
  <path stroke-width="2.50" stroke="grey" d="M 514.06 845.74 L 533.85 849.16" />
  <path stroke-width="2.50" stroke="grey" d="M 514.06 845.74 L 513.21 826.53" />
  <path stroke-width="2.50" stroke="grey" d="M 514.06 845.74 L 508.36 852.02" />
  <path stroke-width="2.50" stroke="grey" d="M 514.06 845.74 L 482.06 853.20" />
  <path stroke-width="2.50" stroke="grey" d="M 514.06 845.74 L 488.44 856.25" />
  <path stroke-width="2.50" stroke="grey" d="M 514.06 845.74 L 492.35 878.91" />
  <path stroke-width="2.50" stroke="grey" d="M 514.06 845.74 L 506.18 859.02" />
  <path stroke-width="2.50" stroke="grey" d="M 514.06 845.74 L 522.76 844.41" />
  <path stroke-width="2.50" stroke="grey" d="M 514.06 845.74 L 527.97 837.38" />
  <path stroke-width="2.50" stroke="grey" d="M 514.06 845.74 L 549.82 824.40" />
  <path stroke-width="2.50" stroke="grey" d="M 514.06 845.74 L 542.17 800.58" />
  <path stroke-width="2.50" stroke="grey" d="M 514.06 845.74 L 597.08 778.38" />
  <path stroke-width="2.50" stroke="grey" d="M 514.06 845.74 L 569.46 780.25" />
  <path stroke-width="2.50" stroke="grey" d="M 514.06 845.74 L 553.35 825.87" />
  <path stroke-width="2.50" stroke="grey" d="M 514.06 845.74 L 598.70 805.04" />
  <path stroke-width="2.50" stroke="grey" d="M 514.06 845.74 L 590.20 814.81" />
  <path stroke-width="2.50" stroke="grey" d="M 610.85 757.80 L 618.76 774.08" />
  <path stroke-width="2.50" stroke="grey" d="M 610.85 757.80 L 612.16 766.61" />
  <path stroke-width="2.50" stroke="grey" d="M 610.85 757.80 L 570.98 746.98" />
  <path stroke-width="2.50" stroke="grey" d="M 610.85 757.80 L 556.72 763.62" />
  <path stroke-width="2.50" stroke="grey" d="M 610.85 757.80 L 587.14 768.25" />
  <path stroke-width="2.50" stroke="grey" d="M 610.85 757.80 L 645.11 763.69" />
  <path stroke-width="2.50" stroke="grey" d="M 610.85 757.80 L 658.34 750.45" />
  <path stroke-width="2.50" stroke="grey" d="M 610.85 757.80 L 638.72 737.84" />
  <path stroke-width="2.50" stroke="grey" d="M 664.54 736.78 L 633.98 740.39" />
  <path stroke-width="2.50" stroke="grey" d="M 664.54 736.78 L 662.40 718.91" />
  <path stroke-width="2.50" stroke="grey" d="M 664.54 736.78 L 664.32 731.15" />
  <path stroke-width="2.50" stroke="grey" d="M 664.54 736.78 L 662.65 742.96" />
  <path stroke-width="2.50" stroke="grey" d="M 664.54 736.78 L 685.78 735.53" />
  <path stroke-width="2.50" stroke="grey" d="M 664.54 736.78 L 714.68 721.62" />
  <path stroke-width="2.50" stroke="grey" d="M 664.54 736.78 L 689.68 713.64" />
  <path stroke-width="2.50" stroke="grey" d="M 733.09 675.55 L 723.55 666.65" />
  <path stroke-width="2.50" stroke="grey" d="M 765.99 619.78 L 764.83 627.88" />
  <path stroke-width="2.50" stroke="grey" d="M 765.99 619.78 L 756.18 626.60" />
  <path stroke-width="2.50" stroke="grey" d="M 765.99 619.78 L 757.01 627.93" />
  <path stroke-width="2.50" stroke="grey" d="M 765.99 619.78 L 764.06 645.33" />
  <path stroke-width="2.50" stroke="grey" d="M 765.99 619.78 L 781.20 621.19" />
  <path stroke-width="2.50" stroke="grey" d="M 765.99 619.78 L 795.10 635.79" />
  <path stroke-width="2.50" stroke="grey" d="M 765.99 619.78 L 816.49 658.97" />
  <path stroke-width="2.50" stroke="grey" d="M 765.99 619.78 L 831.92 658.03" />
  <path stroke-width="2.50" stroke="grey" d="M 765.99 619.78 L 802.59 652.82" />
  <path stroke-width="2.50" stroke="grey" d="M 765.99 619.78 L 753.97 642.45" />
  <path stroke-width="2.50" stroke="grey" d="M 831.88 658.17 L 827.79 644.01" />
  <path stroke-width="2.50" stroke="grey" d="M 831.88 658.17 L 829.44 653.81" />
  <path stroke-width="2.50" stroke="grey" d="M 831.88 658.17 L 824.22 650.36" />
  <path stroke-width="2.50" stroke="grey" d="M 831.88 658.17 L 849.36 632.36" />
  <path stroke-width="2.50" stroke="grey" d="M 831.88 658.17 L 883.50 611.02" />
  <path stroke-width="2.50" stroke="grey" d="M 831.88 658.17 L 872.78 637.32" />
  <path stroke-width="2.50" stroke="grey" d="M 831.88 658.17 L 933.21 604.77" />
  <path stroke-width="2.50" stroke="grey" d="M 831.88 658.17 L 869.03 621.07" />
  <path stroke-width="2.50" stroke="grey" d="M 831.88 658.17 L 889.85 589.93" />
  <path stroke-width="2.50" stroke="grey" d="M 940.08 595.88 L 887.12 646.82" />
  <path stroke-width="2.50" stroke="grey" d="M 940.08 595.88 L 917.72 656.00" />
  <path stroke-width="2.50" stroke="grey" d="M 940.08 595.88 L 940.28 604.64" />
  <path stroke-width="2.50" stroke="grey" d="M 940.08 595.88 L 946.92 559.67" />
  <path stroke-width="2.50" stroke="grey" d="M 940.08 595.88 L 926.38 572.13" />
  <path stroke-width="2.50" stroke="grey" d="M 940.08 595.88 L 914.15 588.97" />
  <path stroke-width="2.50" stroke="grey" d="M 940.08 595.88 L 890.39 607.68" />
  <path stroke-width="2.50" stroke="grey" d="M 940.08 595.88 L 937.38 588.95" />
  <path stroke-width="2.50" stroke="grey" d="M 940.08 595.88 L 935.36 598.41" />
  <path stroke-width="2.50" stroke="grey" d="M 940.08 595.88 L 964.37 556.02" />
  <path stroke-width="2.50" stroke="grey" d="M 940.08 595.88 L 980.93 568.72" />
  <path stroke-width="2.50" stroke="grey" d="M 940.08 595.88 L 1052.44 476.98" />
  <path stroke-width="2.50" stroke="grey" d="M 940.08 595.88 L 967.75 530.70" />
  <path stroke-width="2.50" stroke="grey" d="M 940.08 595.88 L 971.12 555.71" />
  <path stroke-width="2.50" stroke="grey" d="M 989.65 599.45 L 969.34 593.65" />
  <path stroke-width="2.50" stroke="grey" d="M 989.65 599.45 L 979.59 614.71" />
  <path stroke-width="2.50" stroke="grey" d="M 989.65 599.45 L 999.10 651.74" />
  <path stroke-width="2.50" stroke="grey" d="M 989.65 599.45 L 1014.52 660.70" />
  <path stroke-width="2.50" stroke="grey" d="M 989.65 599.45 L 1004.36 619.83" />
  <path stroke-width="2.50" stroke="grey" d="M 989.65 599.45 L 1001.04 622.67" />
  <path stroke-width="2.50" stroke="grey" d="M 989.65 599.45 L 982.98 612.62" />
  <path stroke-width="2.50" stroke="grey" d="M 989.65 599.45 L 1015.48 632.74" />
  <path stroke-width="2.50" stroke="grey" d="M 989.65 599.45 L 1029.52 657.08" />
  <path stroke-width="2.50" stroke="grey" d="M 989.65 599.45 L 1001.21 622.00" />
  <path stroke-width="2.50" stroke="grey" d="M 1018.21 655.54 L 1021.10 635.46" />
  <path stroke-width="2.50" stroke="grey" d="M 1018.21 655.54 L 1019.20 636.27" />
  <path stroke-width="2.50" stroke="grey" d="M 1018.21 655.54 L 1027.80 600.44" />
  <path stroke-width="2.50" stroke="grey" d="M 1018.21 655.54 L 1032.11 555.43" />
  <path stroke-width="2.50" stroke="grey" d="M 1018.21 655.54 L 1017.21 639.54" />
  <path stroke-width="2.50" stroke="grey" d="M 1018.21 655.54 L 1033.74 646.20" />
  <path stroke-width="2.50" stroke="grey" d="M 1018.21 655.54 L 1056.08 601.36" />
  <path stroke-width="2.50" stroke="grey" d="M 1018.21 655.54 L 1099.65 519.12" />
  <path stroke-width="2.50" stroke="grey" d="M 1018.21 655.54 L 1035.38 620.66" />
  <path stroke-width="2.50" stroke="grey" d="M 1018.21 655.54 L 1070.43 567.65" />
  <path stroke-width="2.50" stroke="grey" d="M 1125.77 494.43 L 1126.02 490.70" />
  <path stroke-width="2.50" stroke="grey" d="M 1125.77 494.43 L 1118.09 488.65" />
  <path stroke-width="2.50" stroke="grey" d="M 1125.77 494.43 L 1117.87 488.92" />
  <path stroke-width="2.50" stroke="grey" d="M 1125.77 494.43 L 1117.44 490.55" />
  <path stroke-width="2.50" stroke="grey" d="M 1125.77 494.43 L 1114.48 491.93" />
  <path stroke-width="2.50" stroke="grey" d="M 1125.77 494.43 L 1127.94 496.98" />
  <path stroke-width="2.50" stroke="grey" d="M 1125.77 494.43 L 1117.80 488.96" />
  <path stroke-width="2.50" stroke="grey" d="M 1125.77 494.43 L 1129.07 479.03" />
  <path stroke-width="2.50" stroke="grey" d="M 1125.77 494.43 L 1156.76 437.40" />
  <path stroke-width="2.50" stroke="grey" d="M 1125.77 494.43 L 1120.27 488.44" />
  <path stroke-width="2.50" stroke="grey" d="M 1125.77 494.43 L 1140.94 467.39" />
  <path stroke-width="2.50" stroke="grey" d="M 1125.77 494.43 L 1156.26 406.32" />
  <path stroke-width="2.50" stroke="grey" d="M 1183.60 404.49 L 1183.76 446.90" />
  <path stroke-width="2.50" stroke="grey" d="M 1183.60 404.49 L 1179.98 512.40" />
  <path stroke-width="2.50" stroke="grey" d="M 1183.60 404.49 L 1195.43 493.10" />
  <path stroke-width="2.50" stroke="grey" d="M 1183.60 404.49 L 1184.89 455.32" />
  <path stroke-width="2.50" stroke="grey" d="M 1183.60 404.49 L 1178.63 486.05" />
  <path stroke-width="2.50" stroke="grey" d="M 1183.60 404.49 L 1163.87 389.04" />
  <path stroke-width="2.50" stroke="grey" d="M 1183.60 404.49 L 1171.19 345.08" />
  <path stroke-width="2.50" stroke="grey" d="M 1183.60 404.49 L 1168.18 382.55" />
  <path stroke-width="2.50" stroke="grey" d="M 1183.60 404.49 L 1189.08 354.69" />
  <path stroke-width="2.50" stroke="grey" d="M 1183.60 404.49 L 1203.17 294.53" />
  <path stroke-width="2.50" stroke="grey" d="M 1183.60 404.49 L 1154.47 421.28" />
  <path stroke-width="2.50" stroke="grey" d="M 1183.60 404.49 L 1225.97 356.86" />
  <path stroke-width="2.50" stroke="grey" d="M 1183.60 404.49 L 1216.52 370.33" />
  <path stroke-width="2.50" stroke="grey" d="M 1183.60 404.49 L 1180.89 427.18" />
  <path stroke-width="2.50" stroke="grey" d="M 1183.60 404.49 L 1192.25 339.61" />
  <path stroke-width="2.50" stroke="grey" d="M 1183.60 404.49 L 1197.41 303.72" />
  <path stroke-width="2.50" stroke="grey" d="M 1183.60 404.49 L 1132.82 457.82" />
  <path stroke-width="2.50" stroke="grey" d="M 1183.60 404.49 L 1160.34 429.29" />
  <path stroke-width="2.50" stroke="grey" d="M 1183.60 404.49 L 1152.62 405.10" />
  <path stroke-width="2.50" stroke="grey" d="M 1183.60 404.49 L 1143.36 408.57" />
  <path stroke-width="2.50" stroke="grey" d="M 1183.60 404.49 L 1164.32 430.08" />
  <path stroke-width="2.50" stroke="grey" d="M 1183.60 404.49 L 1177.45 363.46" />
  <path stroke-width="2.50" stroke="grey" d="M 1230.47 301.02 L 1215.88 303.94" />
  <path stroke-width="2.50" stroke="grey" d="M 1230.47 301.02 L 1236.61 304.58" />
  <path stroke-width="2.50" stroke="grey" d="M 1230.47 301.02 L 1277.95 298.03" />
  <path stroke-width="2.50" stroke="grey" d="M 1230.47 301.02 L 1285.43 291.66" />
  <path stroke-width="2.50" stroke="grey" d="M 1230.47 301.02 L 1180.44 321.22" />
  <path stroke-width="2.50" stroke="grey" d="M 1230.47 301.02 L 1243.75 313.42" />
  <path stroke-width="2.50" stroke="grey" d="M 1230.47 301.02 L 1262.84 295.25" />
  <path stroke-width="2.50" stroke="grey" d="M 1230.47 301.02 L 1287.83 270.82" />
  <path stroke-width="2.50" stroke="grey" d="M 1230.47 301.02 L 1194.68 354.80" />
  <path stroke-width="2.50" stroke="grey" d="M 1282.88 282.07 L 1274.51 291.55" />
  <path stroke-width="2.50" stroke="grey" d="M 1282.88 282.07 L 1250.33 266.32" />
  <path stroke-width="2.50" stroke="grey" d="M 1282.88 282.07 L 1273.36 277.48" />
  <path stroke-width="2.50" stroke="grey" d="M 1282.88 282.07 L 1273.14 261.45" />
  <path stroke-width="2.50" stroke="grey" d="M 1282.88 282.07 L 1284.58 273.42" />
  <path stroke-width="2.50" stroke="grey" d="M 1282.88 282.07 L 1271.28 233.23" />
  <path stroke-width="2.50" stroke="grey" d="M 1282.88 282.07 L 1290.72 212.01" />
  <path stroke-width="2.50" stroke="grey" d="M 1283.28 200.70 L 1308.32 206.92" />
  <path stroke-width="2.50" stroke="grey" d="M 1283.28 200.70 L 1289.74 219.42" />
  <path stroke-width="2.50" stroke="grey" d="M 1283.28 200.70 L 1336.46 169.35" />
  <path stroke-width="2.50" stroke="grey" d="M 1283.28 200.70 L 1303.58 234.79" />
  <path stroke-width="2.50" stroke="grey" d="M 1283.28 200.70 L 1301.19 206.71" />
  <path stroke-width="2.50" stroke="grey" d="M 1283.28 200.70 L 1294.82 185.20" />
  <path stroke-width="2.50" stroke="grey" d="M 1283.28 200.70 L 1304.01 148.27" />
  <path stroke-width="2.50" stroke="grey" d="M 1283.28 200.70 L 1281.28 182.55" />
  <path stroke-width="2.50" stroke="grey" d="M 1363.48 40.74 L 1353.06 45.97" />
  <path stroke-width="2.50" stroke="grey" d="M 1363.48 40.74 L 1301.83 144.32" />
  <path stroke-width="2.50" stroke="grey" d="M 1363.48 40.74 L 1332.41 77.12" />
  <path stroke-width="2.50" stroke="grey" d="M 1363.48 40.74 L 1334.01 108.48" />
  <path stroke-width="2.50" stroke="grey" d="M 1363.48 40.74 L 1349.12 84.48" />
  <path stroke-width="2.50" stroke="grey" d="M 1363.48 40.74 L 1375.91 61.81" />
  <path stroke-width="2.50" stroke="grey" d="M 1363.48 40.74 L 1350.85 46.50" />
  <path stroke-width="2.50" stroke="grey" d="M 1363.48 40.74 L 1309.82 83.66" />
  <path stroke-width="2.50" stroke="grey" d="M 1363.48 40.74 L 1316.31 91.42" />
  <path stroke-width="2.50" stroke="grey" d="M 1363.48 40.74 L 1351.51 89.60" />
  <path stroke-width="2.50" stroke="grey" d="M 1363.48 40.74 L 1364.29 64.53" />
  <path stroke-width="2.50" stroke="grey" d="M 1363.48 40.74 L 1412.49 98.25" />
  <path stroke-width="2.50" stroke="grey" d="M 1363.48 40.74 L 1411.69 37.19" />
  <path stroke-width="2.50" stroke="grey" d="M 1363.48 40.74 L 1388.10 47.81" />
  <path stroke-width="2.50" stroke="grey" d="M 1363.48 40.74 L 1394.69 66.15" />
  <path stroke-width="2.50" stroke="grey" d="M 1363.48 40.74 L 1418.57 76.63" />
  <path stroke-width="2.50" stroke="grey" d="M 1363.48 40.74 L 1447.71 88.34" />
  <path stroke-width="2.50" stroke="grey" d="M 1454.12 99.23 L 1449.90 83.50" />
  <path stroke-width="2.50" stroke="grey" d="M 1454.12 99.23 L 1456.76 86.19" />
  <path stroke-width="2.50" stroke="grey" d="M 1454.12 99.23 L 1469.40 89.89" />
  <path stroke-width="2.50" stroke="grey" d="M 1454.12 99.23 L 1480.99 92.40" />
  <path stroke-width="2.50" stroke="grey" d="M 1454.12 99.23 L 1470.28 75.79" />
  <path stroke-width="2.50" stroke="grey" d="M 1454.12 99.23 L 1463.55 50.96" />
  <path stroke-width="2.50" stroke="grey" d="M 1481.93 69.66 L 1460.64 79.12" />
  <path stroke-width="2.50" stroke="grey" d="M 1481.93 69.66 L 1464.29 58.29" />
  <path stroke-width="2.50" stroke="grey" d="M 1481.93 69.66 L 1448.82 31.17" />
  <path stroke-width="2.50" stroke="grey" d="M 1481.93 69.66 L 1452.61 51.26" />
  <path stroke-width="2.50" stroke="grey" d="M 1481.93 69.66 L 1484.01 80.32" />
  <path stroke-width="2.50" stroke="grey" d="M 1447.23 30.82 L 1477.52 91.37" />
  <path stroke-width="2.50" stroke="grey" d="M 1447.23 30.82 L 1483.47 61.02" />
  <path stroke-width="2.50" stroke="grey" d="M 1447.23 30.82 L 1485.91 28.04" />
  <path stroke-width="2.50" stroke="grey" d="M 1447.23 30.82 L 1444.34 16.16" />
  <path stroke-width="2.50" stroke="grey" d="M 1447.23 30.82 L 1442.86 6.64" />
  <path stroke-width="2.50" stroke="grey" d="M 1447.23 30.82 L 1440.54 39.54" />
  <path stroke-width="2.50" stroke="grey" d="M 1447.23 30.82 L 1482.92 48.89" />
  <path stroke-width="2.50" stroke="grey" d="M 1447.23 30.82 L 1488.86 40.39" />
  <path stroke-width="2.50" stroke="grey" d="M 1447.23 30.82 L 1514.41 29.50" />
  <path stroke-width="2.50" stroke="grey" d="M 1447.23 30.82 L 1483.26 34.19" />
  <path stroke-width="2.50" stroke="grey" d="M 1447.23 30.82 L 1477.58 17.11" />
  <path stroke-width="2.50" stroke="grey" d="M 1447.23 30.82 L 1494.22 12.18" />
  <path stroke-width="2.50" stroke="grey" d="M 1447.23 30.82 L 1502.37 0.41" />
  <path stroke-width="2.50" stroke="grey" d="M 1447.23 30.82 L 1516.97 1.92" />
  <path stroke-width="2.50" stroke="grey" d="M 1447.23 30.82 L 1532.19 14.54" />
  <path stroke-width="2.50" stroke="grey" d="M 1447.23 30.82 L 1532.01 14.01" />
  <path stroke-width="2.50" stroke="grey" d="M 1447.23 30.82 L 1499.29 30.90" />
  <path stroke-width="2.50" stroke="grey" d="M 1447.23 30.82 L 1518.27 24.29" />
  <path stroke-width="2.50" stroke="grey" d="M 1531.55 15.32 L 1506.83 12.76" />
  <path stroke-width="2.50" stroke="grey" d="M 1531.55 15.32 L 1520.97 25.21" />
  <path stroke-width="2.50" stroke="grey" d="M 1531.55 15.32 L 1522.72 26.48" />
  <path stroke-width="2.50" stroke="grey" d="M 1531.55 15.32 L 1514.87 26.86" />
  <path stroke-width="2.50" stroke="grey" d="M 1531.55 15.32 L 1491.15 41.61" />
  <path stroke-width="2.50" stroke="grey" d="M 1531.55 15.32 L 1493.49 2.85" />
  <path stroke-width="2.50" stroke="grey" d="M 1531.55 15.32 L 1488.58 3.10" />
  <path stroke-width="2.50" stroke="grey" d="M 1531.55 15.32 L 1527.54 9.46" />
  <path stroke-width="2.50" stroke="grey" d="M 1531.55 15.32 L 1516.25 9.18" />
  <path stroke-width="2.50" stroke="grey" d="M 1531.55 15.32 L 1501.35 11.18" />
  <path stroke-width="2.50" stroke="grey" d="M 1531.55 15.32 L 1495.37 10.74" />
  <path stroke-width="2.50" stroke="grey" d="M 1531.55 15.32 L 1460.79 15.42" />
  <path stroke-width="2.50" stroke="grey" d="M 1531.55 15.32 L 1442.35 21.78" />
  <path stroke-width="2.50" stroke="grey" d="M 1531.55 15.32 L 1491.07 36.96" />
  <path stroke-width="2.50" stroke="grey" d="M 1531.55 15.32 L 1519.21 25.78" />
  <path stroke-width="2.50" stroke="grey" d="M 1531.55 15.32 L 1524.77 39.33" />
  <path stroke-width="2.50" stroke="grey" d="M 1531.55 15.32 L 1524.84 19.84" />
  <path stroke-width="2.50" stroke="grey" d="M 1531.55 15.32 L 1536.62 -0.12" />
  <path stroke-width="2.50" stroke="grey" d="M 1531.55 15.32 L 1500.63 -7.04" />
  <path stroke-width="2.50" stroke="grey" d="M 1531.55 15.32 L 1455.08 -4.22" />
  <path stroke-width="2.50" stroke="grey" d="M 1531.55 15.32 L 1490.41 19.07" />
  <path stroke-width="2.50" stroke="grey" d="M 1531.55 15.32 L 1528.18 27.19" />
  <path stroke-width="2.50" stroke="grey" d="M 1531.55 15.32 L 1553.18 44.00" />
  <path stroke-width="2.50" stroke="grey" d="M 1531.55 15.32 L 1586.16 76.65" />
  <path stroke-width="2.50" stroke="grey" d="M 1531.55 15.32 L 1648.75 53.75" />
  <path stroke-width="2.50" stroke="grey" d="M 1531.55 15.32 L 1588.80 14.73" />
  <path stroke-width="2.50" stroke="grey" d="M 1531.55 15.32 L 1559.23 7.13" />
  <path stroke-width="2.50" stroke="grey" d="M 1531.55 15.32 L 1494.18 2.62" />
</g>
<g id="scrap_0">
<g id="points">
</g>
<g id="lines">
  <path stroke="#ff0000" stroke-width="2.50" fill="none" class="wall" d="M 294.30 339.97 L 292.30 332.87 L 289.82 326.60 L 287.24 320.07 L 285.15 313.99 L 283.73 307.15 L 283.46 300.17 L 284.09 292.84 L 284.53 285.56 L 284.66 278.50 L 284.75 271.52 L 284.75 265.08 L 285.20 258.73 L 287.55 252.69 L 293.68 251.67 L 299.23 255.31 L 304.03 259.57 L 308.60 264.46 L 312.07 270.28 L 318.11 270.72 L 323.84 265.26 L 330.55 258.42 L 337.34 251.67 L 341.47 246.07 L 346.54 240.65 L 352.53 236.74 L 358.97 235.28 L 365.37 236.34 L 370.66 241.09 L 376.21 244.87 L 382.43 248.29 L 388.51 251.09 L 394.73 252.87 L 398.95 254.11" />
  <path stroke="#ff0000" stroke-width="2.50" fill="none" class="wall" d="M 294.30 339.62 L 295.28 346.10 L 295.28 353.39 L 294.97 360.76 L 295.24 367.69 L 296.92 374.76 L 299.23 381.42 L 301.99 387.37 L 306.65 393.46 L 311.00 399.90 L 316.24 405.23 L 322.33 407.09 L 329.08 407.80 L 336.85 408.51 L 342.81 409.85 L 349.96 410.74 L 356.89 410.34 L 363.33 410.65" />
  <path stroke="#ff0000" stroke-width="2.50" fill="none" class="wall" d="M 367.10 407.19 L 377.34 406.57 L 387.17 402.21 L 395.75 398.05 L 404.81 391.96" />
  <path stroke="#ff0000" stroke-width="2.50" fill="none" class="wall" d="M 417.13 270.04 L 408.34 264.71 L 399.07 257.31 L 394.02 254.33" />
  <path stroke="#cccccc" stroke-width="2.50" fill="none" class="user" d="M 407.03 390.80 L 404.61 385.93 L 402.69 380.35 L 401.71 374.86 L 400.86 369.66 L 400.46 363.81 L 400.63 356.53 L 401.44 350.19 L 402.49 343.06 L 403.34 337.44 L 404.22 332.67 L 405.33 327.44" />
  <path stroke="#cccccc" stroke-width="2.50" fill="none" class="user" d="M 399.16 382.60 L 405.43 381.20 L 413.57 379.20 L 417.81 378.45" />
  <path stroke="#cccccc" stroke-width="2.50" fill="none" class="user" d="M 398.99 361.10 L 404.94 360.90 L 410.30 360.54 L 415.66 360.28" />
  <path stroke="#cccccc" stroke-width="2.50" fill="none" class="user" d="M 399.25 337.18 L 405.53 338.91 L 410.07 340.16 L 415.92 341.33" />
  <path stroke="#ff0000" stroke-width="2.50" fill="none" class="wall" d="M 415.05 271.98 L 423.77 275.11 L 432.01 277.75 L 440.38 280.04 L 448.50 283.29 L 455.84 287.50 L 463.12 292.56" />
  <path stroke="#ff0000" stroke-width="2.50" fill="none" class="wall" d="M 424.49 384.44 L 414.69 387.99 L 403.13 391.90 L 399.64 393.52" />
  <path stroke="#cccccc" stroke-width="2.50" fill="none" class="user" d="M 417.07 289.70 L 414.16 293.33 L 412.59 298.45 L 410.60 303.66 L 409.05 308.39 L 407.98 313.66 L 406.81 319.16 L 406.12 324.55 L 405.07 329.45 L 404.54 331.59" />
  <path stroke="#cccccc" stroke-width="2.50" fill="none" class="user" d="M 408.07 314.26 L 414.67 314.70 L 420.22 315.62 L 424.86 316.57" />
  <path stroke="#cccccc" stroke-width="2.50" fill="none" class="user" d="M 414.35 297.69 L 421.58 298.42 L 426.79 299.27" />
  <path stroke="#ff0000" stroke-width="2.50" fill="none" class="wall" d="M 475.25 313.83 L 479.69 317.67 L 485.18 320.64 L 490.19 323.47 L 495.30 325.95 L 500.95 328.66 L 506.52 331.74 L 512.12 334.98 L 517.24 337.92 L 523.00 340.81 L 530.07 342.54 L 536.43 342.92 L 542.90 342.66 L 549.04 341.90 L 554.27 338.97 L 558.41 334.15 L 560.74 329.90" />
  <path stroke="#ff0000" stroke-width="2.50" fill="none" class="wall" d="M 580.09 258.91 L 578.77 267.95 L 576.67 284.48 L 574.50 304.30 L 573.11 318.38" />
  <path stroke="#ff0000" stroke-width="2.50" fill="none" class="wall" d="M 608.79 257.17 L 605.11 268.03 L 599.33 289.63 L 593.90 313.14 L 590.83 322.84" />
  <path stroke="#ff0000" stroke-width="2.50" fill="none" class="wall" d="M 571.90 285.13 L 579.97 286.22 L 589.40 287.23 L 607.32 288.66 L 620.12 288.51" />
  <path stroke="#ff0000" stroke-width="2.50" fill="none" class="wall" d="M 623.45 330.17 L 633.92 312.33 L 645.37 291.81 L 649.79 283.16 L 647.50 292.82 L 641.76 311.63 L 636.21 325.44 L 635.32 328.00" />
  <path stroke="#ff0000" stroke-width="2.50" fill="none" class="wall" d="M 653.98 325.48 L 652.43 334.67 L 649.48 341.30" />
  <path stroke="#ff0000" stroke-width="2.50" fill="none" class="wall" d="M 679.69 290.76 L 676.51 298.09 L 672.87 305.11 L 680.28 305.77 L 685.16 308.60 L 688.38 319.77 L 684.58 333.00 L 675.58 338.28 L 666.35 338.08 L 657.51 335.17" />
  <path stroke="#ff0000" stroke-width="2.50" fill="none" class="wall" d="M 679.73 292.23 L 688.85 291.38 L 695.36 291.85" />
  <path stroke="#ff0000" stroke-width="2.50" fill="none" class="wall" d="M 711.96 348.38 L 714.48 333.10 L 723.50 313.47 L 733.58 306.37 L 743.82 314.85 L 745.42 328.37 L 749.47 332.34 L 759.63 318.90 L 767.65 310.11 L 774.68 319.12 L 772.77 341.20 L 767.65 355.87 L 772.61 339.45 L 780.18 325.39 L 791.18 325.77 L 798.43 336.24 L 798.28 353.58 L 790.18 364.35 L 783.92 372.90" />
  <path stroke="#cccccc" stroke-width="2.50" fill="none" class="user" d="M 543.13 317.99 L 539.28 318.54 L 535.42 319.29 L 532.44 320.09 L 529.57 322.22 L 527.97 325.10 L 527.17 329.27 L 527.51 333.37 L 528.14 336.76 L 529.59 340.30 L 531.55 342.55 L 535.02 343.92 L 538.29 343.67 L 541.34 342.74 L 544.73 341.54 L 547.86 340.09 L 550.66 338.41 L 552.85 335.56 L 553.38 331.56 L 552.41 327.71 L 550.20 324.47 L 547.15 321.53 L 543.53 319.67 L 540.24 318.03" />
  <path stroke="#cccccc" stroke-width="2.50" fill="none" class="user" d="M 538.96 318.68 L 538.18 321.84 L 538.83 323.27" />
  <path stroke="#cccccc" stroke-width="2.50" fill="none" class="user" d="M 528.04 321.44 L 529.36 325.84 L 531.70 327.86" />
  <path stroke="#cccccc" stroke-width="2.50" fill="none" class="user" d="M 527.13 332.79 L 532.20 334.22 L 533.93 334.97" />
  <path stroke="#cccccc" stroke-width="2.50" fill="none" class="user" d="M 532.12 342.36 L 533.80 339.58 L 534.94 337.71" />
  <path stroke="#cccccc" stroke-width="2.50" fill="none" class="user" d="M 541.99 337.71 L 543.36 341.08 L 544.96 342.24" />
  <path stroke="#cccccc" stroke-width="2.50" fill="none" class="user" d="M 547.36 328.53 L 551.59 328.09 L 553.17 327.86" />
  <path stroke="#cccccc" stroke-width="2.50" fill="none" class="user" d="M 549.92 333.25 L 553.06 335.18 L 555.88 336.62" />
  <path stroke="#cccccc" stroke-width="2.50" fill="none" class="user" d="M 537.97 330.77 L 541.23 334.28 L 543.80 336.09" />
  <path stroke="#cccccc" stroke-width="2.50" fill="none" class="user" d="M 538.85 335.77 L 542.05 332.26 L 543.53 329.59" />
  <path stroke="#cccccc" stroke-width="2.50" fill="none" class="user" d="M 557.84 313.80 L 554.79 311.80 L 549.42 307.44 L 549.59 308.35 L 553.69 311.38" />
  <path stroke="#cccccc" stroke-width="2.50" fill="none" class="user" d="M 556.64 308.10 L 561.04 312.18 L 564.87 315.51" />
  <path stroke="#cccccc" stroke-width="2.50" fill="none" class="user" d="M 555.59 303.15 L 559.56 304.67 L 562.45 306.22 L 562.15 308.67" />
  <path stroke="#cccccc" stroke-width="2.50" fill="none" class="user" d="M 553.78 301.89 L 553.40 297.53 L 553.31 292.65 L 553.90 290.67" />
  <path stroke="#ff0000" stroke-width="2.50" fill="none" class="wall" d="M 457.70 287.41 L 459.81 289.64 L 460.84 292.43 L 463.24 293.36 L 466.49 294.32 L 469.45 295.03 L 472.56 296.00 L 475.21 296.38 L 478.02 296.38 L 478.32 295.46" />
  <path stroke="#ff0000" stroke-width="2.50" fill="none" class="wall" d="M 539.10 313.31 L 544.86 316.28 L 550.39 319.33 L 555.43 323.24 L 559.08 327.45 L 557.54 332.95" />
  <path stroke="#ff0000" stroke-width="2.50" fill="none" class="wall" d="M 456.14 286.70 L 458.99 288.16 L 461.65 288.95 L 464.12 289.73 L 466.72 291.51 L 469.49 292.80 L 472.28 293.64 L 474.73 294.47 L 478.10 295.37 L 480.94 295.70 L 483.73 295.52 L 486.65 295.40 L 489.40 295.22 L 492.06 294.86 L 495.16 294.73 L 498.21 294.06 L 501.24 293.48 L 504.11 292.75 L 507.12 291.74 L 510.58 290.61 L 513.73 289.71 L 516.81 289.10 L 519.79 288.72 L 522.56 288.59 L 525.87 288.82 L 529.58 289.85 L 532.40 291.29 L 534.67 293.12 L 536.07 295.39 L 536.26 298.51 L 535.28 300.89" />
  <path stroke="#ff0000" stroke-width="2.50" fill="none" class="wall" d="M 518.20 306.80 L 515.28 306.99 L 515.49 308.77 L 518.05 309.95 L 520.97 311.14 L 523.59 312.10 L 526.96 312.43 L 529.73 312.23 L 532.93 312.38 L 536.00 312.42 L 539.31 312.64" />
  <path stroke="#ff0000" stroke-width="2.50" fill="none" class="wall" d="M 534.48 299.60 L 532.27 301.39 L 529.00 302.31 L 525.80 303.21 L 522.54 304.18 L 519.25 304.99 L 517.58 305.77" />
  <path stroke="#cccccc" stroke-width="2.50" fill="none" class="user" d="M 414.57 292.90 L 416.44 287.68 L 419.01 282.19 L 422.23 278.06 L 424.10 274.54" />
  <path stroke="#cccccc" stroke-width="2.50" fill="none" class="user" d="M 421.57 280.26 L 426.33 284.00 L 430.76 287.71" />
  <path stroke="#ff0000" stroke-width="2.50" fill="none" class="wall" d="M 416.33 389.54 L 420.49 386.23 L 423.18 382.10 L 425.28 376.92 L 426.92 372.33 L 428.85 367.22 L 430.85 362.00 L 432.06 356.82 L 432.42 352.99" />
  <path stroke="#ff0000" stroke-width="2.50" fill="none" class="wall" d="M 448.32 378.03 L 448.72 383.90 L 449.04 388.39 L 449.57 393.84 L 450.03 398.59 L 450.49 404.33 L 450.95 410.23 L 451.21 417.11 L 451.27 425.15 L 451.27 432.46 L 451.80 439.80 L 452.39 445.93 L 453.50 452.65 L 454.42 459.18 L 454.81 462.98" />
  <path stroke="#ff0000" stroke-width="2.50" fill="none" class="wall" d="M 432.78 352.92 L 431.64 358.36 L 431.11 364.20 L 431.08 369.54 L 431.14 374.46 L 431.01 379.90 L 430.65 385.35 L 430.49 390.10 L 430.42 395.28 L 430.62 400.46 L 430.88 405.93 L 430.75 411.84 L 430.85 417.41 L 430.88 423.83 L 430.72 429.21 L 431.24 436.62 L 431.28 443.47 L 430.72 451.24 L 430.59 458.88 L 430.46 464.75 L 431.18 471.50" />
  <path stroke="#ff0000" stroke-width="2.50" fill="none" class="wall" d="M 459.24 339.28 L 460.62 333.15 L 462.39 328.73 L 465.21 324.04 L 468.25 319.97 L 471.37 316.04 L 475.07 313.15" />
  <path stroke="#ff0000" stroke-width="2.50" fill="none" class="wall" d="M 460.91 335.02 L 458.52 339.25 L 457.47 344.00 L 456.32 350.04 L 455.57 355.41 L 455.54 360.56 L 455.80 365.15 L 454.98 369.64 L 452.58 374.56 L 451.37 380.69 L 451.04 386.33 L 450.88 391.31 L 450.45 397.15" />
  <path stroke="#cccccc" stroke-width="2.50" fill="none" class="user" d="M 456.49 312.17 L 460.88 317.32 L 464.88 320.40 L 470.98 324.76 L 472.98 325.78" />
  <path stroke="#cccccc" stroke-width="2.50" fill="none" class="user" d="M 447.37 318.27 L 452.22 323.41 L 456.26 326.89 L 460.19 330.53" />
  <path stroke="#cccccc" stroke-width="2.50" fill="none" class="user" d="M 441.80 339.51 L 449.27 341.54 L 454.52 342.40" />
  <path stroke="#cccccc" stroke-width="2.50" fill="none" class="user" d="M 440.72 358.43 L 447.11 360.89 L 452.68 362.36 L 455.50 363.28" />
  <path stroke="#cccccc" stroke-width="2.50" fill="none" class="user" d="M 440.46 374.00 L 445.24 375.28 L 450.75 377.08" />
</g>
<g id="areas">
</g>
</g>
<g id="xsections">
</g>
<g id="stations">
<text font-size="32" fill="violet" stroke="none" text-anchor="middle" x="295.02" y="338.13" >0</text>
<text font-size="32" fill="violet" stroke="none" text-anchor="middle" x="432.14" y="282.15" >1</text>
<text font-size="32" fill="violet" stroke="none" text-anchor="middle" x="436.43" y="313.76" >2</text>
<text font-size="32" fill="violet" stroke="none" text-anchor="middle" x="400.50" y="387.56" >3</text>
<text font-size="32" fill="violet" stroke="none" text-anchor="middle" x="427.46" y="526.90" >4</text>
<text font-size="32" fill="violet" stroke="none" text-anchor="middle" x="435.56" y="588.15" >5</text>
<text font-size="32" fill="violet" stroke="none" text-anchor="middle" x="438.72" y="675.85" >6</text>
<text font-size="32" fill="violet" stroke="none" text-anchor="middle" x="424.74" y="834.02" >7</text>
<text font-size="32" fill="violet" stroke="none" text-anchor="middle" x="486.68" y="809.66" >8</text>
<text font-size="32" fill="violet" stroke="none" text-anchor="middle" x="514.06" y="845.74" >9</text>
<text font-size="32" fill="violet" stroke="none" text-anchor="middle" x="610.85" y="757.80" >10</text>
<text font-size="32" fill="violet" stroke="none" text-anchor="middle" x="664.54" y="736.78" >11</text>
<text font-size="32" fill="violet" stroke="none" text-anchor="middle" x="733.09" y="675.55" >12</text>
<text font-size="32" fill="violet" stroke="none" text-anchor="middle" x="766.00" y="619.78" >13</text>
<text font-size="32" fill="violet" stroke="none" text-anchor="middle" x="831.88" y="658.17" >14</text>
<text font-size="32" fill="violet" stroke="none" text-anchor="middle" x="940.08" y="595.88" >15</text>
<text font-size="32" fill="violet" stroke="none" text-anchor="middle" x="989.65" y="599.45" >16</text>
<text font-size="32" fill="violet" stroke="none" text-anchor="middle" x="1018.21" y="655.54" >17</text>
<text font-size="32" fill="violet" stroke="none" text-anchor="middle" x="1125.77" y="494.43" >18</text>
<text font-size="32" fill="violet" stroke="none" text-anchor="middle" x="1183.60" y="404.49" >19</text>
<text font-size="32" fill="violet" stroke="none" text-anchor="middle" x="1230.47" y="301.02" >20</text>
<text font-size="32" fill="violet" stroke="none" text-anchor="middle" x="1282.88" y="282.07" >21</text>
<text font-size="32" fill="violet" stroke="none" text-anchor="middle" x="1283.28" y="200.70" >22</text>
<text font-size="32" fill="violet" stroke="none" text-anchor="middle" x="1363.48" y="40.74" >23</text>
<text font-size="32" fill="violet" stroke="none" text-anchor="middle" x="1454.12" y="99.23" >24</text>
<text font-size="32" fill="violet" stroke="none" text-anchor="middle" x="1481.93" y="69.66" >25</text>
<text font-size="32" fill="violet" stroke="none" text-anchor="middle" x="1447.23" y="30.82" >26</text>
<text font-size="32" fill="violet" stroke="none" text-anchor="middle" x="1531.55" y="15.32" >27</text>
</g>
</svg>
